  0
SECTION
  2
HEADER
  9
$ACADVER
  1
AC1009
  9
$DWGCODEPAGE
  3
ansi_1252
  9
$INSBASE
 10
0.0
 20
0.0
 30
0.0
  9
$EXTMIN
 10
-372.4543
 20
-61.4778
 30
0.0
  9
$EXTMAX
 10
12.5467
 20
75.5232
 30
0.0
  9
$LIMMIN
 10
0.0
 20
0.0
  9
$LIMMAX
 10
12.0
 20
9.0
  9
$ORTHOMODE
 70
     0
  9
$REGENMODE
 70
     1
  9
$FILLMODE
 70
     1
  9
$QTEXTMODE
 70
     0
  9
$MIRRTEXT
 70
     1
  9
$DRAGMODE
 70
     2
  9
$LTSCALE
 40
1.0
  9
$OSMODE
 70
    37
  9
$ATTMODE
 70
     1
  9
$TEXTSIZE
 40
0.2
  9
$TRACEWID
 40
0.05
  9
$TEXTSTYLE
  7
STANDARD
  9
$CLAYER
  8
0
  9
$CELTYPE
  6
BYLAYER
  9
$CECOLOR
 62
   256
  9
$DIMSCALE
 40
1.0
  9
$DIMASZ
 40
0.18
  9
$DIMEXO
 40
0.0625
  9
$DIMDLI
 40
0.38
  9
$DIMRND
 40
0.0
  9
$DIMDLE
 40
0.0
  9
$DIMEXE
 40
0.18
  9
$DIMTP
 40
0.0
  9
$DIMTM
 40
0.0
  9
$DIMTXT
 40
0.18
  9
$DIMCEN
 40
0.09
  9
$DIMTSZ
 40
0.0
  9
$DIMTOL
 70
     0
  9
$DIMLIM
 70
     0
  9
$DIMTIH
 70
     1
  9
$DIMTOH
 70
     1
  9
$DIMSE1
 70
     0
  9
$DIMSE2
 70
     0
  9
$DIMTAD
 70
     0
  9
$DIMZIN
 70
     0
  9
$DIMBLK
  1

  9
$DIMASO
 70
     1
  9
$DIMSHO
 70
     1
  9
$DIMPOST
  1

  9
$DIMAPOST
  1

  9
$DIMALT
 70
     0
  9
$DIMALTD
 70
     2
  9
$DIMALTF
 40
25.4
  9
$DIMLFAC
 40
1.0
  9
$DIMTOFL
 70
     0
  9
$DIMTVP
 40
0.0
  9
$DIMTIX
 70
     0
  9
$DIMSOXD
 70
     0
  9
$DIMSAH
 70
     0
  9
$DIMBLK1
  1

  9
$DIMBLK2
  1

  9
$DIMSTYLE
  2
STANDARD
  9
$DIMCLRD
 70
     0
  9
$DIMCLRE
 70
     0
  9
$DIMCLRT
 70
     0
  9
$DIMTFAC
 40
1.0
  9
$DIMGAP
 40
0.09
  9
$LUNITS
 70
     2
  9
$LUPREC
 70
     4
  9
$SKETCHINC
 40
0.1
  9
$FILLETRAD
 40
0.5
  9
$AUNITS
 70
     0
  9
$AUPREC
 70
     0
  9
$MENU
  1
.
  9
$ELEVATION
 40
0.0
  9
$PELEVATION
 40
0.0
  9
$THICKNESS
 40
0.0
  9
$LIMCHECK
 70
     0
  9
$CHAMFERA
 40
0.0
  9
$CHAMFERB
 40
0.0
  9
$SKPOLY
 70
     0
  9
$TDCREATE
 40
2458327.56280118
  9
$TDUPDATE
 40
2458327.562801215
  9
$TDINDWG
 40
0.0000000116
  9
$TDUSRTIMER
 40
0.0000000116
  9
$USRTIMER
 70
     1
  9
$ANGBASE
 50
0.0
  9
$ANGDIR
 70
     0
  9
$PDMODE
 70
     0
  9
$PDSIZE
 40
0.0
  9
$PLINEWID
 40
0.0
  9
$COORDS
 70
     1
  9
$SPLFRAME
 70
     0
  9
$SPLINETYPE
 70
     6
  9
$SPLINESEGS
 70
     8
  9
$ATTDIA
 70
     0
  9
$ATTREQ
 70
     1
  9
$HANDLING
 70
     1
  9
$HANDSEED
  5
522
  9
$SURFTAB1
 70
     6
  9
$SURFTAB2
 70
     6
  9
$SURFTYPE
 70
     6
  9
$SURFU
 70
     6
  9
$SURFV
 70
     6
  9
$UCSNAME
  2

  9
$UCSORG
 10
0.0
 20
0.0
 30
0.0
  9
$UCSXDIR
 10
1.0
 20
0.0
 30
0.0
  9
$UCSYDIR
 10
0.0
 20
1.0
 30
0.0
  9
$PUCSNAME
  2

  9
$PUCSORG
 10
0.0
 20
0.0
 30
0.0
  9
$PUCSXDIR
 10
1.0
 20
0.0
 30
0.0
  9
$PUCSYDIR
 10
0.0
 20
1.0
 30
0.0
  9
$USERI1
 70
     0
  9
$USERI2
 70
     0
  9
$USERI3
 70
     0
  9
$USERI4
 70
     0
  9
$USERI5
 70
     0
  9
$USERR1
 40
0.0
  9
$USERR2
 40
0.0
  9
$USERR3
 40
0.0
  9
$USERR4
 40
0.0
  9
$USERR5
 40
0.0
  9
$WORLDVIEW
 70
     1
  9
$SHADEDGE
 70
     3
  9
$SHADEDIF
 70
    70
  9
$TILEMODE
 70
     1
  9
$MAXACTVP
 70
    64
  9
$PLIMCHECK
 70
     0
  9
$PEXTMIN
 10
1.000000000000000E+20
 20
1.000000000000000E+20
 30
1.000000000000000E+20
  9
$PEXTMAX
 10
-1.000000000000000E+20
 20
-1.000000000000000E+20
 30
-1.000000000000000E+20
  9
$PLIMMIN
 10
0.0
 20
0.0
  9
$PLIMMAX
 10
12.0
 20
9.0
  9
$UNITMODE
 70
     0
  9
$VISRETAIN
 70
     1
  9
$PLINEGEN
 70
     0
  9
$PSLTSCALE
 70
     1
  0
ENDSEC
  0
SECTION
  2
TABLES
  0
TABLE
  2
VPORT
 70
     1
  0
VPORT
  2
*ACTIVE
 70
     0
 10
0.0
 20
0.0
 11
1.0
 21
1.0
 12
10.42990654205607
 22
4.5
 13
0.0
 23
0.0
 14
0.5
 24
0.5
 15
0.5
 25
0.5
 16
0.0
 26
0.0
 36
1.0
 17
0.0
 27
0.0
 37
0.0
 40
9.0
 41
1.972972972850329
 42
50.0
 43
0.0
 44
0.0
 50
0.0
 51
0.0
 71
     0
 72
   100
 73
     1
 74
     3
 75
     0
 76
     0
 77
     0
 78
     0
  0
ENDTAB
  0
TABLE
  2
LTYPE
 70
     1
  0
LTYPE
  2
CONTINUOUS
 70
     0
  3
Solid line
 72
    65
 73
     0
 40
0.0
  0
ENDTAB
  0
TABLE
  2
LAYER
 70
     2
  0
LAYER
  2
0
 70
     0
 62
     7
  6
CONTINUOUS
  0
LAYER
  2
LAYER_1
 70
     0
 62
     7
  6
CONTINUOUS
  0
ENDTAB
  0
TABLE
  2
STYLE
 70
     1
  0
STYLE
  2
STANDARD
 70
     0
 40
0.0
 41
1.0
 50
0.0
 71
     0
 42
0.2
  3
txt
  4

  0
ENDTAB
  0
TABLE
  2
VIEW
 70
     0
  0
ENDTAB
  0
TABLE
  2
UCS
 70
     0
  0
ENDTAB
  0
TABLE
  2
APPID
 70
     2
  0
APPID
  2
ACAD
 70
     0
  0
APPID
  2
ODA
 70
     0
  0
ENDTAB
  0
TABLE
  2
DIMSTYLE
 70
     1
  0
DIMSTYLE
  2
STANDARD
 70
     0
  3

  4

  5

  6

  7

 40
1.0
 41
0.18
 42
0.0625
 43
0.38
 44
0.18
 45
0.0
 46
0.0
 47
0.0
 48
0.0
140
0.18
141
0.09
142
0.0
143
25.4
144
1.0
145
0.0
146
1.0
147
0.09
 71
     0
 72
     0
 73
     1
 74
     1
 75
     0
 76
     0
 77
     0
 78
     0
170
     0
171
     2
172
     0
173
     0
174
     0
175
     0
176
     0
177
     0
178
     0
  0
ENDTAB
  0
ENDSEC
  0
SECTION
  2
BLOCKS
  0
BLOCK
  8
0
  2
$MODEL_SPACE
 70
     0
 10
0.0
 20
0.0
 30
0.0
  3
$MODEL_SPACE
  1

  0
ENDBLK
  5
21
  8
0
  0
BLOCK
 67
     1
  8
0
  2
$PAPER_SPACE
 70
     0
 10
0.0
 20
0.0
 30
0.0
  3
$PAPER_SPACE
  1

  0
ENDBLK
  5
1D
 67
     1
  8
0
  0
ENDSEC
  0
SECTION
  2
ENTITIES
  0
POLYLINE
  5
70
  8
LAYER_1
 62
     1
 66
     1
 10
0.0
 20
0.0
 30
0.0
 70
     1
  0
VERTEX
  5
E2
  8
LAYER_1
 62
     1
 10
7.5463
 20
-61.4773
 30
0.0
  0
VERTEX
  5
E3
  8
LAYER_1
 62
     1
 10
-367.4539
 20
-61.4773
 30
0.0
  0
VERTEX
  5
E4
  8
LAYER_1
 62
     1
 10
-368.4594
 20
-61.3754
 30
0.0
  0
VERTEX
  5
E5
  8
LAYER_1
 62
     1
 10
-369.3969
 20
-61.0833
 30
0.0
  0
VERTEX
  5
E6
  8
LAYER_1
 62
     1
 10
-370.2461
 20
-60.6214
 30
0.0
  0
VERTEX
  5
E7
  8
LAYER_1
 62
     1
 10
-370.9865
 20
-60.01
 30
0.0
  0
VERTEX
  5
E8
  8
LAYER_1
 62
     1
 10
-371.5979
 20
-59.2695
 30
0.0
  0
VERTEX
  5
E9
  8
LAYER_1
 62
     1
 10
-372.0598
 20
-58.4203
 30
0.0
  0
VERTEX
  5
EA
  8
LAYER_1
 62
     1
 10
-372.3519
 20
-57.4828
 30
0.0
  0
VERTEX
  5
EB
  8
LAYER_1
 62
     1
 10
-372.4538
 20
-56.4773
 30
0.0
  0
VERTEX
  5
EC
  8
LAYER_1
 62
     1
 10
-372.4538
 20
70.5227
 30
0.0
  0
VERTEX
  5
ED
  8
LAYER_1
 62
     1
 10
-372.3519
 20
71.5282
 30
0.0
  0
VERTEX
  5
EE
  8
LAYER_1
 62
     1
 10
-372.0598
 20
72.4657
 30
0.0
  0
VERTEX
  5
EF
  8
LAYER_1
 62
     1
 10
-371.5979
 20
73.3149
 30
0.0
  0
VERTEX
  5
F0
  8
LAYER_1
 62
     1
 10
-370.9865
 20
74.0554
 30
0.0
  0
VERTEX
  5
F1
  8
LAYER_1
 62
     1
 10
-370.2461
 20
74.6668
 30
0.0
  0
VERTEX
  5
F2
  8
LAYER_1
 62
     1
 10
-369.3969
 20
75.1287
 30
0.0
  0
VERTEX
  5
F3
  8
LAYER_1
 62
     1
 10
-368.4594
 20
75.4208
 30
0.0
  0
VERTEX
  5
F4
  8
LAYER_1
 62
     1
 10
-367.4539
 20
75.5227
 30
0.0
  0
VERTEX
  5
F5
  8
LAYER_1
 62
     1
 10
7.5463
 20
75.5227
 30
0.0
  0
VERTEX
  5
F6
  8
LAYER_1
 62
     1
 10
8.5518
 20
75.4208
 30
0.0
  0
VERTEX
  5
F7
  8
LAYER_1
 62
     1
 10
9.4893
 20
75.1287
 30
0.0
  0
VERTEX
  5
F8
  8
LAYER_1
 62
     1
 10
10.3385
 20
74.6668
 30
0.0
  0
VERTEX
  5
F9
  8
LAYER_1
 62
     1
 10
11.0789
 20
74.0554
 30
0.0
  0
VERTEX
  5
FA
  8
LAYER_1
 62
     1
 10
11.6903
 20
73.3149
 30
0.0
  0
VERTEX
  5
FB
  8
LAYER_1
 62
     1
 10
12.1522
 20
72.4657
 30
0.0
  0
VERTEX
  5
FC
  8
LAYER_1
 62
     1
 10
12.4443
 20
71.5282
 30
0.0
  0
VERTEX
  5
FD
  8
LAYER_1
 62
     1
 10
12.5462
 20
70.5227
 30
0.0
  0
VERTEX
  5
FE
  8
LAYER_1
 62
     1
 10
12.5462
 20
-56.4773
 30
0.0
  0
VERTEX
  5
FF
  8
LAYER_1
 62
     1
 10
12.4443
 20
-57.4828
 30
0.0
  0
VERTEX
  5
100
  8
LAYER_1
 62
     1
 10
12.1522
 20
-58.4203
 30
0.0
  0
VERTEX
  5
101
  8
LAYER_1
 62
     1
 10
11.6903
 20
-59.2695
 30
0.0
  0
VERTEX
  5
102
  8
LAYER_1
 62
     1
 10
11.0789
 20
-60.01
 30
0.0
  0
VERTEX
  5
103
  8
LAYER_1
 62
     1
 10
10.3385
 20
-60.6214
 30
0.0
  0
VERTEX
  5
104
  8
LAYER_1
 62
     1
 10
9.4893
 20
-61.0833
 30
0.0
  0
VERTEX
  5
105
  8
LAYER_1
 62
     1
 10
8.5518
 20
-61.3754
 30
0.0
  0
VERTEX
  5
106
  8
LAYER_1
 62
     1
 10
7.5463
 20
-61.4773
 30
0.0
  0
SEQEND
  5
4B7
  8
LAYER_1
 62
     1
  0
POLYLINE
  5
71
  8
LAYER_1
 62
     1
 66
     1
 10
0.0
 20
0.0
 30
0.0
 70
     1
  0
VERTEX
  5
107
  8
LAYER_1
 62
     1
 10
-362.6654
 20
73.2284
 30
0.0
  0
VERTEX
  5
108
  8
LAYER_1
 62
     1
 10
-362.1414
 20
73.1756
 30
0.0
  0
VERTEX
  5
109
  8
LAYER_1
 62
     1
 10
-361.6534
 20
73.0241
 30
0.0
  0
VERTEX
  5
10A
  8
LAYER_1
 62
     1
 10
-361.2117
 20
72.7844
 30
0.0
  0
VERTEX
  5
10B
  8
LAYER_1
 62
     1
 10
-360.8269
 20
72.4669
 30
0.0
  0
VERTEX
  5
10C
  8
LAYER_1
 62
     1
 10
-360.5094
 20
72.0821
 30
0.0
  0
VERTEX
  5
10D
  8
LAYER_1
 62
     1
 10
-360.2697
 20
71.6404
 30
0.0
  0
VERTEX
  5
10E
  8
LAYER_1
 62
     1
 10
-360.1182
 20
71.1524
 30
0.0
  0
VERTEX
  5
10F
  8
LAYER_1
 62
     1
 10
-360.0654
 20
70.6284
 30
0.0
  0
VERTEX
  5
110
  8
LAYER_1
 62
     1
 10
-360.1182
 20
70.1044
 30
0.0
  0
VERTEX
  5
111
  8
LAYER_1
 62
     1
 10
-360.2697
 20
69.6164
 30
0.0
  0
VERTEX
  5
112
  8
LAYER_1
 62
     1
 10
-360.5094
 20
69.1747
 30
0.0
  0
VERTEX
  5
113
  8
LAYER_1
 62
     1
 10
-360.8269
 20
68.7899
 30
0.0
  0
VERTEX
  5
114
  8
LAYER_1
 62
     1
 10
-361.2117
 20
68.4724
 30
0.0
  0
VERTEX
  5
115
  8
LAYER_1
 62
     1
 10
-361.6534
 20
68.2327
 30
0.0
  0
VERTEX
  5
116
  8
LAYER_1
 62
     1
 10
-362.1414
 20
68.0812
 30
0.0
  0
VERTEX
  5
117
  8
LAYER_1
 62
     1
 10
-362.6654
 20
68.0284
 30
0.0
  0
VERTEX
  5
118
  8
LAYER_1
 62
     1
 10
-363.1894
 20
68.0812
 30
0.0
  0
VERTEX
  5
119
  8
LAYER_1
 62
     1
 10
-363.6774
 20
68.2327
 30
0.0
  0
VERTEX
  5
11A
  8
LAYER_1
 62
     1
 10
-364.1191
 20
68.4724
 30
0.0
  0
VERTEX
  5
11B
  8
LAYER_1
 62
     1
 10
-364.5039
 20
68.7899
 30
0.0
  0
VERTEX
  5
11C
  8
LAYER_1
 62
     1
 10
-364.8214
 20
69.1747
 30
0.0
  0
VERTEX
  5
11D
  8
LAYER_1
 62
     1
 10
-365.0611
 20
69.6164
 30
0.0
  0
VERTEX
  5
11E
  8
LAYER_1
 62
     1
 10
-365.2126
 20
70.1044
 30
0.0
  0
VERTEX
  5
11F
  8
LAYER_1
 62
     1
 10
-365.2654
 20
70.6284
 30
0.0
  0
VERTEX
  5
120
  8
LAYER_1
 62
     1
 10
-365.2126
 20
71.1524
 30
0.0
  0
VERTEX
  5
121
  8
LAYER_1
 62
     1
 10
-365.0611
 20
71.6404
 30
0.0
  0
VERTEX
  5
122
  8
LAYER_1
 62
     1
 10
-364.8214
 20
72.0821
 30
0.0
  0
VERTEX
  5
123
  8
LAYER_1
 62
     1
 10
-364.5039
 20
72.4669
 30
0.0
  0
VERTEX
  5
124
  8
LAYER_1
 62
     1
 10
-364.1191
 20
72.7844
 30
0.0
  0
VERTEX
  5
125
  8
LAYER_1
 62
     1
 10
-363.6774
 20
73.0241
 30
0.0
  0
VERTEX
  5
126
  8
LAYER_1
 62
     1
 10
-363.1894
 20
73.1756
 30
0.0
  0
VERTEX
  5
127
  8
LAYER_1
 62
     1
 10
-362.6654
 20
73.2284
 30
0.0
  0
SEQEND
  5
4B8
  8
LAYER_1
 62
     1
  0
POLYLINE
  5
72
  8
LAYER_1
 62
     1
 66
     1
 10
0.0
 20
0.0
 30
0.0
 70
     1
  0
VERTEX
  5
128
  8
LAYER_1
 62
     1
 10
-276.1653
 20
73.2284
 30
0.0
  0
VERTEX
  5
129
  8
LAYER_1
 62
     1
 10
-275.6413
 20
73.1756
 30
0.0
  0
VERTEX
  5
12A
  8
LAYER_1
 62
     1
 10
-275.1533
 20
73.0241
 30
0.0
  0
VERTEX
  5
12B
  8
LAYER_1
 62
     1
 10
-274.7116
 20
72.7844
 30
0.0
  0
VERTEX
  5
12C
  8
LAYER_1
 62
     1
 10
-274.3268
 20
72.4669
 30
0.0
  0
VERTEX
  5
12D
  8
LAYER_1
 62
     1
 10
-274.0093
 20
72.0821
 30
0.0
  0
VERTEX
  5
12E
  8
LAYER_1
 62
     1
 10
-273.7696
 20
71.6404
 30
0.0
  0
VERTEX
  5
12F
  8
LAYER_1
 62
     1
 10
-273.6181
 20
71.1524
 30
0.0
  0
VERTEX
  5
130
  8
LAYER_1
 62
     1
 10
-273.5653
 20
70.6284
 30
0.0
  0
VERTEX
  5
131
  8
LAYER_1
 62
     1
 10
-273.6181
 20
70.1044
 30
0.0
  0
VERTEX
  5
132
  8
LAYER_1
 62
     1
 10
-273.7696
 20
69.6164
 30
0.0
  0
VERTEX
  5
133
  8
LAYER_1
 62
     1
 10
-274.0093
 20
69.1747
 30
0.0
  0
VERTEX
  5
134
  8
LAYER_1
 62
     1
 10
-274.3268
 20
68.7899
 30
0.0
  0
VERTEX
  5
135
  8
LAYER_1
 62
     1
 10
-274.7116
 20
68.4724
 30
0.0
  0
VERTEX
  5
136
  8
LAYER_1
 62
     1
 10
-275.1533
 20
68.2327
 30
0.0
  0
VERTEX
  5
137
  8
LAYER_1
 62
     1
 10
-275.6413
 20
68.0812
 30
0.0
  0
VERTEX
  5
138
  8
LAYER_1
 62
     1
 10
-276.1653
 20
68.0284
 30
0.0
  0
VERTEX
  5
139
  8
LAYER_1
 62
     1
 10
-276.6893
 20
68.0812
 30
0.0
  0
VERTEX
  5
13A
  8
LAYER_1
 62
     1
 10
-277.1773
 20
68.2327
 30
0.0
  0
VERTEX
  5
13B
  8
LAYER_1
 62
     1
 10
-277.619
 20
68.4724
 30
0.0
  0
VERTEX
  5
13C
  8
LAYER_1
 62
     1
 10
-278.0038
 20
68.7899
 30
0.0
  0
VERTEX
  5
13D
  8
LAYER_1
 62
     1
 10
-278.3213
 20
69.1747
 30
0.0
  0
VERTEX
  5
13E
  8
LAYER_1
 62
     1
 10
-278.561
 20
69.6164
 30
0.0
  0
VERTEX
  5
13F
  8
LAYER_1
 62
     1
 10
-278.7125
 20
70.1044
 30
0.0
  0
VERTEX
  5
140
  8
LAYER_1
 62
     1
 10
-278.7653
 20
70.6284
 30
0.0
  0
VERTEX
  5
141
  8
LAYER_1
 62
     1
 10
-278.7125
 20
71.1524
 30
0.0
  0
VERTEX
  5
142
  8
LAYER_1
 62
     1
 10
-278.561
 20
71.6404
 30
0.0
  0
VERTEX
  5
143
  8
LAYER_1
 62
     1
 10
-278.3213
 20
72.0821
 30
0.0
  0
VERTEX
  5
144
  8
LAYER_1
 62
     1
 10
-278.0038
 20
72.4669
 30
0.0
  0
VERTEX
  5
145
  8
LAYER_1
 62
     1
 10
-277.619
 20
72.7844
 30
0.0
  0
VERTEX
  5
146
  8
LAYER_1
 62
     1
 10
-277.1773
 20
73.0241
 30
0.0
  0
VERTEX
  5
147
  8
LAYER_1
 62
     1
 10
-276.6893
 20
73.1756
 30
0.0
  0
VERTEX
  5
148
  8
LAYER_1
 62
     1
 10
-276.1653
 20
73.2284
 30
0.0
  0
SEQEND
  5
4B9
  8
LAYER_1
 62
     1
  0
POLYLINE
  5
73
  8
LAYER_1
 62
     1
 66
     1
 10
0.0
 20
0.0
 30
0.0
 70
     1
  0
VERTEX
  5
149
  8
LAYER_1
 62
     1
 10
-180.1654
 20
73.2284
 30
0.0
  0
VERTEX
  5
14A
  8
LAYER_1
 62
     1
 10
-179.6414
 20
73.1756
 30
0.0
  0
VERTEX
  5
14B
  8
LAYER_1
 62
     1
 10
-179.1534
 20
73.0241
 30
0.0
  0
VERTEX
  5
14C
  8
LAYER_1
 62
     1
 10
-178.7117
 20
72.7844
 30
0.0
  0
VERTEX
  5
14D
  8
LAYER_1
 62
     1
 10
-178.3269
 20
72.4669
 30
0.0
  0
VERTEX
  5
14E
  8
LAYER_1
 62
     1
 10
-178.0094
 20
72.0821
 30
0.0
  0
VERTEX
  5
14F
  8
LAYER_1
 62
     1
 10
-177.7697
 20
71.6404
 30
0.0
  0
VERTEX
  5
150
  8
LAYER_1
 62
     1
 10
-177.6182
 20
71.1524
 30
0.0
  0
VERTEX
  5
151
  8
LAYER_1
 62
     1
 10
-177.5654
 20
70.6284
 30
0.0
  0
VERTEX
  5
152
  8
LAYER_1
 62
     1
 10
-177.6182
 20
70.1044
 30
0.0
  0
VERTEX
  5
153
  8
LAYER_1
 62
     1
 10
-177.7697
 20
69.6164
 30
0.0
  0
VERTEX
  5
154
  8
LAYER_1
 62
     1
 10
-178.0094
 20
69.1747
 30
0.0
  0
VERTEX
  5
155
  8
LAYER_1
 62
     1
 10
-178.3269
 20
68.7899
 30
0.0
  0
VERTEX
  5
156
  8
LAYER_1
 62
     1
 10
-178.7117
 20
68.4724
 30
0.0
  0
VERTEX
  5
157
  8
LAYER_1
 62
     1
 10
-179.1534
 20
68.2327
 30
0.0
  0
VERTEX
  5
158
  8
LAYER_1
 62
     1
 10
-179.6414
 20
68.0812
 30
0.0
  0
VERTEX
  5
159
  8
LAYER_1
 62
     1
 10
-180.1654
 20
68.0284
 30
0.0
  0
VERTEX
  5
15A
  8
LAYER_1
 62
     1
 10
-180.6894
 20
68.0812
 30
0.0
  0
VERTEX
  5
15B
  8
LAYER_1
 62
     1
 10
-181.1774
 20
68.2327
 30
0.0
  0
VERTEX
  5
15C
  8
LAYER_1
 62
     1
 10
-181.6191
 20
68.4724
 30
0.0
  0
VERTEX
  5
15D
  8
LAYER_1
 62
     1
 10
-182.0039
 20
68.7899
 30
0.0
  0
VERTEX
  5
15E
  8
LAYER_1
 62
     1
 10
-182.3214
 20
69.1747
 30
0.0
  0
VERTEX
  5
15F
  8
LAYER_1
 62
     1
 10
-182.5611
 20
69.6164
 30
0.0
  0
VERTEX
  5
160
  8
LAYER_1
 62
     1
 10
-182.7126
 20
70.1044
 30
0.0
  0
VERTEX
  5
161
  8
LAYER_1
 62
     1
 10
-182.7654
 20
70.6284
 30
0.0
  0
VERTEX
  5
162
  8
LAYER_1
 62
     1
 10
-182.7126
 20
71.1524
 30
0.0
  0
VERTEX
  5
163
  8
LAYER_1
 62
     1
 10
-182.5611
 20
71.6404
 30
0.0
  0
VERTEX
  5
164
  8
LAYER_1
 62
     1
 10
-182.3214
 20
72.0821
 30
0.0
  0
VERTEX
  5
165
  8
LAYER_1
 62
     1
 10
-182.0039
 20
72.4669
 30
0.0
  0
VERTEX
  5
166
  8
LAYER_1
 62
     1
 10
-181.6191
 20
72.7844
 30
0.0
  0
VERTEX
  5
167
  8
LAYER_1
 62
     1
 10
-181.1774
 20
73.0241
 30
0.0
  0
VERTEX
  5
168
  8
LAYER_1
 62
     1
 10
-180.6894
 20
73.1756
 30
0.0
  0
VERTEX
  5
169
  8
LAYER_1
 62
     1
 10
-180.1654
 20
73.2284
 30
0.0
  0
SEQEND
  5
4BA
  8
LAYER_1
 62
     1
  0
POLYLINE
  5
74
  8
LAYER_1
 62
     1
 66
     1
 10
0.0
 20
0.0
 30
0.0
 70
     1
  0
VERTEX
  5
16A
  8
LAYER_1
 62
     1
 10
-84.1654
 20
73.2284
 30
0.0
  0
VERTEX
  5
16B
  8
LAYER_1
 62
     1
 10
-83.6414
 20
73.1756
 30
0.0
  0
VERTEX
  5
16C
  8
LAYER_1
 62
     1
 10
-83.1534
 20
73.0241
 30
0.0
  0
VERTEX
  5
16D
  8
LAYER_1
 62
     1
 10
-82.7117
 20
72.7844
 30
0.0
  0
VERTEX
  5
16E
  8
LAYER_1
 62
     1
 10
-82.3269
 20
72.4669
 30
0.0
  0
VERTEX
  5
16F
  8
LAYER_1
 62
     1
 10
-82.0094
 20
72.0821
 30
0.0
  0
VERTEX
  5
170
  8
LAYER_1
 62
     1
 10
-81.7697
 20
71.6404
 30
0.0
  0
VERTEX
  5
171
  8
LAYER_1
 62
     1
 10
-81.6182
 20
71.1524
 30
0.0
  0
VERTEX
  5
172
  8
LAYER_1
 62
     1
 10
-81.5654
 20
70.6284
 30
0.0
  0
VERTEX
  5
173
  8
LAYER_1
 62
     1
 10
-81.6182
 20
70.1044
 30
0.0
  0
VERTEX
  5
174
  8
LAYER_1
 62
     1
 10
-81.7697
 20
69.6164
 30
0.0
  0
VERTEX
  5
175
  8
LAYER_1
 62
     1
 10
-82.0094
 20
69.1747
 30
0.0
  0
VERTEX
  5
176
  8
LAYER_1
 62
     1
 10
-82.3269
 20
68.7899
 30
0.0
  0
VERTEX
  5
177
  8
LAYER_1
 62
     1
 10
-82.7117
 20
68.4724
 30
0.0
  0
VERTEX
  5
178
  8
LAYER_1
 62
     1
 10
-83.1534
 20
68.2327
 30
0.0
  0
VERTEX
  5
179
  8
LAYER_1
 62
     1
 10
-83.6414
 20
68.0812
 30
0.0
  0
VERTEX
  5
17A
  8
LAYER_1
 62
     1
 10
-84.1654
 20
68.0284
 30
0.0
  0
VERTEX
  5
17B
  8
LAYER_1
 62
     1
 10
-84.6894
 20
68.0812
 30
0.0
  0
VERTEX
  5
17C
  8
LAYER_1
 62
     1
 10
-85.1774
 20
68.2327
 30
0.0
  0
VERTEX
  5
17D
  8
LAYER_1
 62
     1
 10
-85.6191
 20
68.4724
 30
0.0
  0
VERTEX
  5
17E
  8
LAYER_1
 62
     1
 10
-86.0039
 20
68.7899
 30
0.0
  0
VERTEX
  5
17F
  8
LAYER_1
 62
     1
 10
-86.3214
 20
69.1747
 30
0.0
  0
VERTEX
  5
180
  8
LAYER_1
 62
     1
 10
-86.5611
 20
69.6164
 30
0.0
  0
VERTEX
  5
181
  8
LAYER_1
 62
     1
 10
-86.7126
 20
70.1044
 30
0.0
  0
VERTEX
  5
182
  8
LAYER_1
 62
     1
 10
-86.7654
 20
70.6284
 30
0.0
  0
VERTEX
  5
183
  8
LAYER_1
 62
     1
 10
-86.7126
 20
71.1524
 30
0.0
  0
VERTEX
  5
184
  8
LAYER_1
 62
     1
 10
-86.5611
 20
71.6404
 30
0.0
  0
VERTEX
  5
185
  8
LAYER_1
 62
     1
 10
-86.3214
 20
72.0821
 30
0.0
  0
VERTEX
  5
186
  8
LAYER_1
 62
     1
 10
-86.0039
 20
72.4669
 30
0.0
  0
VERTEX
  5
187
  8
LAYER_1
 62
     1
 10
-85.6191
 20
72.7844
 30
0.0
  0
VERTEX
  5
188
  8
LAYER_1
 62
     1
 10
-85.1774
 20
73.0241
 30
0.0
  0
VERTEX
  5
189
  8
LAYER_1
 62
     1
 10
-84.6894
 20
73.1756
 30
0.0
  0
VERTEX
  5
18A
  8
LAYER_1
 62
     1
 10
-84.1654
 20
73.2284
 30
0.0
  0
SEQEND
  5
4BB
  8
LAYER_1
 62
     1
  0
POLYLINE
  5
75
  8
LAYER_1
 62
     1
 66
     1
 10
0.0
 20
0.0
 30
0.0
 70
     1
  0
VERTEX
  5
18B
  8
LAYER_1
 62
     1
 10
2.3346
 20
73.2284
 30
0.0
  0
VERTEX
  5
18C
  8
LAYER_1
 62
     1
 10
2.8586
 20
73.1756
 30
0.0
  0
VERTEX
  5
18D
  8
LAYER_1
 62
     1
 10
3.3466
 20
73.0241
 30
0.0
  0
VERTEX
  5
18E
  8
LAYER_1
 62
     1
 10
3.7883
 20
72.7844
 30
0.0
  0
VERTEX
  5
18F
  8
LAYER_1
 62
     1
 10
4.1731
 20
72.4669
 30
0.0
  0
VERTEX
  5
190
  8
LAYER_1
 62
     1
 10
4.4906
 20
72.0821
 30
0.0
  0
VERTEX
  5
191
  8
LAYER_1
 62
     1
 10
4.7303
 20
71.6404
 30
0.0
  0
VERTEX
  5
192
  8
LAYER_1
 62
     1
 10
4.8818
 20
71.1524
 30
0.0
  0
VERTEX
  5
193
  8
LAYER_1
 62
     1
 10
4.9346
 20
70.6284
 30
0.0
  0
VERTEX
  5
194
  8
LAYER_1
 62
     1
 10
4.8818
 20
70.1044
 30
0.0
  0
VERTEX
  5
195
  8
LAYER_1
 62
     1
 10
4.7303
 20
69.6164
 30
0.0
  0
VERTEX
  5
196
  8
LAYER_1
 62
     1
 10
4.4906
 20
69.1747
 30
0.0
  0
VERTEX
  5
197
  8
LAYER_1
 62
     1
 10
4.1731
 20
68.7899
 30
0.0
  0
VERTEX
  5
198
  8
LAYER_1
 62
     1
 10
3.7883
 20
68.4724
 30
0.0
  0
VERTEX
  5
199
  8
LAYER_1
 62
     1
 10
3.3466
 20
68.2327
 30
0.0
  0
VERTEX
  5
19A
  8
LAYER_1
 62
     1
 10
2.8586
 20
68.0812
 30
0.0
  0
VERTEX
  5
19B
  8
LAYER_1
 62
     1
 10
2.3346
 20
68.0284
 30
0.0
  0
VERTEX
  5
19C
  8
LAYER_1
 62
     1
 10
1.8106
 20
68.0812
 30
0.0
  0
VERTEX
  5
19D
  8
LAYER_1
 62
     1
 10
1.3226
 20
68.2327
 30
0.0
  0
VERTEX
  5
19E
  8
LAYER_1
 62
     1
 10
0.8809
 20
68.4724
 30
0.0
  0
VERTEX
  5
19F
  8
LAYER_1
 62
     1
 10
0.4961
 20
68.7899
 30
0.0
  0
VERTEX
  5
1A0
  8
LAYER_1
 62
     1
 10
0.1786
 20
69.1747
 30
0.0
  0
VERTEX
  5
1A1
  8
LAYER_1
 62
     1
 10
-0.0611
 20
69.6164
 30
0.0
  0
VERTEX
  5
1A2
  8
LAYER_1
 62
     1
 10
-0.2126
 20
70.1044
 30
0.0
  0
VERTEX
  5
1A3
  8
LAYER_1
 62
     1
 10
-0.2654
 20
70.6284
 30
0.0
  0
VERTEX
  5
1A4
  8
LAYER_1
 62
     1
 10
-0.2126
 20
71.1524
 30
0.0
  0
VERTEX
  5
1A5
  8
LAYER_1
 62
     1
 10
-0.0611
 20
71.6404
 30
0.0
  0
VERTEX
  5
1A6
  8
LAYER_1
 62
     1
 10
0.1786
 20
72.0821
 30
0.0
  0
VERTEX
  5
1A7
  8
LAYER_1
 62
     1
 10
0.4961
 20
72.4669
 30
0.0
  0
VERTEX
  5
1A8
  8
LAYER_1
 62
     1
 10
0.8809
 20
72.7844
 30
0.0
  0
VERTEX
  5
1A9
  8
LAYER_1
 62
     1
 10
1.3226
 20
73.0241
 30
0.0
  0
VERTEX
  5
1AA
  8
LAYER_1
 62
     1
 10
1.8106
 20
73.1756
 30
0.0
  0
VERTEX
  5
1AB
  8
LAYER_1
 62
     1
 10
2.3346
 20
73.2284
 30
0.0
  0
SEQEND
  5
4BC
  8
LAYER_1
 62
     1
  0
POLYLINE
  5
76
  8
LAYER_1
 62
     1
 66
     1
 10
0.0
 20
0.0
 30
0.0
 70
     1
  0
VERTEX
  5
1AC
  8
LAYER_1
 62
     1
 10
-362.6654
 20
-53.7716
 30
0.0
  0
VERTEX
  5
1AD
  8
LAYER_1
 62
     1
 10
-362.1414
 20
-53.8244
 30
0.0
  0
VERTEX
  5
1AE
  8
LAYER_1
 62
     1
 10
-361.6534
 20
-53.9759
 30
0.0
  0
VERTEX
  5
1AF
  8
LAYER_1
 62
     1
 10
-361.2117
 20
-54.2156
 30
0.0
  0
VERTEX
  5
1B0
  8
LAYER_1
 62
     1
 10
-360.8269
 20
-54.5331
 30
0.0
  0
VERTEX
  5
1B1
  8
LAYER_1
 62
     1
 10
-360.5094
 20
-54.9179
 30
0.0
  0
VERTEX
  5
1B2
  8
LAYER_1
 62
     1
 10
-360.2697
 20
-55.3596
 30
0.0
  0
VERTEX
  5
1B3
  8
LAYER_1
 62
     1
 10
-360.1182
 20
-55.8476
 30
0.0
  0
VERTEX
  5
1B4
  8
LAYER_1
 62
     1
 10
-360.0654
 20
-56.3716
 30
0.0
  0
VERTEX
  5
1B5
  8
LAYER_1
 62
     1
 10
-360.1182
 20
-56.8956
 30
0.0
  0
VERTEX
  5
1B6
  8
LAYER_1
 62
     1
 10
-360.2697
 20
-57.3836
 30
0.0
  0
VERTEX
  5
1B7
  8
LAYER_1
 62
     1
 10
-360.5094
 20
-57.8253
 30
0.0
  0
VERTEX
  5
1B8
  8
LAYER_1
 62
     1
 10
-360.8269
 20
-58.2101
 30
0.0
  0
VERTEX
  5
1B9
  8
LAYER_1
 62
     1
 10
-361.2117
 20
-58.5276
 30
0.0
  0
VERTEX
  5
1BA
  8
LAYER_1
 62
     1
 10
-361.6534
 20
-58.7673
 30
0.0
  0
VERTEX
  5
1BB
  8
LAYER_1
 62
     1
 10
-362.1414
 20
-58.9188
 30
0.0
  0
VERTEX
  5
1BC
  8
LAYER_1
 62
     1
 10
-362.6654
 20
-58.9716
 30
0.0
  0
VERTEX
  5
1BD
  8
LAYER_1
 62
     1
 10
-363.1894
 20
-58.9188
 30
0.0
  0
VERTEX
  5
1BE
  8
LAYER_1
 62
     1
 10
-363.6774
 20
-58.7673
 30
0.0
  0
VERTEX
  5
1BF
  8
LAYER_1
 62
     1
 10
-364.1191
 20
-58.5276
 30
0.0
  0
VERTEX
  5
1C0
  8
LAYER_1
 62
     1
 10
-364.5039
 20
-58.2101
 30
0.0
  0
VERTEX
  5
1C1
  8
LAYER_1
 62
     1
 10
-364.8214
 20
-57.8253
 30
0.0
  0
VERTEX
  5
1C2
  8
LAYER_1
 62
     1
 10
-365.0611
 20
-57.3836
 30
0.0
  0
VERTEX
  5
1C3
  8
LAYER_1
 62
     1
 10
-365.2126
 20
-56.8956
 30
0.0
  0
VERTEX
  5
1C4
  8
LAYER_1
 62
     1
 10
-365.2654
 20
-56.3716
 30
0.0
  0
VERTEX
  5
1C5
  8
LAYER_1
 62
     1
 10
-365.2126
 20
-55.8476
 30
0.0
  0
VERTEX
  5
1C6
  8
LAYER_1
 62
     1
 10
-365.0611
 20
-55.3596
 30
0.0
  0
VERTEX
  5
1C7
  8
LAYER_1
 62
     1
 10
-364.8214
 20
-54.9179
 30
0.0
  0
VERTEX
  5
1C8
  8
LAYER_1
 62
     1
 10
-364.5039
 20
-54.5331
 30
0.0
  0
VERTEX
  5
1C9
  8
LAYER_1
 62
     1
 10
-364.1191
 20
-54.2156
 30
0.0
  0
VERTEX
  5
1CA
  8
LAYER_1
 62
     1
 10
-363.6774
 20
-53.9759
 30
0.0
  0
VERTEX
  5
1CB
  8
LAYER_1
 62
     1
 10
-363.1894
 20
-53.8244
 30
0.0
  0
VERTEX
  5
1CC
  8
LAYER_1
 62
     1
 10
-362.6654
 20
-53.7716
 30
0.0
  0
SEQEND
  5
4BD
  8
LAYER_1
 62
     1
  0
POLYLINE
  5
77
  8
LAYER_1
 62
     1
 66
     1
 10
0.0
 20
0.0
 30
0.0
 70
     1
  0
VERTEX
  5
1CD
  8
LAYER_1
 62
     1
 10
-276.1653
 20
-53.7716
 30
0.0
  0
VERTEX
  5
1CE
  8
LAYER_1
 62
     1
 10
-275.6413
 20
-53.8244
 30
0.0
  0
VERTEX
  5
1CF
  8
LAYER_1
 62
     1
 10
-275.1533
 20
-53.9759
 30
0.0
  0
VERTEX
  5
1D0
  8
LAYER_1
 62
     1
 10
-274.7116
 20
-54.2156
 30
0.0
  0
VERTEX
  5
1D1
  8
LAYER_1
 62
     1
 10
-274.3268
 20
-54.5331
 30
0.0
  0
VERTEX
  5
1D2
  8
LAYER_1
 62
     1
 10
-274.0093
 20
-54.9179
 30
0.0
  0
VERTEX
  5
1D3
  8
LAYER_1
 62
     1
 10
-273.7696
 20
-55.3596
 30
0.0
  0
VERTEX
  5
1D4
  8
LAYER_1
 62
     1
 10
-273.6181
 20
-55.8476
 30
0.0
  0
VERTEX
  5
1D5
  8
LAYER_1
 62
     1
 10
-273.5653
 20
-56.3716
 30
0.0
  0
VERTEX
  5
1D6
  8
LAYER_1
 62
     1
 10
-273.6181
 20
-56.8956
 30
0.0
  0
VERTEX
  5
1D7
  8
LAYER_1
 62
     1
 10
-273.7696
 20
-57.3836
 30
0.0
  0
VERTEX
  5
1D8
  8
LAYER_1
 62
     1
 10
-274.0093
 20
-57.8253
 30
0.0
  0
VERTEX
  5
1D9
  8
LAYER_1
 62
     1
 10
-274.3268
 20
-58.2101
 30
0.0
  0
VERTEX
  5
1DA
  8
LAYER_1
 62
     1
 10
-274.7116
 20
-58.5276
 30
0.0
  0
VERTEX
  5
1DB
  8
LAYER_1
 62
     1
 10
-275.1533
 20
-58.7673
 30
0.0
  0
VERTEX
  5
1DC
  8
LAYER_1
 62
     1
 10
-275.6413
 20
-58.9188
 30
0.0
  0
VERTEX
  5
1DD
  8
LAYER_1
 62
     1
 10
-276.1653
 20
-58.9716
 30
0.0
  0
VERTEX
  5
1DE
  8
LAYER_1
 62
     1
 10
-276.6893
 20
-58.9188
 30
0.0
  0
VERTEX
  5
1DF
  8
LAYER_1
 62
     1
 10
-277.1773
 20
-58.7673
 30
0.0
  0
VERTEX
  5
1E0
  8
LAYER_1
 62
     1
 10
-277.619
 20
-58.5276
 30
0.0
  0
VERTEX
  5
1E1
  8
LAYER_1
 62
     1
 10
-278.0038
 20
-58.2101
 30
0.0
  0
VERTEX
  5
1E2
  8
LAYER_1
 62
     1
 10
-278.3213
 20
-57.8253
 30
0.0
  0
VERTEX
  5
1E3
  8
LAYER_1
 62
     1
 10
-278.561
 20
-57.3836
 30
0.0
  0
VERTEX
  5
1E4
  8
LAYER_1
 62
     1
 10
-278.7125
 20
-56.8956
 30
0.0
  0
VERTEX
  5
1E5
  8
LAYER_1
 62
     1
 10
-278.7653
 20
-56.3716
 30
0.0
  0
VERTEX
  5
1E6
  8
LAYER_1
 62
     1
 10
-278.7125
 20
-55.8476
 30
0.0
  0
VERTEX
  5
1E7
  8
LAYER_1
 62
     1
 10
-278.561
 20
-55.3596
 30
0.0
  0
VERTEX
  5
1E8
  8
LAYER_1
 62
     1
 10
-278.3213
 20
-54.9179
 30
0.0
  0
VERTEX
  5
1E9
  8
LAYER_1
 62
     1
 10
-278.0038
 20
-54.5331
 30
0.0
  0
VERTEX
  5
1EA
  8
LAYER_1
 62
     1
 10
-277.619
 20
-54.2156
 30
0.0
  0
VERTEX
  5
1EB
  8
LAYER_1
 62
     1
 10
-277.1773
 20
-53.9759
 30
0.0
  0
VERTEX
  5
1EC
  8
LAYER_1
 62
     1
 10
-276.6893
 20
-53.8244
 30
0.0
  0
VERTEX
  5
1ED
  8
LAYER_1
 62
     1
 10
-276.1653
 20
-53.7716
 30
0.0
  0
SEQEND
  5
4BE
  8
LAYER_1
 62
     1
  0
POLYLINE
  5
78
  8
LAYER_1
 62
     1
 66
     1
 10
0.0
 20
0.0
 30
0.0
 70
     1
  0
VERTEX
  5
1EE
  8
LAYER_1
 62
     1
 10
-180.1654
 20
-53.7716
 30
0.0
  0
VERTEX
  5
1EF
  8
LAYER_1
 62
     1
 10
-179.6414
 20
-53.8244
 30
0.0
  0
VERTEX
  5
1F0
  8
LAYER_1
 62
     1
 10
-179.1534
 20
-53.9759
 30
0.0
  0
VERTEX
  5
1F1
  8
LAYER_1
 62
     1
 10
-178.7117
 20
-54.2156
 30
0.0
  0
VERTEX
  5
1F2
  8
LAYER_1
 62
     1
 10
-178.3269
 20
-54.5331
 30
0.0
  0
VERTEX
  5
1F3
  8
LAYER_1
 62
     1
 10
-178.0094
 20
-54.9179
 30
0.0
  0
VERTEX
  5
1F4
  8
LAYER_1
 62
     1
 10
-177.7697
 20
-55.3596
 30
0.0
  0
VERTEX
  5
1F5
  8
LAYER_1
 62
     1
 10
-177.6182
 20
-55.8476
 30
0.0
  0
VERTEX
  5
1F6
  8
LAYER_1
 62
     1
 10
-177.5654
 20
-56.3716
 30
0.0
  0
VERTEX
  5
1F7
  8
LAYER_1
 62
     1
 10
-177.6182
 20
-56.8956
 30
0.0
  0
VERTEX
  5
1F8
  8
LAYER_1
 62
     1
 10
-177.7697
 20
-57.3836
 30
0.0
  0
VERTEX
  5
1F9
  8
LAYER_1
 62
     1
 10
-178.0094
 20
-57.8253
 30
0.0
  0
VERTEX
  5
1FA
  8
LAYER_1
 62
     1
 10
-178.3269
 20
-58.2101
 30
0.0
  0
VERTEX
  5
1FB
  8
LAYER_1
 62
     1
 10
-178.7117
 20
-58.5276
 30
0.0
  0
VERTEX
  5
1FC
  8
LAYER_1
 62
     1
 10
-179.1534
 20
-58.7673
 30
0.0
  0
VERTEX
  5
1FD
  8
LAYER_1
 62
     1
 10
-179.6414
 20
-58.9188
 30
0.0
  0
VERTEX
  5
1FE
  8
LAYER_1
 62
     1
 10
-180.1654
 20
-58.9716
 30
0.0
  0
VERTEX
  5
1FF
  8
LAYER_1
 62
     1
 10
-180.6894
 20
-58.9188
 30
0.0
  0
VERTEX
  5
200
  8
LAYER_1
 62
     1
 10
-181.1774
 20
-58.7673
 30
0.0
  0
VERTEX
  5
201
  8
LAYER_1
 62
     1
 10
-181.6191
 20
-58.5276
 30
0.0
  0
VERTEX
  5
202
  8
LAYER_1
 62
     1
 10
-182.0039
 20
-58.2101
 30
0.0
  0
VERTEX
  5
203
  8
LAYER_1
 62
     1
 10
-182.3214
 20
-57.8253
 30
0.0
  0
VERTEX
  5
204
  8
LAYER_1
 62
     1
 10
-182.5611
 20
-57.3836
 30
0.0
  0
VERTEX
  5
205
  8
LAYER_1
 62
     1
 10
-182.7126
 20
-56.8956
 30
0.0
  0
VERTEX
  5
206
  8
LAYER_1
 62
     1
 10
-182.7654
 20
-56.3716
 30
0.0
  0
VERTEX
  5
207
  8
LAYER_1
 62
     1
 10
-182.7126
 20
-55.8476
 30
0.0
  0
VERTEX
  5
208
  8
LAYER_1
 62
     1
 10
-182.5611
 20
-55.3596
 30
0.0
  0
VERTEX
  5
209
  8
LAYER_1
 62
     1
 10
-182.3214
 20
-54.9179
 30
0.0
  0
VERTEX
  5
20A
  8
LAYER_1
 62
     1
 10
-182.0039
 20
-54.5331
 30
0.0
  0
VERTEX
  5
20B
  8
LAYER_1
 62
     1
 10
-181.6191
 20
-54.2156
 30
0.0
  0
VERTEX
  5
20C
  8
LAYER_1
 62
     1
 10
-181.1774
 20
-53.9759
 30
0.0
  0
VERTEX
  5
20D
  8
LAYER_1
 62
     1
 10
-180.6894
 20
-53.8244
 30
0.0
  0
VERTEX
  5
20E
  8
LAYER_1
 62
     1
 10
-180.1654
 20
-53.7716
 30
0.0
  0
SEQEND
  5
4BF
  8
LAYER_1
 62
     1
  0
POLYLINE
  5
79
  8
LAYER_1
 62
     1
 66
     1
 10
0.0
 20
0.0
 30
0.0
 70
     1
  0
VERTEX
  5
20F
  8
LAYER_1
 62
     1
 10
-84.1654
 20
-53.7716
 30
0.0
  0
VERTEX
  5
210
  8
LAYER_1
 62
     1
 10
-83.6414
 20
-53.8244
 30
0.0
  0
VERTEX
  5
211
  8
LAYER_1
 62
     1
 10
-83.1534
 20
-53.9759
 30
0.0
  0
VERTEX
  5
212
  8
LAYER_1
 62
     1
 10
-82.7117
 20
-54.2156
 30
0.0
  0
VERTEX
  5
213
  8
LAYER_1
 62
     1
 10
-82.3269
 20
-54.5331
 30
0.0
  0
VERTEX
  5
214
  8
LAYER_1
 62
     1
 10
-82.0094
 20
-54.9179
 30
0.0
  0
VERTEX
  5
215
  8
LAYER_1
 62
     1
 10
-81.7697
 20
-55.3596
 30
0.0
  0
VERTEX
  5
216
  8
LAYER_1
 62
     1
 10
-81.6182
 20
-55.8476
 30
0.0
  0
VERTEX
  5
217
  8
LAYER_1
 62
     1
 10
-81.5654
 20
-56.3716
 30
0.0
  0
VERTEX
  5
218
  8
LAYER_1
 62
     1
 10
-81.6182
 20
-56.8956
 30
0.0
  0
VERTEX
  5
219
  8
LAYER_1
 62
     1
 10
-81.7697
 20
-57.3836
 30
0.0
  0
VERTEX
  5
21A
  8
LAYER_1
 62
     1
 10
-82.0094
 20
-57.8253
 30
0.0
  0
VERTEX
  5
21B
  8
LAYER_1
 62
     1
 10
-82.3269
 20
-58.2101
 30
0.0
  0
VERTEX
  5
21C
  8
LAYER_1
 62
     1
 10
-82.7117
 20
-58.5276
 30
0.0
  0
VERTEX
  5
21D
  8
LAYER_1
 62
     1
 10
-83.1534
 20
-58.7673
 30
0.0
  0
VERTEX
  5
21E
  8
LAYER_1
 62
     1
 10
-83.6414
 20
-58.9188
 30
0.0
  0
VERTEX
  5
21F
  8
LAYER_1
 62
     1
 10
-84.1654
 20
-58.9716
 30
0.0
  0
VERTEX
  5
220
  8
LAYER_1
 62
     1
 10
-84.6894
 20
-58.9188
 30
0.0
  0
VERTEX
  5
221
  8
LAYER_1
 62
     1
 10
-85.1774
 20
-58.7673
 30
0.0
  0
VERTEX
  5
222
  8
LAYER_1
 62
     1
 10
-85.6191
 20
-58.5276
 30
0.0
  0
VERTEX
  5
223
  8
LAYER_1
 62
     1
 10
-86.0039
 20
-58.2101
 30
0.0
  0
VERTEX
  5
224
  8
LAYER_1
 62
     1
 10
-86.3214
 20
-57.8253
 30
0.0
  0
VERTEX
  5
225
  8
LAYER_1
 62
     1
 10
-86.5611
 20
-57.3836
 30
0.0
  0
VERTEX
  5
226
  8
LAYER_1
 62
     1
 10
-86.7126
 20
-56.8956
 30
0.0
  0
VERTEX
  5
227
  8
LAYER_1
 62
     1
 10
-86.7654
 20
-56.3716
 30
0.0
  0
VERTEX
  5
228
  8
LAYER_1
 62
     1
 10
-86.7126
 20
-55.8476
 30
0.0
  0
VERTEX
  5
229
  8
LAYER_1
 62
     1
 10
-86.5611
 20
-55.3596
 30
0.0
  0
VERTEX
  5
22A
  8
LAYER_1
 62
     1
 10
-86.3214
 20
-54.9179
 30
0.0
  0
VERTEX
  5
22B
  8
LAYER_1
 62
     1
 10
-86.0039
 20
-54.5331
 30
0.0
  0
VERTEX
  5
22C
  8
LAYER_1
 62
     1
 10
-85.6191
 20
-54.2156
 30
0.0
  0
VERTEX
  5
22D
  8
LAYER_1
 62
     1
 10
-85.1774
 20
-53.9759
 30
0.0
  0
VERTEX
  5
22E
  8
LAYER_1
 62
     1
 10
-84.6894
 20
-53.8244
 30
0.0
  0
VERTEX
  5
22F
  8
LAYER_1
 62
     1
 10
-84.1654
 20
-53.7716
 30
0.0
  0
SEQEND
  5
4C0
  8
LAYER_1
 62
     1
  0
POLYLINE
  5
7A
  8
LAYER_1
 62
     1
 66
     1
 10
0.0
 20
0.0
 30
0.0
 70
     1
  0
VERTEX
  5
230
  8
LAYER_1
 62
     1
 10
2.3346
 20
-53.7716
 30
0.0
  0
VERTEX
  5
231
  8
LAYER_1
 62
     1
 10
2.8586
 20
-53.8244
 30
0.0
  0
VERTEX
  5
232
  8
LAYER_1
 62
     1
 10
3.3466
 20
-53.9759
 30
0.0
  0
VERTEX
  5
233
  8
LAYER_1
 62
     1
 10
3.7883
 20
-54.2156
 30
0.0
  0
VERTEX
  5
234
  8
LAYER_1
 62
     1
 10
4.1731
 20
-54.5331
 30
0.0
  0
VERTEX
  5
235
  8
LAYER_1
 62
     1
 10
4.4906
 20
-54.9179
 30
0.0
  0
VERTEX
  5
236
  8
LAYER_1
 62
     1
 10
4.7303
 20
-55.3596
 30
0.0
  0
VERTEX
  5
237
  8
LAYER_1
 62
     1
 10
4.8818
 20
-55.8476
 30
0.0
  0
VERTEX
  5
238
  8
LAYER_1
 62
     1
 10
4.9346
 20
-56.3716
 30
0.0
  0
VERTEX
  5
239
  8
LAYER_1
 62
     1
 10
4.8818
 20
-56.8956
 30
0.0
  0
VERTEX
  5
23A
  8
LAYER_1
 62
     1
 10
4.7303
 20
-57.3836
 30
0.0
  0
VERTEX
  5
23B
  8
LAYER_1
 62
     1
 10
4.4906
 20
-57.8253
 30
0.0
  0
VERTEX
  5
23C
  8
LAYER_1
 62
     1
 10
4.1731
 20
-58.2101
 30
0.0
  0
VERTEX
  5
23D
  8
LAYER_1
 62
     1
 10
3.7883
 20
-58.5276
 30
0.0
  0
VERTEX
  5
23E
  8
LAYER_1
 62
     1
 10
3.3466
 20
-58.7673
 30
0.0
  0
VERTEX
  5
23F
  8
LAYER_1
 62
     1
 10
2.8586
 20
-58.9188
 30
0.0
  0
VERTEX
  5
240
  8
LAYER_1
 62
     1
 10
2.3346
 20
-58.9716
 30
0.0
  0
VERTEX
  5
241
  8
LAYER_1
 62
     1
 10
1.8106
 20
-58.9188
 30
0.0
  0
VERTEX
  5
242
  8
LAYER_1
 62
     1
 10
1.3226
 20
-58.7673
 30
0.0
  0
VERTEX
  5
243
  8
LAYER_1
 62
     1
 10
0.8809
 20
-58.5276
 30
0.0
  0
VERTEX
  5
244
  8
LAYER_1
 62
     1
 10
0.4961
 20
-58.2101
 30
0.0
  0
VERTEX
  5
245
  8
LAYER_1
 62
     1
 10
0.1786
 20
-57.8253
 30
0.0
  0
VERTEX
  5
246
  8
LAYER_1
 62
     1
 10
-0.0611
 20
-57.3836
 30
0.0
  0
VERTEX
  5
247
  8
LAYER_1
 62
     1
 10
-0.2126
 20
-56.8956
 30
0.0
  0
VERTEX
  5
248
  8
LAYER_1
 62
     1
 10
-0.2654
 20
-56.3716
 30
0.0
  0
VERTEX
  5
249
  8
LAYER_1
 62
     1
 10
-0.2126
 20
-55.8476
 30
0.0
  0
VERTEX
  5
24A
  8
LAYER_1
 62
     1
 10
-0.0611
 20
-55.3596
 30
0.0
  0
VERTEX
  5
24B
  8
LAYER_1
 62
     1
 10
0.1786
 20
-54.9179
 30
0.0
  0
VERTEX
  5
24C
  8
LAYER_1
 62
     1
 10
0.4961
 20
-54.5331
 30
0.0
  0
VERTEX
  5
24D
  8
LAYER_1
 62
     1
 10
0.8809
 20
-54.2156
 30
0.0
  0
VERTEX
  5
24E
  8
LAYER_1
 62
     1
 10
1.3226
 20
-53.9759
 30
0.0
  0
VERTEX
  5
24F
  8
LAYER_1
 62
     1
 10
1.8106
 20
-53.8244
 30
0.0
  0
VERTEX
  5
250
  8
LAYER_1
 62
     1
 10
2.3346
 20
-53.7716
 30
0.0
  0
SEQEND
  5
4C1
  8
LAYER_1
 62
     1
  0
POLYLINE
  5
7B
  8
LAYER_1
 62
     1
 66
     1
 10
0.0
 20
0.0
 30
0.0
 70
     1
  0
VERTEX
  5
251
  8
LAYER_1
 62
     1
 10
-176.7909
 20
-38.195
 30
0.0
  0
VERTEX
  5
252
  8
LAYER_1
 62
     1
 10
-176.7909
 20
-42.794
 30
0.0
  0
VERTEX
  5
253
  8
LAYER_1
 62
     1
 10
-176.7909
 20
-46.025
 30
0.0
  0
VERTEX
  5
254
  8
LAYER_1
 62
     1
 10
-183.6659
 20
-46.025
 30
0.0
  0
VERTEX
  5
255
  8
LAYER_1
 62
     1
 10
-183.6659
 20
-42.794
 30
0.0
  0
VERTEX
  5
256
  8
LAYER_1
 62
     1
 10
-183.6659
 20
-38.195
 30
0.0
  0
VERTEX
  5
257
  8
LAYER_1
 62
     1
 10
-183.6659
 20
-33.725
 30
0.0
  0
VERTEX
  5
258
  8
LAYER_1
 62
     1
 10
-181.9409
 20
-33.725
 30
0.0
  0
VERTEX
  5
259
  8
LAYER_1
 62
     1
 10
-181.9409
 20
-32.525
 30
0.0
  0
VERTEX
  5
25A
  8
LAYER_1
 62
     1
 10
-178.5159
 20
-32.525
 30
0.0
  0
VERTEX
  5
25B
  8
LAYER_1
 62
     1
 10
-178.5159
 20
-33.725
 30
0.0
  0
VERTEX
  5
25C
  8
LAYER_1
 62
     1
 10
-176.7909
 20
-33.725
 30
0.0
  0
VERTEX
  5
25D
  8
LAYER_1
 62
     1
 10
-176.7909
 20
-38.195
 30
0.0
  0
SEQEND
  5
4C2
  8
LAYER_1
 62
     1
  0
POLYLINE
  5
7C
  8
LAYER_1
 62
     1
 66
     1
 10
0.0
 20
0.0
 30
0.0
 70
     1
  0
VERTEX
  5
25E
  8
LAYER_1
 62
     1
 10
-211.2659
 20
-42.795
 30
0.0
  0
VERTEX
  5
25F
  8
LAYER_1
 62
     1
 10
-211.2659
 20
-38.196
 30
0.0
  0
VERTEX
  5
260
  8
LAYER_1
 62
     1
 10
-211.2659
 20
-33.495
 30
0.0
  0
VERTEX
  5
261
  8
LAYER_1
 62
     1
 10
-244.3169
 20
-33.495
 30
0.0
  0
VERTEX
  5
262
  8
LAYER_1
 62
     1
 10
-244.3169
 20
-38.196
 30
0.0
  0
VERTEX
  5
263
  8
LAYER_1
 62
     1
 10
-244.3169
 20
-42.795
 30
0.0
  0
VERTEX
  5
264
  8
LAYER_1
 62
     1
 10
-244.3169
 20
-47.495
 30
0.0
  0
VERTEX
  5
265
  8
LAYER_1
 62
     1
 10
-211.2659
 20
-47.495
 30
0.0
  0
VERTEX
  5
266
  8
LAYER_1
 62
     1
 10
-211.2659
 20
-42.795
 30
0.0
  0
SEQEND
  5
4C3
  8
LAYER_1
 62
     1
  0
POLYLINE
  5
7D
  8
LAYER_1
 62
     1
 66
     1
 10
0.0
 20
0.0
 30
0.0
 70
     1
  0
VERTEX
  5
267
  8
LAYER_1
 62
     1
 10
-271.9159
 20
-38.195
 30
0.0
  0
VERTEX
  5
268
  8
LAYER_1
 62
     1
 10
-271.9159
 20
-42.794
 30
0.0
  0
VERTEX
  5
269
  8
LAYER_1
 62
     1
 10
-271.9159
 20
-46.025
 30
0.0
  0
VERTEX
  5
26A
  8
LAYER_1
 62
     1
 10
-283.5479
 20
-46.025
 30
0.0
  0
VERTEX
  5
26B
  8
LAYER_1
 62
     1
 10
-283.5479
 20
-42.794
 30
0.0
  0
VERTEX
  5
26C
  8
LAYER_1
 62
     1
 10
-283.5479
 20
-38.195
 30
0.0
  0
VERTEX
  5
26D
  8
LAYER_1
 62
     1
 10
-283.5479
 20
-33.725
 30
0.0
  0
VERTEX
  5
26E
  8
LAYER_1
 62
     1
 10
-281.8229
 20
-33.725
 30
0.0
  0
VERTEX
  5
26F
  8
LAYER_1
 62
     1
 10
-281.8229
 20
-32.525
 30
0.0
  0
VERTEX
  5
270
  8
LAYER_1
 62
     1
 10
-278.5229
 20
-32.525
 30
0.0
  0
VERTEX
  5
271
  8
LAYER_1
 62
     1
 10
-278.5229
 20
-33.725
 30
0.0
  0
VERTEX
  5
272
  8
LAYER_1
 62
     1
 10
-277.0659
 20
-33.725
 30
0.0
  0
VERTEX
  5
273
  8
LAYER_1
 62
     1
 10
-277.0659
 20
-32.525
 30
0.0
  0
VERTEX
  5
274
  8
LAYER_1
 62
     1
 10
-273.6409
 20
-32.525
 30
0.0
  0
VERTEX
  5
275
  8
LAYER_1
 62
     1
 10
-273.6409
 20
-33.725
 30
0.0
  0
VERTEX
  5
276
  8
LAYER_1
 62
     1
 10
-271.9159
 20
-33.725
 30
0.0
  0
VERTEX
  5
277
  8
LAYER_1
 62
     1
 10
-271.9159
 20
-38.195
 30
0.0
  0
SEQEND
  5
4C4
  8
LAYER_1
 62
     1
  0
POLYLINE
  5
7E
  8
LAYER_1
 62
     1
 66
     1
 10
0.0
 20
0.0
 30
0.0
 70
     1
  0
VERTEX
  5
278
  8
LAYER_1
 62
     1
 10
-291.0919
 20
-38.195
 30
0.0
  0
VERTEX
  5
279
  8
LAYER_1
 62
     1
 10
-291.0919
 20
-33.725
 30
0.0
  0
VERTEX
  5
27A
  8
LAYER_1
 62
     1
 10
-292.2289
 20
-33.725
 30
0.0
  0
VERTEX
  5
27B
  8
LAYER_1
 62
     1
 10
-292.2289
 20
-33.495
 30
0.0
  0
VERTEX
  5
27C
  8
LAYER_1
 62
     1
 10
-292.8169
 20
-33.495
 30
0.0
  0
VERTEX
  5
27D
  8
LAYER_1
 62
     1
 10
-292.8169
 20
-32.525
 30
0.0
  0
VERTEX
  5
27E
  8
LAYER_1
 62
     1
 10
-296.1169
 20
-32.525
 30
0.0
  0
VERTEX
  5
27F
  8
LAYER_1
 62
     1
 10
-296.1169
 20
-33.495
 30
0.0
  0
VERTEX
  5
280
  8
LAYER_1
 62
     1
 10
-308.6099
 20
-33.495
 30
0.0
  0
VERTEX
  5
281
  8
LAYER_1
 62
     1
 10
-308.6099
 20
-47.495
 30
0.0
  0
VERTEX
  5
282
  8
LAYER_1
 62
     1
 10
-292.2289
 20
-47.495
 30
0.0
  0
VERTEX
  5
283
  8
LAYER_1
 62
     1
 10
-292.2289
 20
-46.025
 30
0.0
  0
VERTEX
  5
284
  8
LAYER_1
 62
     1
 10
-291.0919
 20
-46.025
 30
0.0
  0
VERTEX
  5
285
  8
LAYER_1
 62
     1
 10
-291.0919
 20
-42.794
 30
0.0
  0
VERTEX
  5
286
  8
LAYER_1
 62
     1
 10
-291.0919
 20
-38.195
 30
0.0
  0
SEQEND
  5
4C5
  8
LAYER_1
 62
     1
  0
POLYLINE
  5
7F
  8
LAYER_1
 62
     1
 66
     1
 10
0.0
 20
0.0
 30
0.0
 70
     1
  0
VERTEX
  5
287
  8
LAYER_1
 62
     1
 10
-72.8659
 20
-33.495
 30
0.0
  0
VERTEX
  5
288
  8
LAYER_1
 62
     1
 10
-72.8659
 20
-47.495
 30
0.0
  0
VERTEX
  5
289
  8
LAYER_1
 62
     1
 10
-69.8909
 20
-47.495
 30
0.0
  0
VERTEX
  5
28A
  8
LAYER_1
 62
     1
 10
-69.8909
 20
-48.465
 30
0.0
  0
VERTEX
  5
28B
  8
LAYER_1
 62
     1
 10
-66.5909
 20
-48.465
 30
0.0
  0
VERTEX
  5
28C
  8
LAYER_1
 62
     1
 10
-66.5909
 20
-47.495
 30
0.0
  0
VERTEX
  5
28D
  8
LAYER_1
 62
     1
 10
-46.0909
 20
-47.495
 30
0.0
  0
VERTEX
  5
28E
  8
LAYER_1
 62
     1
 10
-46.0909
 20
-48.465
 30
0.0
  0
VERTEX
  5
28F
  8
LAYER_1
 62
     1
 10
-42.7909
 20
-48.465
 30
0.0
  0
VERTEX
  5
290
  8
LAYER_1
 62
     1
 10
-42.7909
 20
-47.495
 30
0.0
  0
VERTEX
  5
291
  8
LAYER_1
 62
     1
 10
-39.8159
 20
-47.495
 30
0.0
  0
VERTEX
  5
292
  8
LAYER_1
 62
     1
 10
-39.8159
 20
-33.495
 30
0.0
  0
VERTEX
  5
293
  8
LAYER_1
 62
     1
 10
-72.8659
 20
-33.495
 30
0.0
  0
SEQEND
  5
4C6
  8
LAYER_1
 62
     1
  0
POLYLINE
  5
80
  8
LAYER_1
 62
     1
 66
     1
 10
0.0
 20
0.0
 30
0.0
 70
     1
  0
VERTEX
  5
294
  8
LAYER_1
 62
     1
 10
-356.2349
 20
-33.495
 30
0.0
  0
VERTEX
  5
295
  8
LAYER_1
 62
     1
 10
-356.2349
 20
-47.495
 30
0.0
  0
VERTEX
  5
296
  8
LAYER_1
 62
     1
 10
-339.8539
 20
-47.495
 30
0.0
  0
VERTEX
  5
297
  8
LAYER_1
 62
     1
 10
-339.8539
 20
-33.495
 30
0.0
  0
VERTEX
  5
298
  8
LAYER_1
 62
     1
 10
-356.2349
 20
-33.495
 30
0.0
  0
SEQEND
  5
4C7
  8
LAYER_1
 62
     1
  0
POLYLINE
  5
81
  8
LAYER_1
 62
     1
 66
     1
 10
0.0
 20
0.0
 30
0.0
 70
     1
  0
VERTEX
  5
299
  8
LAYER_1
 62
     1
 10
-332.4229
 20
-33.495
 30
0.0
  0
VERTEX
  5
29A
  8
LAYER_1
 62
     1
 10
-332.4229
 20
-47.495
 30
0.0
  0
VERTEX
  5
29B
  8
LAYER_1
 62
     1
 10
-311.2789
 20
-47.495
 30
0.0
  0
VERTEX
  5
29C
  8
LAYER_1
 62
     1
 10
-311.2789
 20
-33.495
 30
0.0
  0
VERTEX
  5
29D
  8
LAYER_1
 62
     1
 10
-332.4229
 20
-33.495
 30
0.0
  0
SEQEND
  5
4C8
  8
LAYER_1
 62
     1
  0
POLYLINE
  5
82
  8
LAYER_1
 62
     1
 66
     1
 10
0.0
 20
0.0
 30
0.0
 70
     1
  0
VERTEX
  5
29E
  8
LAYER_1
 62
     1
 10
-149.3539
 20
-33.495
 30
0.0
  0
VERTEX
  5
29F
  8
LAYER_1
 62
     1
 10
-96.9659
 20
-33.495
 30
0.0
  0
VERTEX
  5
2A0
  8
LAYER_1
 62
     1
 10
-77.9159
 20
-33.495
 30
0.0
  0
VERTEX
  5
2A1
  8
LAYER_1
 62
     1
 10
-77.9159
 20
-47.495
 30
0.0
  0
VERTEX
  5
2A2
  8
LAYER_1
 62
     1
 10
-96.9659
 20
-47.495
 30
0.0
  0
VERTEX
  5
2A3
  8
LAYER_1
 62
     1
 10
-149.3539
 20
-47.495
 30
0.0
  0
VERTEX
  5
2A4
  8
LAYER_1
 62
     1
 10
-168.1159
 20
-47.495
 30
0.0
  0
VERTEX
  5
2A5
  8
LAYER_1
 62
     1
 10
-168.1159
 20
-42.794
 30
0.0
  0
VERTEX
  5
2A6
  8
LAYER_1
 62
     1
 10
-168.1159
 20
-38.195
 30
0.0
  0
VERTEX
  5
2A7
  8
LAYER_1
 62
     1
 10
-168.1159
 20
-33.495
 30
0.0
  0
VERTEX
  5
2A8
  8
LAYER_1
 62
     1
 10
-162.7659
 20
-33.495
 30
0.0
  0
VERTEX
  5
2A9
  8
LAYER_1
 62
     1
 10
-162.7659
 20
-32.525
 30
0.0
  0
VERTEX
  5
2AA
  8
LAYER_1
 62
     1
 10
-159.4659
 20
-32.525
 30
0.0
  0
VERTEX
  5
2AB
  8
LAYER_1
 62
     1
 10
-159.4659
 20
-33.495
 30
0.0
  0
VERTEX
  5
2AC
  8
LAYER_1
 62
     1
 10
-149.3539
 20
-33.495
 30
0.0
  0
SEQEND
  5
4C9
  8
LAYER_1
 62
     1
  0
POLYLINE
  5
83
  8
LAYER_1
 62
     1
 66
     1
 10
0.0
 20
0.0
 30
0.0
 70
     1
  0
VERTEX
  5
2AD
  8
LAYER_1
 62
     1
 10
-34.7659
 20
-33.495
 30
0.0
  0
VERTEX
  5
2AE
  8
LAYER_1
 62
     1
 10
-34.7659
 20
-47.495
 30
0.0
  0
VERTEX
  5
2AF
  8
LAYER_1
 62
     1
 10
-20.7659
 20
-47.495
 30
0.0
  0
VERTEX
  5
2B0
  8
LAYER_1
 62
     1
 10
-20.7659
 20
-33.495
 30
0.0
  0
VERTEX
  5
2B1
  8
LAYER_1
 62
     1
 10
-34.7659
 20
-33.495
 30
0.0
  0
SEQEND
  5
4CA
  8
LAYER_1
 62
     1
  0
POLYLINE
  5
84
  8
LAYER_1
 62
     1
 66
     1
 10
0.0
 20
0.0
 30
0.0
 70
     1
  0
VERTEX
  5
2B2
  8
LAYER_1
 62
     1
 10
-15.7159
 20
-14.446
 30
0.0
  0
VERTEX
  5
2B3
  8
LAYER_1
 62
     1
 10
-15.7159
 20
-17.421
 30
0.0
  0
VERTEX
  5
2B4
  8
LAYER_1
 62
     1
 10
-16.6859
 20
-17.421
 30
0.0
  0
VERTEX
  5
2B5
  8
LAYER_1
 62
     1
 10
-16.6859
 20
-20.721
 30
0.0
  0
VERTEX
  5
2B6
  8
LAYER_1
 62
     1
 10
-15.7159
 20
-20.721
 30
0.0
  0
VERTEX
  5
2B7
  8
LAYER_1
 62
     1
 10
-15.7159
 20
-41.221
 30
0.0
  0
VERTEX
  5
2B8
  8
LAYER_1
 62
     1
 10
-16.6859
 20
-41.221
 30
0.0
  0
VERTEX
  5
2B9
  8
LAYER_1
 62
     1
 10
-16.6859
 20
-44.521
 30
0.0
  0
VERTEX
  5
2BA
  8
LAYER_1
 62
     1
 10
-15.7159
 20
-44.521
 30
0.0
  0
VERTEX
  5
2BB
  8
LAYER_1
 62
     1
 10
-15.7159
 20
-47.495
 30
0.0
  0
VERTEX
  5
2BC
  8
LAYER_1
 62
     1
 10
-1.7159
 20
-47.495
 30
0.0
  0
VERTEX
  5
2BD
  8
LAYER_1
 62
     1
 10
-1.7159
 20
-14.446
 30
0.0
  0
VERTEX
  5
2BE
  8
LAYER_1
 62
     1
 10
-15.7159
 20
-14.446
 30
0.0
  0
SEQEND
  5
4CB
  8
LAYER_1
 62
     1
  0
POLYLINE
  5
85
  8
LAYER_1
 62
     1
 66
     1
 10
0.0
 20
0.0
 30
0.0
 70
     1
  0
VERTEX
  5
2BF
  8
LAYER_1
 62
     1
 10
-356.2349
 20
-14.446
 30
0.0
  0
VERTEX
  5
2C0
  8
LAYER_1
 62
     1
 10
-356.2349
 20
-28.446
 30
0.0
  0
VERTEX
  5
2C1
  8
LAYER_1
 62
     1
 10
-353.2599
 20
-28.446
 30
0.0
  0
VERTEX
  5
2C2
  8
LAYER_1
 62
     1
 10
-353.2599
 20
-29.416
 30
0.0
  0
VERTEX
  5
2C3
  8
LAYER_1
 62
     1
 10
-349.9599
 20
-29.416
 30
0.0
  0
VERTEX
  5
2C4
  8
LAYER_1
 62
     1
 10
-349.9599
 20
-28.446
 30
0.0
  0
VERTEX
  5
2C5
  8
LAYER_1
 62
     1
 10
-329.4599
 20
-28.446
 30
0.0
  0
VERTEX
  5
2C6
  8
LAYER_1
 62
     1
 10
-329.4599
 20
-29.416
 30
0.0
  0
VERTEX
  5
2C7
  8
LAYER_1
 62
     1
 10
-326.1599
 20
-29.416
 30
0.0
  0
VERTEX
  5
2C8
  8
LAYER_1
 62
     1
 10
-326.1599
 20
-28.446
 30
0.0
  0
VERTEX
  5
2C9
  8
LAYER_1
 62
     1
 10
-320.8039
 20
-28.446
 30
0.0
  0
VERTEX
  5
2CA
  8
LAYER_1
 62
     1
 10
-320.8039
 20
-14.446
 30
0.0
  0
VERTEX
  5
2CB
  8
LAYER_1
 62
     1
 10
-356.2349
 20
-14.446
 30
0.0
  0
SEQEND
  5
4CC
  8
LAYER_1
 62
     1
  0
POLYLINE
  5
86
  8
LAYER_1
 62
     1
 66
     1
 10
0.0
 20
0.0
 30
0.0
 70
     1
  0
VERTEX
  5
2CC
  8
LAYER_1
 62
     1
 10
-94.5849
 20
-23.745
 30
0.0
  0
VERTEX
  5
2CD
  8
LAYER_1
 62
     1
 10
-94.5849
 20
-28.446
 30
0.0
  0
VERTEX
  5
2CE
  8
LAYER_1
 62
     1
 10
-111.8349
 20
-28.446
 30
0.0
  0
VERTEX
  5
2CF
  8
LAYER_1
 62
     1
 10
-111.8349
 20
-29.416
 30
0.0
  0
VERTEX
  5
2D0
  8
LAYER_1
 62
     1
 10
-115.1349
 20
-29.416
 30
0.0
  0
VERTEX
  5
2D1
  8
LAYER_1
 62
     1
 10
-115.1349
 20
-28.446
 30
0.0
  0
VERTEX
  5
2D2
  8
LAYER_1
 62
     1
 10
-118.1099
 20
-28.446
 30
0.0
  0
VERTEX
  5
2D3
  8
LAYER_1
 62
     1
 10
-118.1099
 20
-14.446
 30
0.0
  0
VERTEX
  5
2D4
  8
LAYER_1
 62
     1
 10
-94.5849
 20
-14.446
 30
0.0
  0
VERTEX
  5
2D5
  8
LAYER_1
 62
     1
 10
-94.5849
 20
-19.146
 30
0.0
  0
VERTEX
  5
2D6
  8
LAYER_1
 62
     1
 10
-94.5849
 20
-23.745
 30
0.0
  0
SEQEND
  5
4CD
  8
LAYER_1
 62
     1
  0
POLYLINE
  5
87
  8
LAYER_1
 62
     1
 66
     1
 10
0.0
 20
0.0
 30
0.0
 70
     1
  0
VERTEX
  5
2D7
  8
LAYER_1
 62
     1
 10
-93.0599
 20
-19.146
 30
0.0
  0
VERTEX
  5
2D8
  8
LAYER_1
 62
     1
 10
-93.0599
 20
-23.745
 30
0.0
  0
VERTEX
  5
2D9
  8
LAYER_1
 62
     1
 10
-93.0599
 20
-28.215
 30
0.0
  0
VERTEX
  5
2DA
  8
LAYER_1
 62
     1
 10
-91.9159
 20
-28.215
 30
0.0
  0
VERTEX
  5
2DB
  8
LAYER_1
 62
     1
 10
-91.9159
 20
-28.446
 30
0.0
  0
VERTEX
  5
2DC
  8
LAYER_1
 62
     1
 10
-91.3349
 20
-28.446
 30
0.0
  0
VERTEX
  5
2DD
  8
LAYER_1
 62
     1
 10
-91.3349
 20
-29.416
 30
0.0
  0
VERTEX
  5
2DE
  8
LAYER_1
 62
     1
 10
-88.0349
 20
-29.416
 30
0.0
  0
VERTEX
  5
2DF
  8
LAYER_1
 62
     1
 10
-88.0349
 20
-28.446
 30
0.0
  0
VERTEX
  5
2E0
  8
LAYER_1
 62
     1
 10
-77.9159
 20
-28.446
 30
0.0
  0
VERTEX
  5
2E1
  8
LAYER_1
 62
     1
 10
-77.9159
 20
-14.446
 30
0.0
  0
VERTEX
  5
2E2
  8
LAYER_1
 62
     1
 10
-91.9159
 20
-14.446
 30
0.0
  0
VERTEX
  5
2E3
  8
LAYER_1
 62
     1
 10
-91.9159
 20
-15.916
 30
0.0
  0
VERTEX
  5
2E4
  8
LAYER_1
 62
     1
 10
-93.0599
 20
-15.916
 30
0.0
  0
VERTEX
  5
2E5
  8
LAYER_1
 62
     1
 10
-93.0599
 20
-19.146
 30
0.0
  0
SEQEND
  5
4CE
  8
LAYER_1
 62
     1
  0
POLYLINE
  5
88
  8
LAYER_1
 62
     1
 66
     1
 10
0.0
 20
0.0
 30
0.0
 70
     1
  0
VERTEX
  5
2E6
  8
LAYER_1
 62
     1
 10
-315.7539
 20
-14.446
 30
0.0
  0
VERTEX
  5
2E7
  8
LAYER_1
 62
     1
 10
-315.7539
 20
-28.446
 30
0.0
  0
VERTEX
  5
2E8
  8
LAYER_1
 62
     1
 10
-301.7539
 20
-28.446
 30
0.0
  0
VERTEX
  5
2E9
  8
LAYER_1
 62
     1
 10
-301.7539
 20
-14.446
 30
0.0
  0
VERTEX
  5
2EA
  8
LAYER_1
 62
     1
 10
-315.7539
 20
-14.446
 30
0.0
  0
SEQEND
  5
4CF
  8
LAYER_1
 62
     1
  0
POLYLINE
  5
89
  8
LAYER_1
 62
     1
 66
     1
 10
0.0
 20
0.0
 30
0.0
 70
     1
  0
VERTEX
  5
2EB
  8
LAYER_1
 62
     1
 10
-296.7039
 20
-14.446
 30
0.0
  0
VERTEX
  5
2EC
  8
LAYER_1
 62
     1
 10
-296.7039
 20
-28.446
 30
0.0
  0
VERTEX
  5
2ED
  8
LAYER_1
 62
     1
 10
-282.7039
 20
-28.446
 30
0.0
  0
VERTEX
  5
2EE
  8
LAYER_1
 62
     1
 10
-282.7039
 20
-14.446
 30
0.0
  0
VERTEX
  5
2EF
  8
LAYER_1
 62
     1
 10
-296.7039
 20
-14.446
 30
0.0
  0
SEQEND
  5
4D0
  8
LAYER_1
 62
     1
  0
POLYLINE
  5
8A
  8
LAYER_1
 62
     1
 66
     1
 10
0.0
 20
0.0
 30
0.0
 70
     1
  0
VERTEX
  5
2F0
  8
LAYER_1
 62
     1
 10
-277.6539
 20
-14.446
 30
0.0
  0
VERTEX
  5
2F1
  8
LAYER_1
 62
     1
 10
-277.6539
 20
-28.446
 30
0.0
  0
VERTEX
  5
2F2
  8
LAYER_1
 62
     1
 10
-263.6539
 20
-28.446
 30
0.0
  0
VERTEX
  5
2F3
  8
LAYER_1
 62
     1
 10
-263.6539
 20
-14.446
 30
0.0
  0
VERTEX
  5
2F4
  8
LAYER_1
 62
     1
 10
-277.6539
 20
-14.446
 30
0.0
  0
SEQEND
  5
4D1
  8
LAYER_1
 62
     1
  0
POLYLINE
  5
8B
  8
LAYER_1
 62
     1
 66
     1
 10
0.0
 20
0.0
 30
0.0
 70
     1
  0
VERTEX
  5
2F5
  8
LAYER_1
 62
     1
 10
-258.6039
 20
-14.446
 30
0.0
  0
VERTEX
  5
2F6
  8
LAYER_1
 62
     1
 10
-258.6039
 20
-28.446
 30
0.0
  0
VERTEX
  5
2F7
  8
LAYER_1
 62
     1
 10
-244.6039
 20
-28.446
 30
0.0
  0
VERTEX
  5
2F8
  8
LAYER_1
 62
     1
 10
-244.6039
 20
-14.446
 30
0.0
  0
VERTEX
  5
2F9
  8
LAYER_1
 62
     1
 10
-258.6039
 20
-14.446
 30
0.0
  0
SEQEND
  5
4D2
  8
LAYER_1
 62
     1
  0
POLYLINE
  5
8C
  8
LAYER_1
 62
     1
 66
     1
 10
0.0
 20
0.0
 30
0.0
 70
     1
  0
VERTEX
  5
2FA
  8
LAYER_1
 62
     1
 10
-239.5539
 20
-14.446
 30
0.0
  0
VERTEX
  5
2FB
  8
LAYER_1
 62
     1
 10
-239.5539
 20
-28.446
 30
0.0
  0
VERTEX
  5
2FC
  8
LAYER_1
 62
     1
 10
-225.5539
 20
-28.446
 30
0.0
  0
VERTEX
  5
2FD
  8
LAYER_1
 62
     1
 10
-225.5539
 20
-14.446
 30
0.0
  0
VERTEX
  5
2FE
  8
LAYER_1
 62
     1
 10
-239.5539
 20
-14.446
 30
0.0
  0
SEQEND
  5
4D3
  8
LAYER_1
 62
     1
  0
POLYLINE
  5
8D
  8
LAYER_1
 62
     1
 66
     1
 10
0.0
 20
0.0
 30
0.0
 70
     1
  0
VERTEX
  5
2FF
  8
LAYER_1
 62
     1
 10
-220.5039
 20
-14.446
 30
0.0
  0
VERTEX
  5
300
  8
LAYER_1
 62
     1
 10
-220.5039
 20
-28.446
 30
0.0
  0
VERTEX
  5
301
  8
LAYER_1
 62
     1
 10
-206.5039
 20
-28.446
 30
0.0
  0
VERTEX
  5
302
  8
LAYER_1
 62
     1
 10
-206.5039
 20
-14.446
 30
0.0
  0
VERTEX
  5
303
  8
LAYER_1
 62
     1
 10
-220.5039
 20
-14.446
 30
0.0
  0
SEQEND
  5
4D4
  8
LAYER_1
 62
     1
  0
POLYLINE
  5
8E
  8
LAYER_1
 62
     1
 66
     1
 10
0.0
 20
0.0
 30
0.0
 70
     1
  0
VERTEX
  5
304
  8
LAYER_1
 62
     1
 10
-201.4539
 20
-14.446
 30
0.0
  0
VERTEX
  5
305
  8
LAYER_1
 62
     1
 10
-201.4539
 20
-28.446
 30
0.0
  0
VERTEX
  5
306
  8
LAYER_1
 62
     1
 10
-187.4539
 20
-28.446
 30
0.0
  0
VERTEX
  5
307
  8
LAYER_1
 62
     1
 10
-187.4539
 20
-14.446
 30
0.0
  0
VERTEX
  5
308
  8
LAYER_1
 62
     1
 10
-201.4539
 20
-14.446
 30
0.0
  0
SEQEND
  5
4D5
  8
LAYER_1
 62
     1
  0
POLYLINE
  5
8F
  8
LAYER_1
 62
     1
 66
     1
 10
0.0
 20
0.0
 30
0.0
 70
     1
  0
VERTEX
  5
309
  8
LAYER_1
 62
     1
 10
-182.4039
 20
-14.446
 30
0.0
  0
VERTEX
  5
30A
  8
LAYER_1
 62
     1
 10
-182.4039
 20
-28.446
 30
0.0
  0
VERTEX
  5
30B
  8
LAYER_1
 62
     1
 10
-168.4039
 20
-28.446
 30
0.0
  0
VERTEX
  5
30C
  8
LAYER_1
 62
     1
 10
-168.4039
 20
-14.446
 30
0.0
  0
VERTEX
  5
30D
  8
LAYER_1
 62
     1
 10
-182.4039
 20
-14.446
 30
0.0
  0
SEQEND
  5
4D6
  8
LAYER_1
 62
     1
  0
POLYLINE
  5
90
  8
LAYER_1
 62
     1
 66
     1
 10
0.0
 20
0.0
 30
0.0
 70
     1
  0
VERTEX
  5
30E
  8
LAYER_1
 62
     1
 10
-163.3539
 20
-14.446
 30
0.0
  0
VERTEX
  5
30F
  8
LAYER_1
 62
     1
 10
-163.3539
 20
-28.446
 30
0.0
  0
VERTEX
  5
310
  8
LAYER_1
 62
     1
 10
-149.3539
 20
-28.446
 30
0.0
  0
VERTEX
  5
311
  8
LAYER_1
 62
     1
 10
-149.3539
 20
-14.446
 30
0.0
  0
VERTEX
  5
312
  8
LAYER_1
 62
     1
 10
-163.3539
 20
-14.446
 30
0.0
  0
SEQEND
  5
4D7
  8
LAYER_1
 62
     1
  0
POLYLINE
  5
91
  8
LAYER_1
 62
     1
 66
     1
 10
0.0
 20
0.0
 30
0.0
 70
     1
  0
VERTEX
  5
313
  8
LAYER_1
 62
     1
 10
-144.3039
 20
-14.446
 30
0.0
  0
VERTEX
  5
314
  8
LAYER_1
 62
     1
 10
-144.3039
 20
-28.446
 30
0.0
  0
VERTEX
  5
315
  8
LAYER_1
 62
     1
 10
-130.3039
 20
-28.446
 30
0.0
  0
VERTEX
  5
316
  8
LAYER_1
 62
     1
 10
-130.3039
 20
-14.446
 30
0.0
  0
VERTEX
  5
317
  8
LAYER_1
 62
     1
 10
-144.3039
 20
-14.446
 30
0.0
  0
SEQEND
  5
4D8
  8
LAYER_1
 62
     1
  0
POLYLINE
  5
92
  8
LAYER_1
 62
     1
 66
     1
 10
0.0
 20
0.0
 30
0.0
 70
     1
  0
VERTEX
  5
318
  8
LAYER_1
 62
     1
 10
-72.8659
 20
-14.446
 30
0.0
  0
VERTEX
  5
319
  8
LAYER_1
 62
     1
 10
-72.8659
 20
-28.446
 30
0.0
  0
VERTEX
  5
31A
  8
LAYER_1
 62
     1
 10
-58.8659
 20
-28.446
 30
0.0
  0
VERTEX
  5
31B
  8
LAYER_1
 62
     1
 10
-58.8659
 20
-14.446
 30
0.0
  0
VERTEX
  5
31C
  8
LAYER_1
 62
     1
 10
-72.8659
 20
-14.446
 30
0.0
  0
SEQEND
  5
4D9
  8
LAYER_1
 62
     1
  0
POLYLINE
  5
93
  8
LAYER_1
 62
     1
 66
     1
 10
0.0
 20
0.0
 30
0.0
 70
     1
  0
VERTEX
  5
31D
  8
LAYER_1
 62
     1
 10
-53.8159
 20
-14.446
 30
0.0
  0
VERTEX
  5
31E
  8
LAYER_1
 62
     1
 10
-53.8159
 20
-28.446
 30
0.0
  0
VERTEX
  5
31F
  8
LAYER_1
 62
     1
 10
-39.8159
 20
-28.446
 30
0.0
  0
VERTEX
  5
320
  8
LAYER_1
 62
     1
 10
-39.8159
 20
-14.446
 30
0.0
  0
VERTEX
  5
321
  8
LAYER_1
 62
     1
 10
-53.8159
 20
-14.446
 30
0.0
  0
SEQEND
  5
4DA
  8
LAYER_1
 62
     1
  0
POLYLINE
  5
94
  8
LAYER_1
 62
     1
 66
     1
 10
0.0
 20
0.0
 30
0.0
 70
     1
  0
VERTEX
  5
322
  8
LAYER_1
 62
     1
 10
-34.7659
 20
-14.446
 30
0.0
  0
VERTEX
  5
323
  8
LAYER_1
 62
     1
 10
-34.7659
 20
-28.446
 30
0.0
  0
VERTEX
  5
324
  8
LAYER_1
 62
     1
 10
-20.7659
 20
-28.446
 30
0.0
  0
VERTEX
  5
325
  8
LAYER_1
 62
     1
 10
-20.7659
 20
-14.446
 30
0.0
  0
VERTEX
  5
326
  8
LAYER_1
 62
     1
 10
-34.7659
 20
-14.446
 30
0.0
  0
SEQEND
  5
4DB
  8
LAYER_1
 62
     1
  0
POLYLINE
  5
95
  8
LAYER_1
 62
     1
 66
     1
 10
0.0
 20
0.0
 30
0.0
 70
     1
  0
VERTEX
  5
327
  8
LAYER_1
 62
     1
 10
-107.2164
 20
4.604
 30
0.0
  0
VERTEX
  5
328
  8
LAYER_1
 62
     1
 10
-107.2164
 20
5.354
 30
0.0
  0
VERTEX
  5
329
  8
LAYER_1
 62
     1
 10
-110.5164
 20
5.354
 30
0.0
  0
VERTEX
  5
32A
  8
LAYER_1
 62
     1
 10
-110.5164
 20
4.604
 30
0.0
  0
VERTEX
  5
32B
  8
LAYER_1
 62
     1
 10
-115.7289
 20
4.604
 30
0.0
  0
VERTEX
  5
32C
  8
LAYER_1
 62
     1
 10
-115.7289
 20
-9.396
 30
0.0
  0
VERTEX
  5
32D
  8
LAYER_1
 62
     1
 10
-110.3729
 20
-9.396
 30
0.0
  0
VERTEX
  5
32E
  8
LAYER_1
 62
     1
 10
-110.3729
 20
-10.366
 30
0.0
  0
VERTEX
  5
32F
  8
LAYER_1
 62
     1
 10
-107.0739
 20
-10.366
 30
0.0
  0
VERTEX
  5
330
  8
LAYER_1
 62
     1
 10
-107.0739
 20
-9.396
 30
0.0
  0
VERTEX
  5
331
  8
LAYER_1
 62
     1
 10
-89.8229
 20
-9.396
 30
0.0
  0
VERTEX
  5
332
  8
LAYER_1
 62
     1
 10
-89.8229
 20
-8.146
 30
0.0
  0
VERTEX
  5
333
  8
LAYER_1
 62
     1
 10
-88.2979
 20
-8.146
 30
0.0
  0
VERTEX
  5
334
  8
LAYER_1
 62
     1
 10
-88.2979
 20
-9.166
 30
0.0
  0
VERTEX
  5
335
  8
LAYER_1
 62
     1
 10
-86.5729
 20
-9.166
 30
0.0
  0
VERTEX
  5
336
  8
LAYER_1
 62
     1
 10
-86.5729
 20
-10.366
 30
0.0
  0
VERTEX
  5
337
  8
LAYER_1
 62
     1
 10
-83.2729
 20
-10.366
 30
0.0
  0
VERTEX
  5
338
  8
LAYER_1
 62
     1
 10
-83.2729
 20
-9.166
 30
0.0
  0
VERTEX
  5
339
  8
LAYER_1
 62
     1
 10
-81.5479
 20
-9.166
 30
0.0
  0
VERTEX
  5
33A
  8
LAYER_1
 62
     1
 10
-81.5479
 20
-4.696
 30
0.0
  0
VERTEX
  5
33B
  8
LAYER_1
 62
     1
 10
-80.8654
 20
-4.696
 30
0.0
  0
VERTEX
  5
33C
  8
LAYER_1
 62
     1
 10
-80.8654
 20
-2.896
 30
0.0
  0
VERTEX
  5
33D
  8
LAYER_1
 62
     1
 10
-80.7229
 20
-2.896
 30
0.0
  0
VERTEX
  5
33E
  8
LAYER_1
 62
     1
 10
-80.7229
 20
-0.096
 30
0.0
  0
VERTEX
  5
33F
  8
LAYER_1
 62
     1
 10
-81.5479
 20
-0.096
 30
0.0
  0
VERTEX
  5
340
  8
LAYER_1
 62
     1
 10
-81.5479
 20
0.129
 30
0.0
  0
VERTEX
  5
341
  8
LAYER_1
 62
     1
 10
-80.2979
 20
0.129
 30
0.0
  0
VERTEX
  5
342
  8
LAYER_1
 62
     1
 10
-80.2979
 20
14.129
 30
0.0
  0
VERTEX
  5
343
  8
LAYER_1
 62
     1
 10
-82.6789
 20
14.129
 30
0.0
  0
VERTEX
  5
344
  8
LAYER_1
 62
     1
 10
-82.6789
 20
15.654
 30
0.0
  0
VERTEX
  5
345
  8
LAYER_1
 62
     1
 10
-81.7679
 20
15.654
 30
0.0
  0
VERTEX
  5
346
  8
LAYER_1
 62
     1
 10
-81.7679
 20
22.404
 30
0.0
  0
VERTEX
  5
347
  8
LAYER_1
 62
     1
 10
-82.6789
 20
22.404
 30
0.0
  0
VERTEX
  5
348
  8
LAYER_1
 62
     1
 10
-82.6789
 20
23.654
 30
0.0
  0
VERTEX
  5
349
  8
LAYER_1
 62
     1
 10
-96.6789
 20
23.654
 30
0.0
  0
VERTEX
  5
34A
  8
LAYER_1
 62
     1
 10
-96.6789
 20
9.654
 30
0.0
  0
VERTEX
  5
34B
  8
LAYER_1
 62
     1
 10
-94.2979
 20
9.654
 30
0.0
  0
VERTEX
  5
34C
  8
LAYER_1
 62
     1
 10
-94.2979
 20
4.604
 30
0.0
  0
VERTEX
  5
34D
  8
LAYER_1
 62
     1
 10
-107.2164
 20
4.604
 30
0.0
  0
SEQEND
  5
4DC
  8
LAYER_1
 62
     1
  0
POLYLINE
  5
96
  8
LAYER_1
 62
     1
 66
     1
 10
0.0
 20
0.0
 30
0.0
 70
     1
  0
VERTEX
  5
34E
  8
LAYER_1
 62
     1
 10
-356.2349
 20
4.604
 30
0.0
  0
VERTEX
  5
34F
  8
LAYER_1
 62
     1
 10
-356.2349
 20
-9.396
 30
0.0
  0
VERTEX
  5
350
  8
LAYER_1
 62
     1
 10
-337.4729
 20
-9.396
 30
0.0
  0
VERTEX
  5
351
  8
LAYER_1
 62
     1
 10
-337.4729
 20
4.604
 30
0.0
  0
VERTEX
  5
352
  8
LAYER_1
 62
     1
 10
-356.2349
 20
4.604
 30
0.0
  0
SEQEND
  5
4DD
  8
LAYER_1
 62
     1
  0
POLYLINE
  5
97
  8
LAYER_1
 62
     1
 66
     1
 10
0.0
 20
0.0
 30
0.0
 70
     1
  0
VERTEX
  5
353
  8
LAYER_1
 62
     1
 10
-325.2789
 20
4.604
 30
0.0
  0
VERTEX
  5
354
  8
LAYER_1
 62
     1
 10
-325.2789
 20
-9.396
 30
0.0
  0
VERTEX
  5
355
  8
LAYER_1
 62
     1
 10
-311.2789
 20
-9.396
 30
0.0
  0
VERTEX
  5
356
  8
LAYER_1
 62
     1
 10
-311.2789
 20
4.604
 30
0.0
  0
VERTEX
  5
357
  8
LAYER_1
 62
     1
 10
-325.2789
 20
4.604
 30
0.0
  0
SEQEND
  5
4DE
  8
LAYER_1
 62
     1
  0
POLYLINE
  5
98
  8
LAYER_1
 62
     1
 66
     1
 10
0.0
 20
0.0
 30
0.0
 70
     1
  0
VERTEX
  5
358
  8
LAYER_1
 62
     1
 10
-306.2289
 20
4.604
 30
0.0
  0
VERTEX
  5
359
  8
LAYER_1
 62
     1
 10
-306.2289
 20
-9.396
 30
0.0
  0
VERTEX
  5
35A
  8
LAYER_1
 62
     1
 10
-292.2289
 20
-9.396
 30
0.0
  0
VERTEX
  5
35B
  8
LAYER_1
 62
     1
 10
-292.2289
 20
4.604
 30
0.0
  0
VERTEX
  5
35C
  8
LAYER_1
 62
     1
 10
-306.2289
 20
4.604
 30
0.0
  0
SEQEND
  5
4DF
  8
LAYER_1
 62
     1
  0
POLYLINE
  5
99
  8
LAYER_1
 62
     1
 66
     1
 10
0.0
 20
0.0
 30
0.0
 70
     1
  0
VERTEX
  5
35D
  8
LAYER_1
 62
     1
 10
-287.1789
 20
4.604
 30
0.0
  0
VERTEX
  5
35E
  8
LAYER_1
 62
     1
 10
-287.1789
 20
-9.396
 30
0.0
  0
VERTEX
  5
35F
  8
LAYER_1
 62
     1
 10
-273.1789
 20
-9.396
 30
0.0
  0
VERTEX
  5
360
  8
LAYER_1
 62
     1
 10
-273.1789
 20
4.604
 30
0.0
  0
VERTEX
  5
361
  8
LAYER_1
 62
     1
 10
-287.1789
 20
4.604
 30
0.0
  0
SEQEND
  5
4E0
  8
LAYER_1
 62
     1
  0
POLYLINE
  5
9A
  8
LAYER_1
 62
     1
 66
     1
 10
0.0
 20
0.0
 30
0.0
 70
     1
  0
VERTEX
  5
362
  8
LAYER_1
 62
     1
 10
-268.1289
 20
4.604
 30
0.0
  0
VERTEX
  5
363
  8
LAYER_1
 62
     1
 10
-268.1289
 20
-9.396
 30
0.0
  0
VERTEX
  5
364
  8
LAYER_1
 62
     1
 10
-254.1289
 20
-9.396
 30
0.0
  0
VERTEX
  5
365
  8
LAYER_1
 62
     1
 10
-254.1289
 20
4.604
 30
0.0
  0
VERTEX
  5
366
  8
LAYER_1
 62
     1
 10
-268.1289
 20
4.604
 30
0.0
  0
SEQEND
  5
4E1
  8
LAYER_1
 62
     1
  0
POLYLINE
  5
9B
  8
LAYER_1
 62
     1
 66
     1
 10
0.0
 20
0.0
 30
0.0
 70
     1
  0
VERTEX
  5
367
  8
LAYER_1
 62
     1
 10
-249.0789
 20
4.604
 30
0.0
  0
VERTEX
  5
368
  8
LAYER_1
 62
     1
 10
-249.0789
 20
-9.396
 30
0.0
  0
VERTEX
  5
369
  8
LAYER_1
 62
     1
 10
-235.0789
 20
-9.396
 30
0.0
  0
VERTEX
  5
36A
  8
LAYER_1
 62
     1
 10
-235.0789
 20
4.604
 30
0.0
  0
VERTEX
  5
36B
  8
LAYER_1
 62
     1
 10
-249.0789
 20
4.604
 30
0.0
  0
SEQEND
  5
4E2
  8
LAYER_1
 62
     1
  0
POLYLINE
  5
9C
  8
LAYER_1
 62
     1
 66
     1
 10
0.0
 20
0.0
 30
0.0
 70
     1
  0
VERTEX
  5
36C
  8
LAYER_1
 62
     1
 10
-230.0289
 20
4.604
 30
0.0
  0
VERTEX
  5
36D
  8
LAYER_1
 62
     1
 10
-230.0289
 20
-9.396
 30
0.0
  0
VERTEX
  5
36E
  8
LAYER_1
 62
     1
 10
-216.0289
 20
-9.396
 30
0.0
  0
VERTEX
  5
36F
  8
LAYER_1
 62
     1
 10
-216.0289
 20
4.604
 30
0.0
  0
VERTEX
  5
370
  8
LAYER_1
 62
     1
 10
-230.0289
 20
4.604
 30
0.0
  0
SEQEND
  5
4E3
  8
LAYER_1
 62
     1
  0
POLYLINE
  5
9D
  8
LAYER_1
 62
     1
 66
     1
 10
0.0
 20
0.0
 30
0.0
 70
     1
  0
VERTEX
  5
371
  8
LAYER_1
 62
     1
 10
-210.9789
 20
4.604
 30
0.0
  0
VERTEX
  5
372
  8
LAYER_1
 62
     1
 10
-210.9789
 20
-9.396
 30
0.0
  0
VERTEX
  5
373
  8
LAYER_1
 62
     1
 10
-196.9789
 20
-9.396
 30
0.0
  0
VERTEX
  5
374
  8
LAYER_1
 62
     1
 10
-196.9789
 20
4.604
 30
0.0
  0
VERTEX
  5
375
  8
LAYER_1
 62
     1
 10
-210.9789
 20
4.604
 30
0.0
  0
SEQEND
  5
4E4
  8
LAYER_1
 62
     1
  0
POLYLINE
  5
9E
  8
LAYER_1
 62
     1
 66
     1
 10
0.0
 20
0.0
 30
0.0
 70
     1
  0
VERTEX
  5
376
  8
LAYER_1
 62
     1
 10
-191.9289
 20
4.604
 30
0.0
  0
VERTEX
  5
377
  8
LAYER_1
 62
     1
 10
-191.9289
 20
-9.396
 30
0.0
  0
VERTEX
  5
378
  8
LAYER_1
 62
     1
 10
-177.9289
 20
-9.396
 30
0.0
  0
VERTEX
  5
379
  8
LAYER_1
 62
     1
 10
-177.9289
 20
4.604
 30
0.0
  0
VERTEX
  5
37A
  8
LAYER_1
 62
     1
 10
-191.9289
 20
4.604
 30
0.0
  0
SEQEND
  5
4E5
  8
LAYER_1
 62
     1
  0
POLYLINE
  5
9F
  8
LAYER_1
 62
     1
 66
     1
 10
0.0
 20
0.0
 30
0.0
 70
     1
  0
VERTEX
  5
37B
  8
LAYER_1
 62
     1
 10
-172.8789
 20
4.604
 30
0.0
  0
VERTEX
  5
37C
  8
LAYER_1
 62
     1
 10
-172.8789
 20
-9.396
 30
0.0
  0
VERTEX
  5
37D
  8
LAYER_1
 62
     1
 10
-158.8789
 20
-9.396
 30
0.0
  0
VERTEX
  5
37E
  8
LAYER_1
 62
     1
 10
-158.8789
 20
4.604
 30
0.0
  0
VERTEX
  5
37F
  8
LAYER_1
 62
     1
 10
-172.8789
 20
4.604
 30
0.0
  0
SEQEND
  5
4E6
  8
LAYER_1
 62
     1
  0
POLYLINE
  5
A0
  8
LAYER_1
 62
     1
 66
     1
 10
0.0
 20
0.0
 30
0.0
 70
     1
  0
VERTEX
  5
380
  8
LAYER_1
 62
     1
 10
-153.8289
 20
4.604
 30
0.0
  0
VERTEX
  5
381
  8
LAYER_1
 62
     1
 10
-153.8289
 20
-9.396
 30
0.0
  0
VERTEX
  5
382
  8
LAYER_1
 62
     1
 10
-139.8289
 20
-9.396
 30
0.0
  0
VERTEX
  5
383
  8
LAYER_1
 62
     1
 10
-139.8289
 20
4.604
 30
0.0
  0
VERTEX
  5
384
  8
LAYER_1
 62
     1
 10
-153.8289
 20
4.604
 30
0.0
  0
SEQEND
  5
4E7
  8
LAYER_1
 62
     1
  0
POLYLINE
  5
A1
  8
LAYER_1
 62
     1
 66
     1
 10
0.0
 20
0.0
 30
0.0
 70
     1
  0
VERTEX
  5
385
  8
LAYER_1
 62
     1
 10
-134.7789
 20
4.604
 30
0.0
  0
VERTEX
  5
386
  8
LAYER_1
 62
     1
 10
-134.7789
 20
-9.396
 30
0.0
  0
VERTEX
  5
387
  8
LAYER_1
 62
     1
 10
-120.7789
 20
-9.396
 30
0.0
  0
VERTEX
  5
388
  8
LAYER_1
 62
     1
 10
-120.7789
 20
4.604
 30
0.0
  0
VERTEX
  5
389
  8
LAYER_1
 62
     1
 10
-134.7789
 20
4.604
 30
0.0
  0
SEQEND
  5
4E8
  8
LAYER_1
 62
     1
  0
POLYLINE
  5
A2
  8
LAYER_1
 62
     1
 66
     1
 10
0.0
 20
0.0
 30
0.0
 70
     1
  0
VERTEX
  5
38A
  8
LAYER_1
 62
     1
 10
-72.8659
 20
4.604
 30
0.0
  0
VERTEX
  5
38B
  8
LAYER_1
 62
     1
 10
-72.8659
 20
-9.396
 30
0.0
  0
VERTEX
  5
38C
  8
LAYER_1
 62
     1
 10
-58.8659
 20
-9.396
 30
0.0
  0
VERTEX
  5
38D
  8
LAYER_1
 62
     1
 10
-58.8659
 20
4.604
 30
0.0
  0
VERTEX
  5
38E
  8
LAYER_1
 62
     1
 10
-72.8659
 20
4.604
 30
0.0
  0
SEQEND
  5
4E9
  8
LAYER_1
 62
     1
  0
POLYLINE
  5
A3
  8
LAYER_1
 62
     1
 66
     1
 10
0.0
 20
0.0
 30
0.0
 70
     1
  0
VERTEX
  5
38F
  8
LAYER_1
 62
     1
 10
-53.8159
 20
4.604
 30
0.0
  0
VERTEX
  5
390
  8
LAYER_1
 62
     1
 10
-53.8159
 20
-9.396
 30
0.0
  0
VERTEX
  5
391
  8
LAYER_1
 62
     1
 10
-39.8159
 20
-9.396
 30
0.0
  0
VERTEX
  5
392
  8
LAYER_1
 62
     1
 10
-39.8159
 20
4.604
 30
0.0
  0
VERTEX
  5
393
  8
LAYER_1
 62
     1
 10
-53.8159
 20
4.604
 30
0.0
  0
SEQEND
  5
4EA
  8
LAYER_1
 62
     1
  0
POLYLINE
  5
A4
  8
LAYER_1
 62
     1
 66
     1
 10
0.0
 20
0.0
 30
0.0
 70
     1
  0
VERTEX
  5
394
  8
LAYER_1
 62
     1
 10
-34.7659
 20
4.604
 30
0.0
  0
VERTEX
  5
395
  8
LAYER_1
 62
     1
 10
-34.7659
 20
-9.396
 30
0.0
  0
VERTEX
  5
396
  8
LAYER_1
 62
     1
 10
-20.7659
 20
-9.396
 30
0.0
  0
VERTEX
  5
397
  8
LAYER_1
 62
     1
 10
-20.7659
 20
4.604
 30
0.0
  0
VERTEX
  5
398
  8
LAYER_1
 62
     1
 10
-34.7659
 20
4.604
 30
0.0
  0
SEQEND
  5
4EB
  8
LAYER_1
 62
     1
  0
POLYLINE
  5
A5
  8
LAYER_1
 62
     1
 66
     1
 10
0.0
 20
0.0
 30
0.0
 70
     1
  0
VERTEX
  5
399
  8
LAYER_1
 62
     1
 10
-15.7159
 20
23.654
 30
0.0
  0
VERTEX
  5
39A
  8
LAYER_1
 62
     1
 10
-15.7159
 20
20.68
 30
0.0
  0
VERTEX
  5
39B
  8
LAYER_1
 62
     1
 10
-16.6859
 20
20.68
 30
0.0
  0
VERTEX
  5
39C
  8
LAYER_1
 62
     1
 10
-16.6859
 20
17.379
 30
0.0
  0
VERTEX
  5
39D
  8
LAYER_1
 62
     1
 10
-15.7159
 20
17.379
 30
0.0
  0
VERTEX
  5
39E
  8
LAYER_1
 62
     1
 10
-15.7159
 20
-3.121
 30
0.0
  0
VERTEX
  5
39F
  8
LAYER_1
 62
     1
 10
-16.6859
 20
-3.121
 30
0.0
  0
VERTEX
  5
3A0
  8
LAYER_1
 62
     1
 10
-16.6859
 20
-6.421
 30
0.0
  0
VERTEX
  5
3A1
  8
LAYER_1
 62
     1
 10
-15.7159
 20
-6.421
 30
0.0
  0
VERTEX
  5
3A2
  8
LAYER_1
 62
     1
 10
-15.7159
 20
-9.396
 30
0.0
  0
VERTEX
  5
3A3
  8
LAYER_1
 62
     1
 10
-1.7159
 20
-9.396
 30
0.0
  0
VERTEX
  5
3A4
  8
LAYER_1
 62
     1
 10
-1.7159
 20
23.654
 30
0.0
  0
VERTEX
  5
3A5
  8
LAYER_1
 62
     1
 10
-15.7159
 20
23.654
 30
0.0
  0
SEQEND
  5
4EC
  8
LAYER_1
 62
     1
  0
POLYLINE
  5
A6
  8
LAYER_1
 62
     1
 66
     1
 10
0.0
 20
0.0
 30
0.0
 70
     1
  0
VERTEX
  5
3A6
  8
LAYER_1
 62
     1
 10
-353.8539
 20
23.654
 30
0.0
  0
VERTEX
  5
3A7
  8
LAYER_1
 62
     1
 10
-353.8539
 20
9.654
 30
0.0
  0
VERTEX
  5
3A8
  8
LAYER_1
 62
     1
 10
-339.8539
 20
9.654
 30
0.0
  0
VERTEX
  5
3A9
  8
LAYER_1
 62
     1
 10
-339.8539
 20
23.654
 30
0.0
  0
VERTEX
  5
3AA
  8
LAYER_1
 62
     1
 10
-353.8539
 20
23.654
 30
0.0
  0
SEQEND
  5
4ED
  8
LAYER_1
 62
     1
  0
POLYLINE
  5
A7
  8
LAYER_1
 62
     1
 66
     1
 10
0.0
 20
0.0
 30
0.0
 70
     1
  0
VERTEX
  5
3AB
  8
LAYER_1
 62
     1
 10
-330.0409
 20
23.654
 30
0.0
  0
VERTEX
  5
3AC
  8
LAYER_1
 62
     1
 10
-330.0409
 20
9.654
 30
0.0
  0
VERTEX
  5
3AD
  8
LAYER_1
 62
     1
 10
-316.0409
 20
9.654
 30
0.0
  0
VERTEX
  5
3AE
  8
LAYER_1
 62
     1
 10
-316.0409
 20
23.654
 30
0.0
  0
VERTEX
  5
3AF
  8
LAYER_1
 62
     1
 10
-330.0409
 20
23.654
 30
0.0
  0
SEQEND
  5
4EE
  8
LAYER_1
 62
     1
  0
POLYLINE
  5
A8
  8
LAYER_1
 62
     1
 66
     1
 10
0.0
 20
0.0
 30
0.0
 70
     1
  0
VERTEX
  5
3B0
  8
LAYER_1
 62
     1
 10
-310.9909
 20
23.654
 30
0.0
  0
VERTEX
  5
3B1
  8
LAYER_1
 62
     1
 10
-310.9909
 20
9.654
 30
0.0
  0
VERTEX
  5
3B2
  8
LAYER_1
 62
     1
 10
-296.9909
 20
9.654
 30
0.0
  0
VERTEX
  5
3B3
  8
LAYER_1
 62
     1
 10
-296.9909
 20
23.654
 30
0.0
  0
VERTEX
  5
3B4
  8
LAYER_1
 62
     1
 10
-310.9909
 20
23.654
 30
0.0
  0
SEQEND
  5
4EF
  8
LAYER_1
 62
     1
  0
POLYLINE
  5
A9
  8
LAYER_1
 62
     1
 66
     1
 10
0.0
 20
0.0
 30
0.0
 70
     1
  0
VERTEX
  5
3B5
  8
LAYER_1
 62
     1
 10
-291.9409
 20
23.654
 30
0.0
  0
VERTEX
  5
3B6
  8
LAYER_1
 62
     1
 10
-291.9409
 20
9.654
 30
0.0
  0
VERTEX
  5
3B7
  8
LAYER_1
 62
     1
 10
-277.9409
 20
9.654
 30
0.0
  0
VERTEX
  5
3B8
  8
LAYER_1
 62
     1
 10
-277.9409
 20
23.654
 30
0.0
  0
VERTEX
  5
3B9
  8
LAYER_1
 62
     1
 10
-291.9409
 20
23.654
 30
0.0
  0
SEQEND
  5
4F0
  8
LAYER_1
 62
     1
  0
POLYLINE
  5
AA
  8
LAYER_1
 62
     1
 66
     1
 10
0.0
 20
0.0
 30
0.0
 70
     1
  0
VERTEX
  5
3BA
  8
LAYER_1
 62
     1
 10
-272.8909
 20
23.654
 30
0.0
  0
VERTEX
  5
3BB
  8
LAYER_1
 62
     1
 10
-272.8909
 20
9.654
 30
0.0
  0
VERTEX
  5
3BC
  8
LAYER_1
 62
     1
 10
-258.8909
 20
9.654
 30
0.0
  0
VERTEX
  5
3BD
  8
LAYER_1
 62
     1
 10
-258.8909
 20
23.654
 30
0.0
  0
VERTEX
  5
3BE
  8
LAYER_1
 62
     1
 10
-272.8909
 20
23.654
 30
0.0
  0
SEQEND
  5
4F1
  8
LAYER_1
 62
     1
  0
POLYLINE
  5
AB
  8
LAYER_1
 62
     1
 66
     1
 10
0.0
 20
0.0
 30
0.0
 70
     1
  0
VERTEX
  5
3BF
  8
LAYER_1
 62
     1
 10
-253.8409
 20
23.654
 30
0.0
  0
VERTEX
  5
3C0
  8
LAYER_1
 62
     1
 10
-253.8409
 20
9.654
 30
0.0
  0
VERTEX
  5
3C1
  8
LAYER_1
 62
     1
 10
-239.8409
 20
9.654
 30
0.0
  0
VERTEX
  5
3C2
  8
LAYER_1
 62
     1
 10
-239.8409
 20
23.654
 30
0.0
  0
VERTEX
  5
3C3
  8
LAYER_1
 62
     1
 10
-253.8409
 20
23.654
 30
0.0
  0
SEQEND
  5
4F2
  8
LAYER_1
 62
     1
  0
POLYLINE
  5
AC
  8
LAYER_1
 62
     1
 66
     1
 10
0.0
 20
0.0
 30
0.0
 70
     1
  0
VERTEX
  5
3C4
  8
LAYER_1
 62
     1
 10
-234.7909
 20
23.654
 30
0.0
  0
VERTEX
  5
3C5
  8
LAYER_1
 62
     1
 10
-234.7909
 20
9.654
 30
0.0
  0
VERTEX
  5
3C6
  8
LAYER_1
 62
     1
 10
-220.7909
 20
9.654
 30
0.0
  0
VERTEX
  5
3C7
  8
LAYER_1
 62
     1
 10
-220.7909
 20
23.654
 30
0.0
  0
VERTEX
  5
3C8
  8
LAYER_1
 62
     1
 10
-234.7909
 20
23.654
 30
0.0
  0
SEQEND
  5
4F3
  8
LAYER_1
 62
     1
  0
POLYLINE
  5
AD
  8
LAYER_1
 62
     1
 66
     1
 10
0.0
 20
0.0
 30
0.0
 70
     1
  0
VERTEX
  5
3C9
  8
LAYER_1
 62
     1
 10
-215.7409
 20
23.654
 30
0.0
  0
VERTEX
  5
3CA
  8
LAYER_1
 62
     1
 10
-215.7409
 20
9.654
 30
0.0
  0
VERTEX
  5
3CB
  8
LAYER_1
 62
     1
 10
-201.7409
 20
9.654
 30
0.0
  0
VERTEX
  5
3CC
  8
LAYER_1
 62
     1
 10
-201.7409
 20
23.654
 30
0.0
  0
VERTEX
  5
3CD
  8
LAYER_1
 62
     1
 10
-215.7409
 20
23.654
 30
0.0
  0
SEQEND
  5
4F4
  8
LAYER_1
 62
     1
  0
POLYLINE
  5
AE
  8
LAYER_1
 62
     1
 66
     1
 10
0.0
 20
0.0
 30
0.0
 70
     1
  0
VERTEX
  5
3CE
  8
LAYER_1
 62
     1
 10
-196.6909
 20
23.654
 30
0.0
  0
VERTEX
  5
3CF
  8
LAYER_1
 62
     1
 10
-196.6909
 20
9.654
 30
0.0
  0
VERTEX
  5
3D0
  8
LAYER_1
 62
     1
 10
-182.6909
 20
9.654
 30
0.0
  0
VERTEX
  5
3D1
  8
LAYER_1
 62
     1
 10
-182.6909
 20
23.654
 30
0.0
  0
VERTEX
  5
3D2
  8
LAYER_1
 62
     1
 10
-196.6909
 20
23.654
 30
0.0
  0
SEQEND
  5
4F5
  8
LAYER_1
 62
     1
  0
POLYLINE
  5
AF
  8
LAYER_1
 62
     1
 66
     1
 10
0.0
 20
0.0
 30
0.0
 70
     1
  0
VERTEX
  5
3D3
  8
LAYER_1
 62
     1
 10
-177.6409
 20
23.654
 30
0.0
  0
VERTEX
  5
3D4
  8
LAYER_1
 62
     1
 10
-177.6409
 20
9.654
 30
0.0
  0
VERTEX
  5
3D5
  8
LAYER_1
 62
     1
 10
-163.6409
 20
9.654
 30
0.0
  0
VERTEX
  5
3D6
  8
LAYER_1
 62
     1
 10
-163.6409
 20
23.654
 30
0.0
  0
VERTEX
  5
3D7
  8
LAYER_1
 62
     1
 10
-177.6409
 20
23.654
 30
0.0
  0
SEQEND
  5
4F6
  8
LAYER_1
 62
     1
  0
POLYLINE
  5
B0
  8
LAYER_1
 62
     1
 66
     1
 10
0.0
 20
0.0
 30
0.0
 70
     1
  0
VERTEX
  5
3D8
  8
LAYER_1
 62
     1
 10
-158.5909
 20
23.654
 30
0.0
  0
VERTEX
  5
3D9
  8
LAYER_1
 62
     1
 10
-158.5909
 20
9.654
 30
0.0
  0
VERTEX
  5
3DA
  8
LAYER_1
 62
     1
 10
-144.5909
 20
9.654
 30
0.0
  0
VERTEX
  5
3DB
  8
LAYER_1
 62
     1
 10
-144.5909
 20
23.654
 30
0.0
  0
VERTEX
  5
3DC
  8
LAYER_1
 62
     1
 10
-158.5909
 20
23.654
 30
0.0
  0
SEQEND
  5
4F7
  8
LAYER_1
 62
     1
  0
POLYLINE
  5
B1
  8
LAYER_1
 62
     1
 66
     1
 10
0.0
 20
0.0
 30
0.0
 70
     1
  0
VERTEX
  5
3DD
  8
LAYER_1
 62
     1
 10
-139.5409
 20
23.654
 30
0.0
  0
VERTEX
  5
3DE
  8
LAYER_1
 62
     1
 10
-139.5409
 20
9.654
 30
0.0
  0
VERTEX
  5
3DF
  8
LAYER_1
 62
     1
 10
-125.5409
 20
9.654
 30
0.0
  0
VERTEX
  5
3E0
  8
LAYER_1
 62
     1
 10
-125.5409
 20
23.654
 30
0.0
  0
VERTEX
  5
3E1
  8
LAYER_1
 62
     1
 10
-139.5409
 20
23.654
 30
0.0
  0
SEQEND
  5
4F8
  8
LAYER_1
 62
     1
  0
POLYLINE
  5
B2
  8
LAYER_1
 62
     1
 66
     1
 10
0.0
 20
0.0
 30
0.0
 70
     1
  0
VERTEX
  5
3E2
  8
LAYER_1
 62
     1
 10
-120.4909
 20
23.654
 30
0.0
  0
VERTEX
  5
3E3
  8
LAYER_1
 62
     1
 10
-120.4909
 20
9.654
 30
0.0
  0
VERTEX
  5
3E4
  8
LAYER_1
 62
     1
 10
-106.4919
 20
9.654
 30
0.0
  0
VERTEX
  5
3E5
  8
LAYER_1
 62
     1
 10
-106.4919
 20
23.654
 30
0.0
  0
VERTEX
  5
3E6
  8
LAYER_1
 62
     1
 10
-120.4909
 20
23.654
 30
0.0
  0
SEQEND
  5
4F9
  8
LAYER_1
 62
     1
  0
POLYLINE
  5
B3
  8
LAYER_1
 62
     1
 66
     1
 10
0.0
 20
0.0
 30
0.0
 70
     1
  0
VERTEX
  5
3E7
  8
LAYER_1
 62
     1
 10
-72.8659
 20
23.654
 30
0.0
  0
VERTEX
  5
3E8
  8
LAYER_1
 62
     1
 10
-72.8659
 20
9.654
 30
0.0
  0
VERTEX
  5
3E9
  8
LAYER_1
 62
     1
 10
-58.8659
 20
9.654
 30
0.0
  0
VERTEX
  5
3EA
  8
LAYER_1
 62
     1
 10
-58.8659
 20
23.654
 30
0.0
  0
VERTEX
  5
3EB
  8
LAYER_1
 62
     1
 10
-72.8659
 20
23.654
 30
0.0
  0
SEQEND
  5
4FA
  8
LAYER_1
 62
     1
  0
POLYLINE
  5
B4
  8
LAYER_1
 62
     1
 66
     1
 10
0.0
 20
0.0
 30
0.0
 70
     1
  0
VERTEX
  5
3EC
  8
LAYER_1
 62
     1
 10
-53.8159
 20
23.654
 30
0.0
  0
VERTEX
  5
3ED
  8
LAYER_1
 62
     1
 10
-53.8159
 20
9.654
 30
0.0
  0
VERTEX
  5
3EE
  8
LAYER_1
 62
     1
 10
-39.8159
 20
9.654
 30
0.0
  0
VERTEX
  5
3EF
  8
LAYER_1
 62
     1
 10
-39.8159
 20
23.654
 30
0.0
  0
VERTEX
  5
3F0
  8
LAYER_1
 62
     1
 10
-53.8159
 20
23.654
 30
0.0
  0
SEQEND
  5
4FB
  8
LAYER_1
 62
     1
  0
POLYLINE
  5
B5
  8
LAYER_1
 62
     1
 66
     1
 10
0.0
 20
0.0
 30
0.0
 70
     1
  0
VERTEX
  5
3F1
  8
LAYER_1
 62
     1
 10
-34.7659
 20
23.654
 30
0.0
  0
VERTEX
  5
3F2
  8
LAYER_1
 62
     1
 10
-34.7659
 20
9.654
 30
0.0
  0
VERTEX
  5
3F3
  8
LAYER_1
 62
     1
 10
-20.7659
 20
9.654
 30
0.0
  0
VERTEX
  5
3F4
  8
LAYER_1
 62
     1
 10
-20.7659
 20
23.654
 30
0.0
  0
VERTEX
  5
3F5
  8
LAYER_1
 62
     1
 10
-34.7659
 20
23.654
 30
0.0
  0
SEQEND
  5
4FC
  8
LAYER_1
 62
     1
  0
POLYLINE
  5
B6
  8
LAYER_1
 62
     1
 66
     1
 10
0.0
 20
0.0
 30
0.0
 70
     1
  0
VERTEX
  5
3F6
  8
LAYER_1
 62
     1
 10
-110.9659
 20
42.704
 30
0.0
  0
VERTEX
  5
3F7
  8
LAYER_1
 62
     1
 10
-110.9659
 20
28.704
 30
0.0
  0
VERTEX
  5
3F8
  8
LAYER_1
 62
     1
 10
-107.9919
 20
28.704
 30
0.0
  0
VERTEX
  5
3F9
  8
LAYER_1
 62
     1
 10
-107.9919
 20
27.734
 30
0.0
  0
VERTEX
  5
3FA
  8
LAYER_1
 62
     1
 10
-104.6909
 20
27.734
 30
0.0
  0
VERTEX
  5
3FB
  8
LAYER_1
 62
     1
 10
-104.6909
 20
28.704
 30
0.0
  0
VERTEX
  5
3FC
  8
LAYER_1
 62
     1
 10
-84.1909
 20
28.704
 30
0.0
  0
VERTEX
  5
3FD
  8
LAYER_1
 62
     1
 10
-84.1909
 20
27.734
 30
0.0
  0
VERTEX
  5
3FE
  8
LAYER_1
 62
     1
 10
-80.8909
 20
27.734
 30
0.0
  0
VERTEX
  5
3FF
  8
LAYER_1
 62
     1
 10
-80.8909
 20
28.704
 30
0.0
  0
VERTEX
  5
400
  8
LAYER_1
 62
     1
 10
-77.9159
 20
28.704
 30
0.0
  0
VERTEX
  5
401
  8
LAYER_1
 62
     1
 10
-77.9159
 20
42.704
 30
0.0
  0
VERTEX
  5
402
  8
LAYER_1
 62
     1
 10
-110.9659
 20
42.704
 30
0.0
  0
SEQEND
  5
4FD
  8
LAYER_1
 62
     1
  0
POLYLINE
  5
B7
  8
LAYER_1
 62
     1
 66
     1
 10
0.0
 20
0.0
 30
0.0
 70
     1
  0
VERTEX
  5
403
  8
LAYER_1
 62
     1
 10
-358.6159
 20
42.704
 30
0.0
  0
VERTEX
  5
404
  8
LAYER_1
 62
     1
 10
-358.6159
 20
28.704
 30
0.0
  0
VERTEX
  5
405
  8
LAYER_1
 62
     1
 10
-344.6159
 20
28.704
 30
0.0
  0
VERTEX
  5
406
  8
LAYER_1
 62
     1
 10
-344.6159
 20
42.704
 30
0.0
  0
VERTEX
  5
407
  8
LAYER_1
 62
     1
 10
-358.6159
 20
42.704
 30
0.0
  0
SEQEND
  5
4FE
  8
LAYER_1
 62
     1
  0
POLYLINE
  5
B8
  8
LAYER_1
 62
     1
 66
     1
 10
0.0
 20
0.0
 30
0.0
 70
     1
  0
VERTEX
  5
408
  8
LAYER_1
 62
     1
 10
-339.5659
 20
42.704
 30
0.0
  0
VERTEX
  5
409
  8
LAYER_1
 62
     1
 10
-339.5659
 20
28.704
 30
0.0
  0
VERTEX
  5
40A
  8
LAYER_1
 62
     1
 10
-325.5659
 20
28.704
 30
0.0
  0
VERTEX
  5
40B
  8
LAYER_1
 62
     1
 10
-325.5659
 20
42.704
 30
0.0
  0
VERTEX
  5
40C
  8
LAYER_1
 62
     1
 10
-339.5659
 20
42.704
 30
0.0
  0
SEQEND
  5
4FF
  8
LAYER_1
 62
     1
  0
POLYLINE
  5
B9
  8
LAYER_1
 62
     1
 66
     1
 10
0.0
 20
0.0
 30
0.0
 70
     1
  0
VERTEX
  5
40D
  8
LAYER_1
 62
     1
 10
-320.5159
 20
42.704
 30
0.0
  0
VERTEX
  5
40E
  8
LAYER_1
 62
     1
 10
-320.5159
 20
28.704
 30
0.0
  0
VERTEX
  5
40F
  8
LAYER_1
 62
     1
 10
-306.5159
 20
28.704
 30
0.0
  0
VERTEX
  5
410
  8
LAYER_1
 62
     1
 10
-306.5159
 20
42.704
 30
0.0
  0
VERTEX
  5
411
  8
LAYER_1
 62
     1
 10
-320.5159
 20
42.704
 30
0.0
  0
SEQEND
  5
500
  8
LAYER_1
 62
     1
  0
POLYLINE
  5
BA
  8
LAYER_1
 62
     1
 66
     1
 10
0.0
 20
0.0
 30
0.0
 70
     1
  0
VERTEX
  5
412
  8
LAYER_1
 62
     1
 10
-301.4659
 20
42.704
 30
0.0
  0
VERTEX
  5
413
  8
LAYER_1
 62
     1
 10
-301.4659
 20
28.704
 30
0.0
  0
VERTEX
  5
414
  8
LAYER_1
 62
     1
 10
-287.4659
 20
28.704
 30
0.0
  0
VERTEX
  5
415
  8
LAYER_1
 62
     1
 10
-287.4659
 20
42.704
 30
0.0
  0
VERTEX
  5
416
  8
LAYER_1
 62
     1
 10
-301.4659
 20
42.704
 30
0.0
  0
SEQEND
  5
501
  8
LAYER_1
 62
     1
  0
POLYLINE
  5
BB
  8
LAYER_1
 62
     1
 66
     1
 10
0.0
 20
0.0
 30
0.0
 70
     1
  0
VERTEX
  5
417
  8
LAYER_1
 62
     1
 10
-282.4159
 20
42.704
 30
0.0
  0
VERTEX
  5
418
  8
LAYER_1
 62
     1
 10
-282.4159
 20
28.704
 30
0.0
  0
VERTEX
  5
419
  8
LAYER_1
 62
     1
 10
-268.4159
 20
28.704
 30
0.0
  0
VERTEX
  5
41A
  8
LAYER_1
 62
     1
 10
-268.4159
 20
42.704
 30
0.0
  0
VERTEX
  5
41B
  8
LAYER_1
 62
     1
 10
-282.4159
 20
42.704
 30
0.0
  0
SEQEND
  5
502
  8
LAYER_1
 62
     1
  0
POLYLINE
  5
BC
  8
LAYER_1
 62
     1
 66
     1
 10
0.0
 20
0.0
 30
0.0
 70
     1
  0
VERTEX
  5
41C
  8
LAYER_1
 62
     1
 10
-263.3669
 20
42.704
 30
0.0
  0
VERTEX
  5
41D
  8
LAYER_1
 62
     1
 10
-263.3669
 20
28.704
 30
0.0
  0
VERTEX
  5
41E
  8
LAYER_1
 62
     1
 10
-249.3669
 20
28.704
 30
0.0
  0
VERTEX
  5
41F
  8
LAYER_1
 62
     1
 10
-249.3669
 20
42.704
 30
0.0
  0
VERTEX
  5
420
  8
LAYER_1
 62
     1
 10
-263.3669
 20
42.704
 30
0.0
  0
SEQEND
  5
503
  8
LAYER_1
 62
     1
  0
POLYLINE
  5
BD
  8
LAYER_1
 62
     1
 66
     1
 10
0.0
 20
0.0
 30
0.0
 70
     1
  0
VERTEX
  5
421
  8
LAYER_1
 62
     1
 10
-244.3169
 20
42.704
 30
0.0
  0
VERTEX
  5
422
  8
LAYER_1
 62
     1
 10
-244.3169
 20
28.704
 30
0.0
  0
VERTEX
  5
423
  8
LAYER_1
 62
     1
 10
-230.3159
 20
28.704
 30
0.0
  0
VERTEX
  5
424
  8
LAYER_1
 62
     1
 10
-230.3159
 20
42.704
 30
0.0
  0
VERTEX
  5
425
  8
LAYER_1
 62
     1
 10
-244.3169
 20
42.704
 30
0.0
  0
SEQEND
  5
504
  8
LAYER_1
 62
     1
  0
POLYLINE
  5
BE
  8
LAYER_1
 62
     1
 66
     1
 10
0.0
 20
0.0
 30
0.0
 70
     1
  0
VERTEX
  5
426
  8
LAYER_1
 62
     1
 10
-225.2659
 20
42.704
 30
0.0
  0
VERTEX
  5
427
  8
LAYER_1
 62
     1
 10
-225.2659
 20
28.704
 30
0.0
  0
VERTEX
  5
428
  8
LAYER_1
 62
     1
 10
-211.2659
 20
28.704
 30
0.0
  0
VERTEX
  5
429
  8
LAYER_1
 62
     1
 10
-211.2659
 20
42.704
 30
0.0
  0
VERTEX
  5
42A
  8
LAYER_1
 62
     1
 10
-225.2659
 20
42.704
 30
0.0
  0
SEQEND
  5
505
  8
LAYER_1
 62
     1
  0
POLYLINE
  5
BF
  8
LAYER_1
 62
     1
 66
     1
 10
0.0
 20
0.0
 30
0.0
 70
     1
  0
VERTEX
  5
42B
  8
LAYER_1
 62
     1
 10
-206.2159
 20
42.704
 30
0.0
  0
VERTEX
  5
42C
  8
LAYER_1
 62
     1
 10
-206.2159
 20
28.704
 30
0.0
  0
VERTEX
  5
42D
  8
LAYER_1
 62
     1
 10
-192.2159
 20
28.704
 30
0.0
  0
VERTEX
  5
42E
  8
LAYER_1
 62
     1
 10
-192.2159
 20
42.704
 30
0.0
  0
VERTEX
  5
42F
  8
LAYER_1
 62
     1
 10
-206.2159
 20
42.704
 30
0.0
  0
SEQEND
  5
506
  8
LAYER_1
 62
     1
  0
POLYLINE
  5
C0
  8
LAYER_1
 62
     1
 66
     1
 10
0.0
 20
0.0
 30
0.0
 70
     1
  0
VERTEX
  5
430
  8
LAYER_1
 62
     1
 10
-187.1659
 20
42.704
 30
0.0
  0
VERTEX
  5
431
  8
LAYER_1
 62
     1
 10
-187.1659
 20
28.704
 30
0.0
  0
VERTEX
  5
432
  8
LAYER_1
 62
     1
 10
-173.1659
 20
28.704
 30
0.0
  0
VERTEX
  5
433
  8
LAYER_1
 62
     1
 10
-173.1659
 20
42.704
 30
0.0
  0
VERTEX
  5
434
  8
LAYER_1
 62
     1
 10
-187.1659
 20
42.704
 30
0.0
  0
SEQEND
  5
507
  8
LAYER_1
 62
     1
  0
POLYLINE
  5
C1
  8
LAYER_1
 62
     1
 66
     1
 10
0.0
 20
0.0
 30
0.0
 70
     1
  0
VERTEX
  5
435
  8
LAYER_1
 62
     1
 10
-168.1159
 20
42.704
 30
0.0
  0
VERTEX
  5
436
  8
LAYER_1
 62
     1
 10
-168.1159
 20
28.704
 30
0.0
  0
VERTEX
  5
437
  8
LAYER_1
 62
     1
 10
-154.1159
 20
28.704
 30
0.0
  0
VERTEX
  5
438
  8
LAYER_1
 62
     1
 10
-154.1159
 20
42.704
 30
0.0
  0
VERTEX
  5
439
  8
LAYER_1
 62
     1
 10
-168.1159
 20
42.704
 30
0.0
  0
SEQEND
  5
508
  8
LAYER_1
 62
     1
  0
POLYLINE
  5
C2
  8
LAYER_1
 62
     1
 66
     1
 10
0.0
 20
0.0
 30
0.0
 70
     1
  0
VERTEX
  5
43A
  8
LAYER_1
 62
     1
 10
-149.0659
 20
42.704
 30
0.0
  0
VERTEX
  5
43B
  8
LAYER_1
 62
     1
 10
-149.0659
 20
28.704
 30
0.0
  0
VERTEX
  5
43C
  8
LAYER_1
 62
     1
 10
-135.0659
 20
28.704
 30
0.0
  0
VERTEX
  5
43D
  8
LAYER_1
 62
     1
 10
-135.0659
 20
42.704
 30
0.0
  0
VERTEX
  5
43E
  8
LAYER_1
 62
     1
 10
-149.0659
 20
42.704
 30
0.0
  0
SEQEND
  5
509
  8
LAYER_1
 62
     1
  0
POLYLINE
  5
C3
  8
LAYER_1
 62
     1
 66
     1
 10
0.0
 20
0.0
 30
0.0
 70
     1
  0
VERTEX
  5
43F
  8
LAYER_1
 62
     1
 10
-130.0159
 20
42.704
 30
0.0
  0
VERTEX
  5
440
  8
LAYER_1
 62
     1
 10
-130.0159
 20
28.704
 30
0.0
  0
VERTEX
  5
441
  8
LAYER_1
 62
     1
 10
-116.0159
 20
28.704
 30
0.0
  0
VERTEX
  5
442
  8
LAYER_1
 62
     1
 10
-116.0159
 20
42.704
 30
0.0
  0
VERTEX
  5
443
  8
LAYER_1
 62
     1
 10
-130.0159
 20
42.704
 30
0.0
  0
SEQEND
  5
50A
  8
LAYER_1
 62
     1
  0
POLYLINE
  5
C4
  8
LAYER_1
 62
     1
 66
     1
 10
0.0
 20
0.0
 30
0.0
 70
     1
  0
VERTEX
  5
444
  8
LAYER_1
 62
     1
 10
-72.8659
 20
42.704
 30
0.0
  0
VERTEX
  5
445
  8
LAYER_1
 62
     1
 10
-72.8659
 20
28.704
 30
0.0
  0
VERTEX
  5
446
  8
LAYER_1
 62
     1
 10
-58.8659
 20
28.704
 30
0.0
  0
VERTEX
  5
447
  8
LAYER_1
 62
     1
 10
-58.8659
 20
42.704
 30
0.0
  0
VERTEX
  5
448
  8
LAYER_1
 62
     1
 10
-72.8659
 20
42.704
 30
0.0
  0
SEQEND
  5
50B
  8
LAYER_1
 62
     1
  0
POLYLINE
  5
C5
  8
LAYER_1
 62
     1
 66
     1
 10
0.0
 20
0.0
 30
0.0
 70
     1
  0
VERTEX
  5
449
  8
LAYER_1
 62
     1
 10
-53.8159
 20
42.704
 30
0.0
  0
VERTEX
  5
44A
  8
LAYER_1
 62
     1
 10
-53.8159
 20
28.704
 30
0.0
  0
VERTEX
  5
44B
  8
LAYER_1
 62
     1
 10
-39.8159
 20
28.704
 30
0.0
  0
VERTEX
  5
44C
  8
LAYER_1
 62
     1
 10
-39.8159
 20
42.704
 30
0.0
  0
VERTEX
  5
44D
  8
LAYER_1
 62
     1
 10
-53.8159
 20
42.704
 30
0.0
  0
SEQEND
  5
50C
  8
LAYER_1
 62
     1
  0
POLYLINE
  5
C6
  8
LAYER_1
 62
     1
 66
     1
 10
0.0
 20
0.0
 30
0.0
 70
     1
  0
VERTEX
  5
44E
  8
LAYER_1
 62
     1
 10
-34.7659
 20
42.704
 30
0.0
  0
VERTEX
  5
44F
  8
LAYER_1
 62
     1
 10
-34.7659
 20
28.704
 30
0.0
  0
VERTEX
  5
450
  8
LAYER_1
 62
     1
 10
-20.7659
 20
28.704
 30
0.0
  0
VERTEX
  5
451
  8
LAYER_1
 62
     1
 10
-20.7659
 20
42.704
 30
0.0
  0
VERTEX
  5
452
  8
LAYER_1
 62
     1
 10
-34.7659
 20
42.704
 30
0.0
  0
SEQEND
  5
50D
  8
LAYER_1
 62
     1
  0
POLYLINE
  5
C7
  8
LAYER_1
 62
     1
 66
     1
 10
0.0
 20
0.0
 30
0.0
 70
     1
  0
VERTEX
  5
453
  8
LAYER_1
 62
     1
 10
-15.7159
 20
42.704
 30
0.0
  0
VERTEX
  5
454
  8
LAYER_1
 62
     1
 10
-15.7159
 20
28.704
 30
0.0
  0
VERTEX
  5
455
  8
LAYER_1
 62
     1
 10
-1.7159
 20
28.704
 30
0.0
  0
VERTEX
  5
456
  8
LAYER_1
 62
     1
 10
-1.7159
 20
42.704
 30
0.0
  0
VERTEX
  5
457
  8
LAYER_1
 62
     1
 10
-15.7159
 20
42.704
 30
0.0
  0
SEQEND
  5
50E
  8
LAYER_1
 62
     1
  0
POLYLINE
  5
C8
  8
LAYER_1
 62
     1
 66
     1
 10
0.0
 20
0.0
 30
0.0
 70
     1
  0
VERTEX
  5
458
  8
LAYER_1
 62
     1
 10
-358.6159
 20
61.754
 30
0.0
  0
VERTEX
  5
459
  8
LAYER_1
 62
     1
 10
-358.6159
 20
47.754
 30
0.0
  0
VERTEX
  5
45A
  8
LAYER_1
 62
     1
 10
-344.6159
 20
47.754
 30
0.0
  0
VERTEX
  5
45B
  8
LAYER_1
 62
     1
 10
-344.6159
 20
61.754
 30
0.0
  0
VERTEX
  5
45C
  8
LAYER_1
 62
     1
 10
-358.6159
 20
61.754
 30
0.0
  0
SEQEND
  5
50F
  8
LAYER_1
 62
     1
  0
POLYLINE
  5
C9
  8
LAYER_1
 62
     1
 66
     1
 10
0.0
 20
0.0
 30
0.0
 70
     1
  0
VERTEX
  5
45D
  8
LAYER_1
 62
     1
 10
-339.5659
 20
61.754
 30
0.0
  0
VERTEX
  5
45E
  8
LAYER_1
 62
     1
 10
-339.5659
 20
47.754
 30
0.0
  0
VERTEX
  5
45F
  8
LAYER_1
 62
     1
 10
-325.5659
 20
47.754
 30
0.0
  0
VERTEX
  5
460
  8
LAYER_1
 62
     1
 10
-325.5659
 20
61.754
 30
0.0
  0
VERTEX
  5
461
  8
LAYER_1
 62
     1
 10
-339.5659
 20
61.754
 30
0.0
  0
SEQEND
  5
510
  8
LAYER_1
 62
     1
  0
POLYLINE
  5
CA
  8
LAYER_1
 62
     1
 66
     1
 10
0.0
 20
0.0
 30
0.0
 70
     1
  0
VERTEX
  5
462
  8
LAYER_1
 62
     1
 10
-320.5159
 20
61.754
 30
0.0
  0
VERTEX
  5
463
  8
LAYER_1
 62
     1
 10
-320.5159
 20
47.754
 30
0.0
  0
VERTEX
  5
464
  8
LAYER_1
 62
     1
 10
-306.5159
 20
47.754
 30
0.0
  0
VERTEX
  5
465
  8
LAYER_1
 62
     1
 10
-306.5159
 20
61.754
 30
0.0
  0
VERTEX
  5
466
  8
LAYER_1
 62
     1
 10
-320.5159
 20
61.754
 30
0.0
  0
SEQEND
  5
511
  8
LAYER_1
 62
     1
  0
POLYLINE
  5
CB
  8
LAYER_1
 62
     1
 66
     1
 10
0.0
 20
0.0
 30
0.0
 70
     1
  0
VERTEX
  5
467
  8
LAYER_1
 62
     1
 10
-301.4659
 20
61.754
 30
0.0
  0
VERTEX
  5
468
  8
LAYER_1
 62
     1
 10
-301.4659
 20
47.754
 30
0.0
  0
VERTEX
  5
469
  8
LAYER_1
 62
     1
 10
-287.4659
 20
47.754
 30
0.0
  0
VERTEX
  5
46A
  8
LAYER_1
 62
     1
 10
-287.4659
 20
61.754
 30
0.0
  0
VERTEX
  5
46B
  8
LAYER_1
 62
     1
 10
-301.4659
 20
61.754
 30
0.0
  0
SEQEND
  5
512
  8
LAYER_1
 62
     1
  0
POLYLINE
  5
CC
  8
LAYER_1
 62
     1
 66
     1
 10
0.0
 20
0.0
 30
0.0
 70
     1
  0
VERTEX
  5
46C
  8
LAYER_1
 62
     1
 10
-282.4159
 20
61.754
 30
0.0
  0
VERTEX
  5
46D
  8
LAYER_1
 62
     1
 10
-282.4159
 20
47.754
 30
0.0
  0
VERTEX
  5
46E
  8
LAYER_1
 62
     1
 10
-268.4159
 20
47.754
 30
0.0
  0
VERTEX
  5
46F
  8
LAYER_1
 62
     1
 10
-268.4159
 20
61.754
 30
0.0
  0
VERTEX
  5
470
  8
LAYER_1
 62
     1
 10
-282.4159
 20
61.754
 30
0.0
  0
SEQEND
  5
513
  8
LAYER_1
 62
     1
  0
POLYLINE
  5
CD
  8
LAYER_1
 62
     1
 66
     1
 10
0.0
 20
0.0
 30
0.0
 70
     1
  0
VERTEX
  5
471
  8
LAYER_1
 62
     1
 10
-263.3669
 20
61.754
 30
0.0
  0
VERTEX
  5
472
  8
LAYER_1
 62
     1
 10
-263.3669
 20
47.754
 30
0.0
  0
VERTEX
  5
473
  8
LAYER_1
 62
     1
 10
-249.3669
 20
47.754
 30
0.0
  0
VERTEX
  5
474
  8
LAYER_1
 62
     1
 10
-249.3669
 20
61.754
 30
0.0
  0
VERTEX
  5
475
  8
LAYER_1
 62
     1
 10
-263.3669
 20
61.754
 30
0.0
  0
SEQEND
  5
514
  8
LAYER_1
 62
     1
  0
POLYLINE
  5
CE
  8
LAYER_1
 62
     1
 66
     1
 10
0.0
 20
0.0
 30
0.0
 70
     1
  0
VERTEX
  5
476
  8
LAYER_1
 62
     1
 10
-244.3169
 20
61.754
 30
0.0
  0
VERTEX
  5
477
  8
LAYER_1
 62
     1
 10
-244.3169
 20
47.754
 30
0.0
  0
VERTEX
  5
478
  8
LAYER_1
 62
     1
 10
-230.3159
 20
47.754
 30
0.0
  0
VERTEX
  5
479
  8
LAYER_1
 62
     1
 10
-230.3159
 20
61.754
 30
0.0
  0
VERTEX
  5
47A
  8
LAYER_1
 62
     1
 10
-244.3169
 20
61.754
 30
0.0
  0
SEQEND
  5
515
  8
LAYER_1
 62
     1
  0
POLYLINE
  5
CF
  8
LAYER_1
 62
     1
 66
     1
 10
0.0
 20
0.0
 30
0.0
 70
     1
  0
VERTEX
  5
47B
  8
LAYER_1
 62
     1
 10
-225.2659
 20
61.754
 30
0.0
  0
VERTEX
  5
47C
  8
LAYER_1
 62
     1
 10
-225.2659
 20
47.754
 30
0.0
  0
VERTEX
  5
47D
  8
LAYER_1
 62
     1
 10
-211.2659
 20
47.754
 30
0.0
  0
VERTEX
  5
47E
  8
LAYER_1
 62
     1
 10
-211.2659
 20
61.754
 30
0.0
  0
VERTEX
  5
47F
  8
LAYER_1
 62
     1
 10
-225.2659
 20
61.754
 30
0.0
  0
SEQEND
  5
516
  8
LAYER_1
 62
     1
  0
POLYLINE
  5
D0
  8
LAYER_1
 62
     1
 66
     1
 10
0.0
 20
0.0
 30
0.0
 70
     1
  0
VERTEX
  5
480
  8
LAYER_1
 62
     1
 10
-206.2159
 20
61.754
 30
0.0
  0
VERTEX
  5
481
  8
LAYER_1
 62
     1
 10
-206.2159
 20
47.754
 30
0.0
  0
VERTEX
  5
482
  8
LAYER_1
 62
     1
 10
-192.2159
 20
47.754
 30
0.0
  0
VERTEX
  5
483
  8
LAYER_1
 62
     1
 10
-192.2159
 20
61.754
 30
0.0
  0
VERTEX
  5
484
  8
LAYER_1
 62
     1
 10
-206.2159
 20
61.754
 30
0.0
  0
SEQEND
  5
517
  8
LAYER_1
 62
     1
  0
POLYLINE
  5
D1
  8
LAYER_1
 62
     1
 66
     1
 10
0.0
 20
0.0
 30
0.0
 70
     1
  0
VERTEX
  5
485
  8
LAYER_1
 62
     1
 10
-187.1659
 20
61.754
 30
0.0
  0
VERTEX
  5
486
  8
LAYER_1
 62
     1
 10
-187.1659
 20
47.754
 30
0.0
  0
VERTEX
  5
487
  8
LAYER_1
 62
     1
 10
-173.1659
 20
47.754
 30
0.0
  0
VERTEX
  5
488
  8
LAYER_1
 62
     1
 10
-173.1659
 20
61.754
 30
0.0
  0
VERTEX
  5
489
  8
LAYER_1
 62
     1
 10
-187.1659
 20
61.754
 30
0.0
  0
SEQEND
  5
518
  8
LAYER_1
 62
     1
  0
POLYLINE
  5
D2
  8
LAYER_1
 62
     1
 66
     1
 10
0.0
 20
0.0
 30
0.0
 70
     1
  0
VERTEX
  5
48A
  8
LAYER_1
 62
     1
 10
-168.1159
 20
61.754
 30
0.0
  0
VERTEX
  5
48B
  8
LAYER_1
 62
     1
 10
-168.1159
 20
47.754
 30
0.0
  0
VERTEX
  5
48C
  8
LAYER_1
 62
     1
 10
-154.1159
 20
47.754
 30
0.0
  0
VERTEX
  5
48D
  8
LAYER_1
 62
     1
 10
-154.1159
 20
61.754
 30
0.0
  0
VERTEX
  5
48E
  8
LAYER_1
 62
     1
 10
-168.1159
 20
61.754
 30
0.0
  0
SEQEND
  5
519
  8
LAYER_1
 62
     1
  0
POLYLINE
  5
D3
  8
LAYER_1
 62
     1
 66
     1
 10
0.0
 20
0.0
 30
0.0
 70
     1
  0
VERTEX
  5
48F
  8
LAYER_1
 62
     1
 10
-149.0659
 20
61.754
 30
0.0
  0
VERTEX
  5
490
  8
LAYER_1
 62
     1
 10
-149.0659
 20
47.754
 30
0.0
  0
VERTEX
  5
491
  8
LAYER_1
 62
     1
 10
-135.0659
 20
47.754
 30
0.0
  0
VERTEX
  5
492
  8
LAYER_1
 62
     1
 10
-135.0659
 20
61.754
 30
0.0
  0
VERTEX
  5
493
  8
LAYER_1
 62
     1
 10
-149.0659
 20
61.754
 30
0.0
  0
SEQEND
  5
51A
  8
LAYER_1
 62
     1
  0
POLYLINE
  5
D4
  8
LAYER_1
 62
     1
 66
     1
 10
0.0
 20
0.0
 30
0.0
 70
     1
  0
VERTEX
  5
494
  8
LAYER_1
 62
     1
 10
-130.0159
 20
61.754
 30
0.0
  0
VERTEX
  5
495
  8
LAYER_1
 62
     1
 10
-130.0159
 20
47.754
 30
0.0
  0
VERTEX
  5
496
  8
LAYER_1
 62
     1
 10
-116.0159
 20
47.754
 30
0.0
  0
VERTEX
  5
497
  8
LAYER_1
 62
     1
 10
-116.0159
 20
61.754
 30
0.0
  0
VERTEX
  5
498
  8
LAYER_1
 62
     1
 10
-130.0159
 20
61.754
 30
0.0
  0
SEQEND
  5
51B
  8
LAYER_1
 62
     1
  0
POLYLINE
  5
D5
  8
LAYER_1
 62
     1
 66
     1
 10
0.0
 20
0.0
 30
0.0
 70
     1
  0
VERTEX
  5
499
  8
LAYER_1
 62
     1
 10
-110.9659
 20
61.754
 30
0.0
  0
VERTEX
  5
49A
  8
LAYER_1
 62
     1
 10
-110.9659
 20
47.754
 30
0.0
  0
VERTEX
  5
49B
  8
LAYER_1
 62
     1
 10
-96.9659
 20
47.754
 30
0.0
  0
VERTEX
  5
49C
  8
LAYER_1
 62
     1
 10
-96.9659
 20
61.754
 30
0.0
  0
VERTEX
  5
49D
  8
LAYER_1
 62
     1
 10
-110.9659
 20
61.754
 30
0.0
  0
SEQEND
  5
51C
  8
LAYER_1
 62
     1
  0
POLYLINE
  5
D6
  8
LAYER_1
 62
     1
 66
     1
 10
0.0
 20
0.0
 30
0.0
 70
     1
  0
VERTEX
  5
49E
  8
LAYER_1
 62
     1
 10
-91.9159
 20
61.754
 30
0.0
  0
VERTEX
  5
49F
  8
LAYER_1
 62
     1
 10
-91.9159
 20
47.754
 30
0.0
  0
VERTEX
  5
4A0
  8
LAYER_1
 62
     1
 10
-77.9159
 20
47.754
 30
0.0
  0
VERTEX
  5
4A1
  8
LAYER_1
 62
     1
 10
-77.9159
 20
61.754
 30
0.0
  0
VERTEX
  5
4A2
  8
LAYER_1
 62
     1
 10
-91.9159
 20
61.754
 30
0.0
  0
SEQEND
  5
51D
  8
LAYER_1
 62
     1
  0
POLYLINE
  5
D7
  8
LAYER_1
 62
     1
 66
     1
 10
0.0
 20
0.0
 30
0.0
 70
     1
  0
VERTEX
  5
4A3
  8
LAYER_1
 62
     1
 10
-72.8659
 20
61.754
 30
0.0
  0
VERTEX
  5
4A4
  8
LAYER_1
 62
     1
 10
-72.8659
 20
47.754
 30
0.0
  0
VERTEX
  5
4A5
  8
LAYER_1
 62
     1
 10
-58.8659
 20
47.754
 30
0.0
  0
VERTEX
  5
4A6
  8
LAYER_1
 62
     1
 10
-58.8659
 20
61.754
 30
0.0
  0
VERTEX
  5
4A7
  8
LAYER_1
 62
     1
 10
-72.8659
 20
61.754
 30
0.0
  0
SEQEND
  5
51E
  8
LAYER_1
 62
     1
  0
POLYLINE
  5
D8
  8
LAYER_1
 62
     1
 66
     1
 10
0.0
 20
0.0
 30
0.0
 70
     1
  0
VERTEX
  5
4A8
  8
LAYER_1
 62
     1
 10
-53.8159
 20
61.754
 30
0.0
  0
VERTEX
  5
4A9
  8
LAYER_1
 62
     1
 10
-53.8159
 20
47.754
 30
0.0
  0
VERTEX
  5
4AA
  8
LAYER_1
 62
     1
 10
-39.8159
 20
47.754
 30
0.0
  0
VERTEX
  5
4AB
  8
LAYER_1
 62
     1
 10
-39.8159
 20
61.754
 30
0.0
  0
VERTEX
  5
4AC
  8
LAYER_1
 62
     1
 10
-53.8159
 20
61.754
 30
0.0
  0
SEQEND
  5
51F
  8
LAYER_1
 62
     1
  0
POLYLINE
  5
D9
  8
LAYER_1
 62
     1
 66
     1
 10
0.0
 20
0.0
 30
0.0
 70
     1
  0
VERTEX
  5
4AD
  8
LAYER_1
 62
     1
 10
-34.7659
 20
61.754
 30
0.0
  0
VERTEX
  5
4AE
  8
LAYER_1
 62
     1
 10
-34.7659
 20
47.754
 30
0.0
  0
VERTEX
  5
4AF
  8
LAYER_1
 62
     1
 10
-20.7659
 20
47.754
 30
0.0
  0
VERTEX
  5
4B0
  8
LAYER_1
 62
     1
 10
-20.7659
 20
61.754
 30
0.0
  0
VERTEX
  5
4B1
  8
LAYER_1
 62
     1
 10
-34.7659
 20
61.754
 30
0.0
  0
SEQEND
  5
520
  8
LAYER_1
 62
     1
  0
POLYLINE
  5
DA
  8
LAYER_1
 62
     1
 66
     1
 10
0.0
 20
0.0
 30
0.0
 70
     1
  0
VERTEX
  5
4B2
  8
LAYER_1
 62
     1
 10
-15.7159
 20
61.754
 30
0.0
  0
VERTEX
  5
4B3
  8
LAYER_1
 62
     1
 10
-15.7159
 20
47.754
 30
0.0
  0
VERTEX
  5
4B4
  8
LAYER_1
 62
     1
 10
-1.7159
 20
47.754
 30
0.0
  0
VERTEX
  5
4B5
  8
LAYER_1
 62
     1
 10
-1.7159
 20
61.754
 30
0.0
  0
VERTEX
  5
4B6
  8
LAYER_1
 62
     1
 10
-15.7159
 20
61.754
 30
0.0
  0
SEQEND
  5
521
  8
LAYER_1
 62
     1
  0
ENDSEC
  0
EOF
