<?xml version="1.0" encoding="UTF-8"?>
<!DOCTYPE svg PUBLIC "-//W3C//DTD SVG 1.1//EN" "http://www.w3.org/Graphics/SVG/1.1/DTD/svg11.dtd">
<!-- Creator: CorelDRAW X8 -->
<svg xmlns="http://www.w3.org/2000/svg" xml:space="preserve" width="32in" height="20in" version="1.1" style="shape-rendering:geometricPrecision; text-rendering:geometricPrecision; image-rendering:optimizeQuality; fill-rule:evenodd; clip-rule:evenodd"
viewBox="0 0 32000 20000"
 xmlns:xlink="http://www.w3.org/1999/xlink">
 <defs>
  <style type="text/css">
   <![CDATA[
    .str0 {stroke:red;stroke-width:0.0354331}
    .fil0 {fill:none}
   ]]>
  </style>
 </defs>
 <g id="Layer_x0020_1">
  <metadata id="CorelCorpID_0Corel-Layer"/>
  <g id="_581874256">
   <polygon class="fil0 str0" points="5348,10512 5381,10455 5414,10398 5480,10398 5546,10398 5579,10455 5612,10512 5579,10569 5546,10626 5480,10626 5414,10626 5381,10569 "/>
   <path class="fil0 str0" d="M6546 10709l0 -118 332 -276 13169 0c109,0 197,88 197,197l0 5000c0,108 -88,197 -197,197l-14764 0c-108,0 -196,-89 -196,-197l0 -5000c0,-109 88,-197 196,-197l420 0 331 276 0 118"/>
   <polygon class="fil0 str0" points="8754,10512 8787,10455 8820,10398 8886,10398 8952,10398 8985,10455 9018,10512 8985,10569 8952,10626 8886,10626 8820,10626 8787,10569 "/>
   <polygon class="fil0 str0" points="12533,10512 12566,10455 12599,10398 12665,10398 12731,10398 12764,10455 12797,10512 12764,10569 12731,10626 12665,10626 12599,10626 12566,10569 "/>
   <polygon class="fil0 str0" points="16313,10512 16346,10455 16379,10398 16445,10398 16511,10398 16544,10455 16577,10512 16544,10569 16511,10626 16445,10626 16379,10626 16346,10569 "/>
   <polygon class="fil0 str0" points="19718,10512 19751,10455 19784,10398 19850,10398 19916,10398 19949,10455 19982,10512 19949,10569 19916,10626 19850,10626 19784,10626 19751,10569 "/>
   <polyline class="fil0 str0" points="6546,10709 19850,10709 19850,15315 5480,15315 5480,10709 6034,10709 "/>
   <polygon class="fil0 str0" points="19718,15512 19751,15455 19784,15398 19850,15398 19916,15398 19949,15455 19982,15512 19949,15569 19916,15626 19850,15626 19784,15626 19751,15569 "/>
   <polygon class="fil0 str0" points="16313,15512 16346,15455 16379,15398 16445,15398 16511,15398 16544,15455 16577,15512 16544,15569 16511,15626 16445,15626 16379,15626 16346,15569 "/>
   <polygon class="fil0 str0" points="12533,15512 12566,15455 12599,15398 12665,15398 12731,15398 12764,15455 12797,15512 12764,15569 12731,15626 12665,15626 12599,15626 12566,15569 "/>
   <polygon class="fil0 str0" points="8754,15512 8787,15455 8820,15398 8886,15398 8952,15398 8985,15455 9018,15512 8985,15569 8952,15626 8886,15626 8820,15626 8787,15569 "/>
   <polygon class="fil0 str0" points="5348,15512 5381,15455 5414,15398 5480,15398 5546,15398 5579,15455 5612,15512 5579,15569 5546,15626 5480,15626 5414,15626 5381,15569 "/>
  </g>
 </g>
</svg>
