  0
SECTION
  2
HEADER
  9
$ACADVER
  1
AC1009
  9
$DWGCODEPAGE
  3
ansi_1252
  9
$INSBASE
 10
0.0
 20
0.0
 30
0.0
  9
$EXTMIN
 10
-372.4543
 20
79.4335
 30
0.0
  9
$EXTMAX
 10
12.5467
 20
216.4345
 30
0.0
  9
$LIMMIN
 10
0.0
 20
0.0
  9
$LIMMAX
 10
12.0
 20
9.0
  9
$ORTHOMODE
 70
     0
  9
$REGENMODE
 70
     1
  9
$FILLMODE
 70
     1
  9
$QTEXTMODE
 70
     0
  9
$MIRRTEXT
 70
     1
  9
$DRAGMODE
 70
     2
  9
$LTSCALE
 40
1.0
  9
$OSMODE
 70
    37
  9
$ATTMODE
 70
     1
  9
$TEXTSIZE
 40
0.2
  9
$TRACEWID
 40
0.05
  9
$TEXTSTYLE
  7
STANDARD
  9
$CLAYER
  8
0
  9
$CELTYPE
  6
BYLAYER
  9
$CECOLOR
 62
   256
  9
$DIMSCALE
 40
1.0
  9
$DIMASZ
 40
0.18
  9
$DIMEXO
 40
0.0625
  9
$DIMDLI
 40
0.38
  9
$DIMRND
 40
0.0
  9
$DIMDLE
 40
0.0
  9
$DIMEXE
 40
0.18
  9
$DIMTP
 40
0.0
  9
$DIMTM
 40
0.0
  9
$DIMTXT
 40
0.18
  9
$DIMCEN
 40
0.09
  9
$DIMTSZ
 40
0.0
  9
$DIMTOL
 70
     0
  9
$DIMLIM
 70
     0
  9
$DIMTIH
 70
     1
  9
$DIMTOH
 70
     1
  9
$DIMSE1
 70
     0
  9
$DIMSE2
 70
     0
  9
$DIMTAD
 70
     0
  9
$DIMZIN
 70
     0
  9
$DIMBLK
  1

  9
$DIMASO
 70
     1
  9
$DIMSHO
 70
     1
  9
$DIMPOST
  1

  9
$DIMAPOST
  1

  9
$DIMALT
 70
     0
  9
$DIMALTD
 70
     2
  9
$DIMALTF
 40
25.4
  9
$DIMLFAC
 40
1.0
  9
$DIMTOFL
 70
     0
  9
$DIMTVP
 40
0.0
  9
$DIMTIX
 70
     0
  9
$DIMSOXD
 70
     0
  9
$DIMSAH
 70
     0
  9
$DIMBLK1
  1

  9
$DIMBLK2
  1

  9
$DIMSTYLE
  2
STANDARD
  9
$DIMCLRD
 70
     0
  9
$DIMCLRE
 70
     0
  9
$DIMCLRT
 70
     0
  9
$DIMTFAC
 40
1.0
  9
$DIMGAP
 40
0.09
  9
$LUNITS
 70
     2
  9
$LUPREC
 70
     4
  9
$SKETCHINC
 40
0.1
  9
$FILLETRAD
 40
0.5
  9
$AUNITS
 70
     0
  9
$AUPREC
 70
     0
  9
$MENU
  1
.
  9
$ELEVATION
 40
0.0
  9
$PELEVATION
 40
0.0
  9
$THICKNESS
 40
0.0
  9
$LIMCHECK
 70
     0
  9
$CHAMFERA
 40
0.0
  9
$CHAMFERB
 40
0.0
  9
$SKPOLY
 70
     0
  9
$TDCREATE
 40
2458327.562444665
  9
$TDUPDATE
 40
2458327.562444699
  9
$TDINDWG
 40
0.0000000116
  9
$TDUSRTIMER
 40
0.0000000116
  9
$USRTIMER
 70
     1
  9
$ANGBASE
 50
0.0
  9
$ANGDIR
 70
     0
  9
$PDMODE
 70
     0
  9
$PDSIZE
 40
0.0
  9
$PLINEWID
 40
0.0
  9
$COORDS
 70
     1
  9
$SPLFRAME
 70
     0
  9
$SPLINETYPE
 70
     6
  9
$SPLINESEGS
 70
     8
  9
$ATTDIA
 70
     0
  9
$ATTREQ
 70
     1
  9
$HANDLING
 70
     1
  9
$HANDSEED
  5
256
  9
$SURFTAB1
 70
     6
  9
$SURFTAB2
 70
     6
  9
$SURFTYPE
 70
     6
  9
$SURFU
 70
     6
  9
$SURFV
 70
     6
  9
$UCSNAME
  2

  9
$UCSORG
 10
0.0
 20
0.0
 30
0.0
  9
$UCSXDIR
 10
1.0
 20
0.0
 30
0.0
  9
$UCSYDIR
 10
0.0
 20
1.0
 30
0.0
  9
$PUCSNAME
  2

  9
$PUCSORG
 10
0.0
 20
0.0
 30
0.0
  9
$PUCSXDIR
 10
1.0
 20
0.0
 30
0.0
  9
$PUCSYDIR
 10
0.0
 20
1.0
 30
0.0
  9
$USERI1
 70
     0
  9
$USERI2
 70
     0
  9
$USERI3
 70
     0
  9
$USERI4
 70
     0
  9
$USERI5
 70
     0
  9
$USERR1
 40
0.0
  9
$USERR2
 40
0.0
  9
$USERR3
 40
0.0
  9
$USERR4
 40
0.0
  9
$USERR5
 40
0.0
  9
$WORLDVIEW
 70
     1
  9
$SHADEDGE
 70
     3
  9
$SHADEDIF
 70
    70
  9
$TILEMODE
 70
     1
  9
$MAXACTVP
 70
    64
  9
$PLIMCHECK
 70
     0
  9
$PEXTMIN
 10
1.000000000000000E+20
 20
1.000000000000000E+20
 30
1.000000000000000E+20
  9
$PEXTMAX
 10
-1.000000000000000E+20
 20
-1.000000000000000E+20
 30
-1.000000000000000E+20
  9
$PLIMMIN
 10
0.0
 20
0.0
  9
$PLIMMAX
 10
12.0
 20
9.0
  9
$UNITMODE
 70
     0
  9
$VISRETAIN
 70
     1
  9
$PLINEGEN
 70
     0
  9
$PSLTSCALE
 70
     1
  0
ENDSEC
  0
SECTION
  2
TABLES
  0
TABLE
  2
VPORT
 70
     1
  0
VPORT
  2
*ACTIVE
 70
     0
 10
0.0
 20
0.0
 11
1.0
 21
1.0
 12
10.42990654205607
 22
4.5
 13
0.0
 23
0.0
 14
0.5
 24
0.5
 15
0.5
 25
0.5
 16
0.0
 26
0.0
 36
1.0
 17
0.0
 27
0.0
 37
0.0
 40
9.0
 41
1.972972972850329
 42
50.0
 43
0.0
 44
0.0
 50
0.0
 51
0.0
 71
     0
 72
   100
 73
     1
 74
     3
 75
     0
 76
     0
 77
     0
 78
     0
  0
ENDTAB
  0
TABLE
  2
LTYPE
 70
     1
  0
LTYPE
  2
CONTINUOUS
 70
     0
  3
Solid line
 72
    65
 73
     0
 40
0.0
  0
ENDTAB
  0
TABLE
  2
LAYER
 70
     2
  0
LAYER
  2
0
 70
     0
 62
     7
  6
CONTINUOUS
  0
LAYER
  2
LAYER_1
 70
     0
 62
     7
  6
CONTINUOUS
  0
ENDTAB
  0
TABLE
  2
STYLE
 70
     1
  0
STYLE
  2
STANDARD
 70
     0
 40
0.0
 41
1.0
 50
0.0
 71
     0
 42
0.2
  3
txt
  4

  0
ENDTAB
  0
TABLE
  2
VIEW
 70
     0
  0
ENDTAB
  0
TABLE
  2
UCS
 70
     0
  0
ENDTAB
  0
TABLE
  2
APPID
 70
     2
  0
APPID
  2
ACAD
 70
     0
  0
APPID
  2
ODA
 70
     0
  0
ENDTAB
  0
TABLE
  2
DIMSTYLE
 70
     1
  0
DIMSTYLE
  2
STANDARD
 70
     0
  3

  4

  5

  6

  7

 40
1.0
 41
0.18
 42
0.0625
 43
0.38
 44
0.18
 45
0.0
 46
0.0
 47
0.0
 48
0.0
140
0.18
141
0.09
142
0.0
143
25.4
144
1.0
145
0.0
146
1.0
147
0.09
 71
     0
 72
     0
 73
     1
 74
     1
 75
     0
 76
     0
 77
     0
 78
     0
170
     0
171
     2
172
     0
173
     0
174
     0
175
     0
176
     0
177
     0
178
     0
  0
ENDTAB
  0
ENDSEC
  0
SECTION
  2
BLOCKS
  0
BLOCK
  8
0
  2
$MODEL_SPACE
 70
     0
 10
0.0
 20
0.0
 30
0.0
  3
$MODEL_SPACE
  1

  0
ENDBLK
  5
21
  8
0
  0
BLOCK
 67
     1
  8
0
  2
$PAPER_SPACE
 70
     0
 10
0.0
 20
0.0
 30
0.0
  3
$PAPER_SPACE
  1

  0
ENDBLK
  5
1D
 67
     1
  8
0
  0
ENDSEC
  0
SECTION
  2
ENTITIES
  0
POLYLINE
  5
70
  8
LAYER_1
 62
     1
 66
     1
 10
0.0
 20
0.0
 30
0.0
 70
     1
  0
VERTEX
  5
84
  8
LAYER_1
 62
     1
 10
-356.8064
 20
216.434
 30
0.0
  0
VERTEX
  5
85
  8
LAYER_1
 62
     1
 10
-348.3793
 20
209.4254
 30
0.0
  0
VERTEX
  5
86
  8
LAYER_1
 62
     1
 10
-348.3793
 20
197.5595
 30
0.0
  0
VERTEX
  5
87
  8
LAYER_1
 62
     1
 10
-348.3385
 20
197.1573
 30
0.0
  0
VERTEX
  5
88
  8
LAYER_1
 62
     1
 10
-348.2217
 20
196.7823
 30
0.0
  0
VERTEX
  5
89
  8
LAYER_1
 62
     1
 10
-348.0369
 20
196.4426
 30
0.0
  0
VERTEX
  5
8A
  8
LAYER_1
 62
     1
 10
-347.7924
 20
196.1464
 30
0.0
  0
VERTEX
  5
8B
  8
LAYER_1
 62
     1
 10
-347.4962
 20
195.9019
 30
0.0
  0
VERTEX
  5
8C
  8
LAYER_1
 62
     1
 10
-347.1565
 20
195.7171
 30
0.0
  0
VERTEX
  5
8D
  8
LAYER_1
 62
     1
 10
-346.7815
 20
195.6003
 30
0.0
  0
VERTEX
  5
8E
  8
LAYER_1
 62
     1
 10
-346.3793
 20
195.5595
 30
0.0
  0
VERTEX
  5
8F
  8
LAYER_1
 62
     1
 10
-337.3793
 20
195.5595
 30
0.0
  0
VERTEX
  5
90
  8
LAYER_1
 62
     1
 10
-336.9771
 20
195.6003
 30
0.0
  0
VERTEX
  5
91
  8
LAYER_1
 62
     1
 10
-336.6021
 20
195.7171
 30
0.0
  0
VERTEX
  5
92
  8
LAYER_1
 62
     1
 10
-336.2624
 20
195.9019
 30
0.0
  0
VERTEX
  5
93
  8
LAYER_1
 62
     1
 10
-335.9662
 20
196.1464
 30
0.0
  0
VERTEX
  5
94
  8
LAYER_1
 62
     1
 10
-335.7217
 20
196.4426
 30
0.0
  0
VERTEX
  5
95
  8
LAYER_1
 62
     1
 10
-335.5369
 20
196.7823
 30
0.0
  0
VERTEX
  5
96
  8
LAYER_1
 62
     1
 10
-335.4201
 20
197.1573
 30
0.0
  0
VERTEX
  5
97
  8
LAYER_1
 62
     1
 10
-335.3793
 20
197.5595
 30
0.0
  0
VERTEX
  5
98
  8
LAYER_1
 62
     1
 10
-335.3793
 20
209.4254
 30
0.0
  0
VERTEX
  5
99
  8
LAYER_1
 62
     1
 10
-326.9522
 20
216.434
 30
0.0
  0
VERTEX
  5
9A
  8
LAYER_1
 62
     1
 10
7.5463
 20
216.434
 30
0.0
  0
VERTEX
  5
9B
  8
LAYER_1
 62
     1
 10
8.5518
 20
216.3321
 30
0.0
  0
VERTEX
  5
9C
  8
LAYER_1
 62
     1
 10
9.4893
 20
216.04
 30
0.0
  0
VERTEX
  5
9D
  8
LAYER_1
 62
     1
 10
10.3385
 20
215.5781
 30
0.0
  0
VERTEX
  5
9E
  8
LAYER_1
 62
     1
 10
11.0789
 20
214.9667
 30
0.0
  0
VERTEX
  5
9F
  8
LAYER_1
 62
     1
 10
11.6903
 20
214.2262
 30
0.0
  0
VERTEX
  5
A0
  8
LAYER_1
 62
     1
 10
12.1522
 20
213.377
 30
0.0
  0
VERTEX
  5
A1
  8
LAYER_1
 62
     1
 10
12.4443
 20
212.4395
 30
0.0
  0
VERTEX
  5
A2
  8
LAYER_1
 62
     1
 10
12.5462
 20
211.434
 30
0.0
  0
VERTEX
  5
A3
  8
LAYER_1
 62
     1
 10
12.5462
 20
84.434
 30
0.0
  0
VERTEX
  5
A4
  8
LAYER_1
 62
     1
 10
12.4443
 20
83.4285
 30
0.0
  0
VERTEX
  5
A5
  8
LAYER_1
 62
     1
 10
12.1522
 20
82.491
 30
0.0
  0
VERTEX
  5
A6
  8
LAYER_1
 62
     1
 10
11.6903
 20
81.6418
 30
0.0
  0
VERTEX
  5
A7
  8
LAYER_1
 62
     1
 10
11.0789
 20
80.9013
 30
0.0
  0
VERTEX
  5
A8
  8
LAYER_1
 62
     1
 10
10.3385
 20
80.2899
 30
0.0
  0
VERTEX
  5
A9
  8
LAYER_1
 62
     1
 10
9.4893
 20
79.828
 30
0.0
  0
VERTEX
  5
AA
  8
LAYER_1
 62
     1
 10
8.5518
 20
79.5359
 30
0.0
  0
VERTEX
  5
AB
  8
LAYER_1
 62
     1
 10
7.5463
 20
79.434
 30
0.0
  0
VERTEX
  5
AC
  8
LAYER_1
 62
     1
 10
-367.4539
 20
79.434
 30
0.0
  0
VERTEX
  5
AD
  8
LAYER_1
 62
     1
 10
-368.4594
 20
79.5359
 30
0.0
  0
VERTEX
  5
AE
  8
LAYER_1
 62
     1
 10
-369.3969
 20
79.828
 30
0.0
  0
VERTEX
  5
AF
  8
LAYER_1
 62
     1
 10
-370.2461
 20
80.2899
 30
0.0
  0
VERTEX
  5
B0
  8
LAYER_1
 62
     1
 10
-370.9865
 20
80.9013
 30
0.0
  0
VERTEX
  5
B1
  8
LAYER_1
 62
     1
 10
-371.5979
 20
81.6418
 30
0.0
  0
VERTEX
  5
B2
  8
LAYER_1
 62
     1
 10
-372.0598
 20
82.491
 30
0.0
  0
VERTEX
  5
B3
  8
LAYER_1
 62
     1
 10
-372.3519
 20
83.4285
 30
0.0
  0
VERTEX
  5
B4
  8
LAYER_1
 62
     1
 10
-372.4538
 20
84.434
 30
0.0
  0
VERTEX
  5
B5
  8
LAYER_1
 62
     1
 10
-372.4538
 20
211.434
 30
0.0
  0
VERTEX
  5
B6
  8
LAYER_1
 62
     1
 10
-372.3519
 20
212.4395
 30
0.0
  0
VERTEX
  5
B7
  8
LAYER_1
 62
     1
 10
-372.0598
 20
213.377
 30
0.0
  0
VERTEX
  5
B8
  8
LAYER_1
 62
     1
 10
-371.5979
 20
214.2262
 30
0.0
  0
VERTEX
  5
B9
  8
LAYER_1
 62
     1
 10
-370.9865
 20
214.9667
 30
0.0
  0
VERTEX
  5
BA
  8
LAYER_1
 62
     1
 10
-370.2461
 20
215.5781
 30
0.0
  0
VERTEX
  5
BB
  8
LAYER_1
 62
     1
 10
-369.3969
 20
216.04
 30
0.0
  0
VERTEX
  5
BC
  8
LAYER_1
 62
     1
 10
-368.4594
 20
216.3321
 30
0.0
  0
VERTEX
  5
BD
  8
LAYER_1
 62
     1
 10
-367.4539
 20
216.434
 30
0.0
  0
VERTEX
  5
BE
  8
LAYER_1
 62
     1
 10
-356.8064
 20
216.434
 30
0.0
  0
SEQEND
  5
249
  8
LAYER_1
 62
     1
  0
POLYLINE
  5
71
  8
LAYER_1
 62
     1
 66
     1
 10
0.0
 20
0.0
 30
0.0
 70
     1
  0
VERTEX
  5
BF
  8
LAYER_1
 62
     1
 10
-362.4538
 20
214.0339
 30
0.0
  0
VERTEX
  5
C0
  8
LAYER_1
 62
     1
 10
-361.9298
 20
213.9811
 30
0.0
  0
VERTEX
  5
C1
  8
LAYER_1
 62
     1
 10
-361.4418
 20
213.8296
 30
0.0
  0
VERTEX
  5
C2
  8
LAYER_1
 62
     1
 10
-361.0001
 20
213.5899
 30
0.0
  0
VERTEX
  5
C3
  8
LAYER_1
 62
     1
 10
-360.6153
 20
213.2724
 30
0.0
  0
VERTEX
  5
C4
  8
LAYER_1
 62
     1
 10
-360.2978
 20
212.8876
 30
0.0
  0
VERTEX
  5
C5
  8
LAYER_1
 62
     1
 10
-360.0581
 20
212.4459
 30
0.0
  0
VERTEX
  5
C6
  8
LAYER_1
 62
     1
 10
-359.9066
 20
211.9579
 30
0.0
  0
VERTEX
  5
C7
  8
LAYER_1
 62
     1
 10
-359.8538
 20
211.4339
 30
0.0
  0
VERTEX
  5
C8
  8
LAYER_1
 62
     1
 10
-359.9066
 20
210.9099
 30
0.0
  0
VERTEX
  5
C9
  8
LAYER_1
 62
     1
 10
-360.0581
 20
210.4219
 30
0.0
  0
VERTEX
  5
CA
  8
LAYER_1
 62
     1
 10
-360.2978
 20
209.9802
 30
0.0
  0
VERTEX
  5
CB
  8
LAYER_1
 62
     1
 10
-360.6153
 20
209.5954
 30
0.0
  0
VERTEX
  5
CC
  8
LAYER_1
 62
     1
 10
-361.0001
 20
209.2779
 30
0.0
  0
VERTEX
  5
CD
  8
LAYER_1
 62
     1
 10
-361.4418
 20
209.0382
 30
0.0
  0
VERTEX
  5
CE
  8
LAYER_1
 62
     1
 10
-361.9298
 20
208.8867
 30
0.0
  0
VERTEX
  5
CF
  8
LAYER_1
 62
     1
 10
-362.4538
 20
208.8339
 30
0.0
  0
VERTEX
  5
D0
  8
LAYER_1
 62
     1
 10
-362.9778
 20
208.8867
 30
0.0
  0
VERTEX
  5
D1
  8
LAYER_1
 62
     1
 10
-363.4658
 20
209.0382
 30
0.0
  0
VERTEX
  5
D2
  8
LAYER_1
 62
     1
 10
-363.9075
 20
209.2779
 30
0.0
  0
VERTEX
  5
D3
  8
LAYER_1
 62
     1
 10
-364.2923
 20
209.5954
 30
0.0
  0
VERTEX
  5
D4
  8
LAYER_1
 62
     1
 10
-364.6098
 20
209.9802
 30
0.0
  0
VERTEX
  5
D5
  8
LAYER_1
 62
     1
 10
-364.8495
 20
210.4219
 30
0.0
  0
VERTEX
  5
D6
  8
LAYER_1
 62
     1
 10
-365.001
 20
210.9099
 30
0.0
  0
VERTEX
  5
D7
  8
LAYER_1
 62
     1
 10
-365.0538
 20
211.4339
 30
0.0
  0
VERTEX
  5
D8
  8
LAYER_1
 62
     1
 10
-365.001
 20
211.9579
 30
0.0
  0
VERTEX
  5
D9
  8
LAYER_1
 62
     1
 10
-364.8495
 20
212.4459
 30
0.0
  0
VERTEX
  5
DA
  8
LAYER_1
 62
     1
 10
-364.6098
 20
212.8876
 30
0.0
  0
VERTEX
  5
DB
  8
LAYER_1
 62
     1
 10
-364.2923
 20
213.2724
 30
0.0
  0
VERTEX
  5
DC
  8
LAYER_1
 62
     1
 10
-363.9075
 20
213.5899
 30
0.0
  0
VERTEX
  5
DD
  8
LAYER_1
 62
     1
 10
-363.4658
 20
213.8296
 30
0.0
  0
VERTEX
  5
DE
  8
LAYER_1
 62
     1
 10
-362.9778
 20
213.9811
 30
0.0
  0
VERTEX
  5
DF
  8
LAYER_1
 62
     1
 10
-362.4538
 20
214.0339
 30
0.0
  0
SEQEND
  5
24A
  8
LAYER_1
 62
     1
  0
POLYLINE
  5
72
  8
LAYER_1
 62
     1
 66
     1
 10
0.0
 20
0.0
 30
0.0
 70
     1
  0
VERTEX
  5
E0
  8
LAYER_1
 62
     1
 10
-275.9537
 20
214.0339
 30
0.0
  0
VERTEX
  5
E1
  8
LAYER_1
 62
     1
 10
-275.4297
 20
213.9811
 30
0.0
  0
VERTEX
  5
E2
  8
LAYER_1
 62
     1
 10
-274.9417
 20
213.8296
 30
0.0
  0
VERTEX
  5
E3
  8
LAYER_1
 62
     1
 10
-274.5
 20
213.5899
 30
0.0
  0
VERTEX
  5
E4
  8
LAYER_1
 62
     1
 10
-274.1152
 20
213.2724
 30
0.0
  0
VERTEX
  5
E5
  8
LAYER_1
 62
     1
 10
-273.7977
 20
212.8876
 30
0.0
  0
VERTEX
  5
E6
  8
LAYER_1
 62
     1
 10
-273.558
 20
212.4459
 30
0.0
  0
VERTEX
  5
E7
  8
LAYER_1
 62
     1
 10
-273.4065
 20
211.9579
 30
0.0
  0
VERTEX
  5
E8
  8
LAYER_1
 62
     1
 10
-273.3537
 20
211.4339
 30
0.0
  0
VERTEX
  5
E9
  8
LAYER_1
 62
     1
 10
-273.4065
 20
210.9099
 30
0.0
  0
VERTEX
  5
EA
  8
LAYER_1
 62
     1
 10
-273.558
 20
210.4219
 30
0.0
  0
VERTEX
  5
EB
  8
LAYER_1
 62
     1
 10
-273.7977
 20
209.9802
 30
0.0
  0
VERTEX
  5
EC
  8
LAYER_1
 62
     1
 10
-274.1152
 20
209.5954
 30
0.0
  0
VERTEX
  5
ED
  8
LAYER_1
 62
     1
 10
-274.5
 20
209.2779
 30
0.0
  0
VERTEX
  5
EE
  8
LAYER_1
 62
     1
 10
-274.9417
 20
209.0382
 30
0.0
  0
VERTEX
  5
EF
  8
LAYER_1
 62
     1
 10
-275.4297
 20
208.8867
 30
0.0
  0
VERTEX
  5
F0
  8
LAYER_1
 62
     1
 10
-275.9537
 20
208.8339
 30
0.0
  0
VERTEX
  5
F1
  8
LAYER_1
 62
     1
 10
-276.4777
 20
208.8867
 30
0.0
  0
VERTEX
  5
F2
  8
LAYER_1
 62
     1
 10
-276.9657
 20
209.0382
 30
0.0
  0
VERTEX
  5
F3
  8
LAYER_1
 62
     1
 10
-277.4074
 20
209.2779
 30
0.0
  0
VERTEX
  5
F4
  8
LAYER_1
 62
     1
 10
-277.7922
 20
209.5954
 30
0.0
  0
VERTEX
  5
F5
  8
LAYER_1
 62
     1
 10
-278.1097
 20
209.9802
 30
0.0
  0
VERTEX
  5
F6
  8
LAYER_1
 62
     1
 10
-278.3494
 20
210.4219
 30
0.0
  0
VERTEX
  5
F7
  8
LAYER_1
 62
     1
 10
-278.5009
 20
210.9099
 30
0.0
  0
VERTEX
  5
F8
  8
LAYER_1
 62
     1
 10
-278.5537
 20
211.4339
 30
0.0
  0
VERTEX
  5
F9
  8
LAYER_1
 62
     1
 10
-278.5009
 20
211.9579
 30
0.0
  0
VERTEX
  5
FA
  8
LAYER_1
 62
     1
 10
-278.3494
 20
212.4459
 30
0.0
  0
VERTEX
  5
FB
  8
LAYER_1
 62
     1
 10
-278.1097
 20
212.8876
 30
0.0
  0
VERTEX
  5
FC
  8
LAYER_1
 62
     1
 10
-277.7922
 20
213.2724
 30
0.0
  0
VERTEX
  5
FD
  8
LAYER_1
 62
     1
 10
-277.4074
 20
213.5899
 30
0.0
  0
VERTEX
  5
FE
  8
LAYER_1
 62
     1
 10
-276.9657
 20
213.8296
 30
0.0
  0
VERTEX
  5
FF
  8
LAYER_1
 62
     1
 10
-276.4777
 20
213.9811
 30
0.0
  0
VERTEX
  5
100
  8
LAYER_1
 62
     1
 10
-275.9537
 20
214.0339
 30
0.0
  0
SEQEND
  5
24B
  8
LAYER_1
 62
     1
  0
POLYLINE
  5
73
  8
LAYER_1
 62
     1
 66
     1
 10
0.0
 20
0.0
 30
0.0
 70
     1
  0
VERTEX
  5
101
  8
LAYER_1
 62
     1
 10
-179.9538
 20
214.0339
 30
0.0
  0
VERTEX
  5
102
  8
LAYER_1
 62
     1
 10
-179.4298
 20
213.9811
 30
0.0
  0
VERTEX
  5
103
  8
LAYER_1
 62
     1
 10
-178.9418
 20
213.8296
 30
0.0
  0
VERTEX
  5
104
  8
LAYER_1
 62
     1
 10
-178.5001
 20
213.5899
 30
0.0
  0
VERTEX
  5
105
  8
LAYER_1
 62
     1
 10
-178.1153
 20
213.2724
 30
0.0
  0
VERTEX
  5
106
  8
LAYER_1
 62
     1
 10
-177.7978
 20
212.8876
 30
0.0
  0
VERTEX
  5
107
  8
LAYER_1
 62
     1
 10
-177.5581
 20
212.4459
 30
0.0
  0
VERTEX
  5
108
  8
LAYER_1
 62
     1
 10
-177.4066
 20
211.9579
 30
0.0
  0
VERTEX
  5
109
  8
LAYER_1
 62
     1
 10
-177.3538
 20
211.4339
 30
0.0
  0
VERTEX
  5
10A
  8
LAYER_1
 62
     1
 10
-177.4066
 20
210.9099
 30
0.0
  0
VERTEX
  5
10B
  8
LAYER_1
 62
     1
 10
-177.5581
 20
210.4219
 30
0.0
  0
VERTEX
  5
10C
  8
LAYER_1
 62
     1
 10
-177.7978
 20
209.9802
 30
0.0
  0
VERTEX
  5
10D
  8
LAYER_1
 62
     1
 10
-178.1153
 20
209.5954
 30
0.0
  0
VERTEX
  5
10E
  8
LAYER_1
 62
     1
 10
-178.5001
 20
209.2779
 30
0.0
  0
VERTEX
  5
10F
  8
LAYER_1
 62
     1
 10
-178.9418
 20
209.0382
 30
0.0
  0
VERTEX
  5
110
  8
LAYER_1
 62
     1
 10
-179.4298
 20
208.8867
 30
0.0
  0
VERTEX
  5
111
  8
LAYER_1
 62
     1
 10
-179.9538
 20
208.8339
 30
0.0
  0
VERTEX
  5
112
  8
LAYER_1
 62
     1
 10
-180.4778
 20
208.8867
 30
0.0
  0
VERTEX
  5
113
  8
LAYER_1
 62
     1
 10
-180.9658
 20
209.0382
 30
0.0
  0
VERTEX
  5
114
  8
LAYER_1
 62
     1
 10
-181.4075
 20
209.2779
 30
0.0
  0
VERTEX
  5
115
  8
LAYER_1
 62
     1
 10
-181.7923
 20
209.5954
 30
0.0
  0
VERTEX
  5
116
  8
LAYER_1
 62
     1
 10
-182.1098
 20
209.9802
 30
0.0
  0
VERTEX
  5
117
  8
LAYER_1
 62
     1
 10
-182.3495
 20
210.4219
 30
0.0
  0
VERTEX
  5
118
  8
LAYER_1
 62
     1
 10
-182.501
 20
210.9099
 30
0.0
  0
VERTEX
  5
119
  8
LAYER_1
 62
     1
 10
-182.5538
 20
211.4339
 30
0.0
  0
VERTEX
  5
11A
  8
LAYER_1
 62
     1
 10
-182.501
 20
211.9579
 30
0.0
  0
VERTEX
  5
11B
  8
LAYER_1
 62
     1
 10
-182.3495
 20
212.4459
 30
0.0
  0
VERTEX
  5
11C
  8
LAYER_1
 62
     1
 10
-182.1098
 20
212.8876
 30
0.0
  0
VERTEX
  5
11D
  8
LAYER_1
 62
     1
 10
-181.7923
 20
213.2724
 30
0.0
  0
VERTEX
  5
11E
  8
LAYER_1
 62
     1
 10
-181.4075
 20
213.5899
 30
0.0
  0
VERTEX
  5
11F
  8
LAYER_1
 62
     1
 10
-180.9658
 20
213.8296
 30
0.0
  0
VERTEX
  5
120
  8
LAYER_1
 62
     1
 10
-180.4778
 20
213.9811
 30
0.0
  0
VERTEX
  5
121
  8
LAYER_1
 62
     1
 10
-179.9538
 20
214.0339
 30
0.0
  0
SEQEND
  5
24C
  8
LAYER_1
 62
     1
  0
POLYLINE
  5
74
  8
LAYER_1
 62
     1
 66
     1
 10
0.0
 20
0.0
 30
0.0
 70
     1
  0
VERTEX
  5
122
  8
LAYER_1
 62
     1
 10
-83.9538
 20
214.0339
 30
0.0
  0
VERTEX
  5
123
  8
LAYER_1
 62
     1
 10
-83.4298
 20
213.9811
 30
0.0
  0
VERTEX
  5
124
  8
LAYER_1
 62
     1
 10
-82.9418
 20
213.8296
 30
0.0
  0
VERTEX
  5
125
  8
LAYER_1
 62
     1
 10
-82.5001
 20
213.5899
 30
0.0
  0
VERTEX
  5
126
  8
LAYER_1
 62
     1
 10
-82.1153
 20
213.2724
 30
0.0
  0
VERTEX
  5
127
  8
LAYER_1
 62
     1
 10
-81.7978
 20
212.8876
 30
0.0
  0
VERTEX
  5
128
  8
LAYER_1
 62
     1
 10
-81.5581
 20
212.4459
 30
0.0
  0
VERTEX
  5
129
  8
LAYER_1
 62
     1
 10
-81.4066
 20
211.9579
 30
0.0
  0
VERTEX
  5
12A
  8
LAYER_1
 62
     1
 10
-81.3538
 20
211.4339
 30
0.0
  0
VERTEX
  5
12B
  8
LAYER_1
 62
     1
 10
-81.4066
 20
210.9099
 30
0.0
  0
VERTEX
  5
12C
  8
LAYER_1
 62
     1
 10
-81.5581
 20
210.4219
 30
0.0
  0
VERTEX
  5
12D
  8
LAYER_1
 62
     1
 10
-81.7978
 20
209.9802
 30
0.0
  0
VERTEX
  5
12E
  8
LAYER_1
 62
     1
 10
-82.1153
 20
209.5954
 30
0.0
  0
VERTEX
  5
12F
  8
LAYER_1
 62
     1
 10
-82.5001
 20
209.2779
 30
0.0
  0
VERTEX
  5
130
  8
LAYER_1
 62
     1
 10
-82.9418
 20
209.0382
 30
0.0
  0
VERTEX
  5
131
  8
LAYER_1
 62
     1
 10
-83.4298
 20
208.8867
 30
0.0
  0
VERTEX
  5
132
  8
LAYER_1
 62
     1
 10
-83.9538
 20
208.8339
 30
0.0
  0
VERTEX
  5
133
  8
LAYER_1
 62
     1
 10
-84.4778
 20
208.8867
 30
0.0
  0
VERTEX
  5
134
  8
LAYER_1
 62
     1
 10
-84.9658
 20
209.0382
 30
0.0
  0
VERTEX
  5
135
  8
LAYER_1
 62
     1
 10
-85.4075
 20
209.2779
 30
0.0
  0
VERTEX
  5
136
  8
LAYER_1
 62
     1
 10
-85.7923
 20
209.5954
 30
0.0
  0
VERTEX
  5
137
  8
LAYER_1
 62
     1
 10
-86.1098
 20
209.9802
 30
0.0
  0
VERTEX
  5
138
  8
LAYER_1
 62
     1
 10
-86.3495
 20
210.4219
 30
0.0
  0
VERTEX
  5
139
  8
LAYER_1
 62
     1
 10
-86.501
 20
210.9099
 30
0.0
  0
VERTEX
  5
13A
  8
LAYER_1
 62
     1
 10
-86.5538
 20
211.4339
 30
0.0
  0
VERTEX
  5
13B
  8
LAYER_1
 62
     1
 10
-86.501
 20
211.9579
 30
0.0
  0
VERTEX
  5
13C
  8
LAYER_1
 62
     1
 10
-86.3495
 20
212.4459
 30
0.0
  0
VERTEX
  5
13D
  8
LAYER_1
 62
     1
 10
-86.1098
 20
212.8876
 30
0.0
  0
VERTEX
  5
13E
  8
LAYER_1
 62
     1
 10
-85.7923
 20
213.2724
 30
0.0
  0
VERTEX
  5
13F
  8
LAYER_1
 62
     1
 10
-85.4075
 20
213.5899
 30
0.0
  0
VERTEX
  5
140
  8
LAYER_1
 62
     1
 10
-84.9658
 20
213.8296
 30
0.0
  0
VERTEX
  5
141
  8
LAYER_1
 62
     1
 10
-84.4778
 20
213.9811
 30
0.0
  0
VERTEX
  5
142
  8
LAYER_1
 62
     1
 10
-83.9538
 20
214.0339
 30
0.0
  0
SEQEND
  5
24D
  8
LAYER_1
 62
     1
  0
POLYLINE
  5
75
  8
LAYER_1
 62
     1
 66
     1
 10
0.0
 20
0.0
 30
0.0
 70
     1
  0
VERTEX
  5
143
  8
LAYER_1
 62
     1
 10
2.5462
 20
214.0339
 30
0.0
  0
VERTEX
  5
144
  8
LAYER_1
 62
     1
 10
3.0702
 20
213.9811
 30
0.0
  0
VERTEX
  5
145
  8
LAYER_1
 62
     1
 10
3.5582
 20
213.8296
 30
0.0
  0
VERTEX
  5
146
  8
LAYER_1
 62
     1
 10
3.9999
 20
213.5899
 30
0.0
  0
VERTEX
  5
147
  8
LAYER_1
 62
     1
 10
4.3847
 20
213.2724
 30
0.0
  0
VERTEX
  5
148
  8
LAYER_1
 62
     1
 10
4.7022
 20
212.8876
 30
0.0
  0
VERTEX
  5
149
  8
LAYER_1
 62
     1
 10
4.9419
 20
212.4459
 30
0.0
  0
VERTEX
  5
14A
  8
LAYER_1
 62
     1
 10
5.0934
 20
211.9579
 30
0.0
  0
VERTEX
  5
14B
  8
LAYER_1
 62
     1
 10
5.1462
 20
211.4339
 30
0.0
  0
VERTEX
  5
14C
  8
LAYER_1
 62
     1
 10
5.0934
 20
210.9099
 30
0.0
  0
VERTEX
  5
14D
  8
LAYER_1
 62
     1
 10
4.9419
 20
210.4219
 30
0.0
  0
VERTEX
  5
14E
  8
LAYER_1
 62
     1
 10
4.7022
 20
209.9802
 30
0.0
  0
VERTEX
  5
14F
  8
LAYER_1
 62
     1
 10
4.3847
 20
209.5954
 30
0.0
  0
VERTEX
  5
150
  8
LAYER_1
 62
     1
 10
3.9999
 20
209.2779
 30
0.0
  0
VERTEX
  5
151
  8
LAYER_1
 62
     1
 10
3.5582
 20
209.0382
 30
0.0
  0
VERTEX
  5
152
  8
LAYER_1
 62
     1
 10
3.0702
 20
208.8867
 30
0.0
  0
VERTEX
  5
153
  8
LAYER_1
 62
     1
 10
2.5462
 20
208.8339
 30
0.0
  0
VERTEX
  5
154
  8
LAYER_1
 62
     1
 10
2.0222
 20
208.8867
 30
0.0
  0
VERTEX
  5
155
  8
LAYER_1
 62
     1
 10
1.5342
 20
209.0382
 30
0.0
  0
VERTEX
  5
156
  8
LAYER_1
 62
     1
 10
1.0925
 20
209.2779
 30
0.0
  0
VERTEX
  5
157
  8
LAYER_1
 62
     1
 10
0.7077
 20
209.5954
 30
0.0
  0
VERTEX
  5
158
  8
LAYER_1
 62
     1
 10
0.3902
 20
209.9802
 30
0.0
  0
VERTEX
  5
159
  8
LAYER_1
 62
     1
 10
0.1505
 20
210.4219
 30
0.0
  0
VERTEX
  5
15A
  8
LAYER_1
 62
     1
 10
-0.001
 20
210.9099
 30
0.0
  0
VERTEX
  5
15B
  8
LAYER_1
 62
     1
 10
-0.0538
 20
211.4339
 30
0.0
  0
VERTEX
  5
15C
  8
LAYER_1
 62
     1
 10
-0.001
 20
211.9579
 30
0.0
  0
VERTEX
  5
15D
  8
LAYER_1
 62
     1
 10
0.1505
 20
212.4459
 30
0.0
  0
VERTEX
  5
15E
  8
LAYER_1
 62
     1
 10
0.3902
 20
212.8876
 30
0.0
  0
VERTEX
  5
15F
  8
LAYER_1
 62
     1
 10
0.7077
 20
213.2724
 30
0.0
  0
VERTEX
  5
160
  8
LAYER_1
 62
     1
 10
1.0925
 20
213.5899
 30
0.0
  0
VERTEX
  5
161
  8
LAYER_1
 62
     1
 10
1.5342
 20
213.8296
 30
0.0
  0
VERTEX
  5
162
  8
LAYER_1
 62
     1
 10
2.0222
 20
213.9811
 30
0.0
  0
VERTEX
  5
163
  8
LAYER_1
 62
     1
 10
2.5462
 20
214.0339
 30
0.0
  0
SEQEND
  5
24E
  8
LAYER_1
 62
     1
  0
POLYLINE
  5
76
  8
LAYER_1
 62
     1
 66
     1
 10
0.0
 20
0.0
 30
0.0
 70
     1
  0
VERTEX
  5
164
  8
LAYER_1
 62
     1
 10
-362.4538
 20
87.0339
 30
0.0
  0
VERTEX
  5
165
  8
LAYER_1
 62
     1
 10
-361.9298
 20
86.9811
 30
0.0
  0
VERTEX
  5
166
  8
LAYER_1
 62
     1
 10
-361.4418
 20
86.8296
 30
0.0
  0
VERTEX
  5
167
  8
LAYER_1
 62
     1
 10
-361.0001
 20
86.5899
 30
0.0
  0
VERTEX
  5
168
  8
LAYER_1
 62
     1
 10
-360.6153
 20
86.2724
 30
0.0
  0
VERTEX
  5
169
  8
LAYER_1
 62
     1
 10
-360.2978
 20
85.8876
 30
0.0
  0
VERTEX
  5
16A
  8
LAYER_1
 62
     1
 10
-360.0581
 20
85.4459
 30
0.0
  0
VERTEX
  5
16B
  8
LAYER_1
 62
     1
 10
-359.9066
 20
84.9579
 30
0.0
  0
VERTEX
  5
16C
  8
LAYER_1
 62
     1
 10
-359.8538
 20
84.4339
 30
0.0
  0
VERTEX
  5
16D
  8
LAYER_1
 62
     1
 10
-359.9066
 20
83.9099
 30
0.0
  0
VERTEX
  5
16E
  8
LAYER_1
 62
     1
 10
-360.0581
 20
83.4219
 30
0.0
  0
VERTEX
  5
16F
  8
LAYER_1
 62
     1
 10
-360.2978
 20
82.9802
 30
0.0
  0
VERTEX
  5
170
  8
LAYER_1
 62
     1
 10
-360.6153
 20
82.5954
 30
0.0
  0
VERTEX
  5
171
  8
LAYER_1
 62
     1
 10
-361.0001
 20
82.2779
 30
0.0
  0
VERTEX
  5
172
  8
LAYER_1
 62
     1
 10
-361.4418
 20
82.0382
 30
0.0
  0
VERTEX
  5
173
  8
LAYER_1
 62
     1
 10
-361.9298
 20
81.8867
 30
0.0
  0
VERTEX
  5
174
  8
LAYER_1
 62
     1
 10
-362.4538
 20
81.8339
 30
0.0
  0
VERTEX
  5
175
  8
LAYER_1
 62
     1
 10
-362.9778
 20
81.8867
 30
0.0
  0
VERTEX
  5
176
  8
LAYER_1
 62
     1
 10
-363.4658
 20
82.0382
 30
0.0
  0
VERTEX
  5
177
  8
LAYER_1
 62
     1
 10
-363.9075
 20
82.2779
 30
0.0
  0
VERTEX
  5
178
  8
LAYER_1
 62
     1
 10
-364.2923
 20
82.5954
 30
0.0
  0
VERTEX
  5
179
  8
LAYER_1
 62
     1
 10
-364.6098
 20
82.9802
 30
0.0
  0
VERTEX
  5
17A
  8
LAYER_1
 62
     1
 10
-364.8495
 20
83.4219
 30
0.0
  0
VERTEX
  5
17B
  8
LAYER_1
 62
     1
 10
-365.001
 20
83.9099
 30
0.0
  0
VERTEX
  5
17C
  8
LAYER_1
 62
     1
 10
-365.0538
 20
84.4339
 30
0.0
  0
VERTEX
  5
17D
  8
LAYER_1
 62
     1
 10
-365.001
 20
84.9579
 30
0.0
  0
VERTEX
  5
17E
  8
LAYER_1
 62
     1
 10
-364.8495
 20
85.4459
 30
0.0
  0
VERTEX
  5
17F
  8
LAYER_1
 62
     1
 10
-364.6098
 20
85.8876
 30
0.0
  0
VERTEX
  5
180
  8
LAYER_1
 62
     1
 10
-364.2923
 20
86.2724
 30
0.0
  0
VERTEX
  5
181
  8
LAYER_1
 62
     1
 10
-363.9075
 20
86.5899
 30
0.0
  0
VERTEX
  5
182
  8
LAYER_1
 62
     1
 10
-363.4658
 20
86.8296
 30
0.0
  0
VERTEX
  5
183
  8
LAYER_1
 62
     1
 10
-362.9778
 20
86.9811
 30
0.0
  0
VERTEX
  5
184
  8
LAYER_1
 62
     1
 10
-362.4538
 20
87.0339
 30
0.0
  0
SEQEND
  5
24F
  8
LAYER_1
 62
     1
  0
POLYLINE
  5
77
  8
LAYER_1
 62
     1
 66
     1
 10
0.0
 20
0.0
 30
0.0
 70
     1
  0
VERTEX
  5
185
  8
LAYER_1
 62
     1
 10
-275.9537
 20
87.0339
 30
0.0
  0
VERTEX
  5
186
  8
LAYER_1
 62
     1
 10
-275.4297
 20
86.9811
 30
0.0
  0
VERTEX
  5
187
  8
LAYER_1
 62
     1
 10
-274.9417
 20
86.8296
 30
0.0
  0
VERTEX
  5
188
  8
LAYER_1
 62
     1
 10
-274.5
 20
86.5899
 30
0.0
  0
VERTEX
  5
189
  8
LAYER_1
 62
     1
 10
-274.1152
 20
86.2724
 30
0.0
  0
VERTEX
  5
18A
  8
LAYER_1
 62
     1
 10
-273.7977
 20
85.8876
 30
0.0
  0
VERTEX
  5
18B
  8
LAYER_1
 62
     1
 10
-273.558
 20
85.4459
 30
0.0
  0
VERTEX
  5
18C
  8
LAYER_1
 62
     1
 10
-273.4065
 20
84.9579
 30
0.0
  0
VERTEX
  5
18D
  8
LAYER_1
 62
     1
 10
-273.3537
 20
84.4339
 30
0.0
  0
VERTEX
  5
18E
  8
LAYER_1
 62
     1
 10
-273.4065
 20
83.9099
 30
0.0
  0
VERTEX
  5
18F
  8
LAYER_1
 62
     1
 10
-273.558
 20
83.4219
 30
0.0
  0
VERTEX
  5
190
  8
LAYER_1
 62
     1
 10
-273.7977
 20
82.9802
 30
0.0
  0
VERTEX
  5
191
  8
LAYER_1
 62
     1
 10
-274.1152
 20
82.5954
 30
0.0
  0
VERTEX
  5
192
  8
LAYER_1
 62
     1
 10
-274.5
 20
82.2779
 30
0.0
  0
VERTEX
  5
193
  8
LAYER_1
 62
     1
 10
-274.9417
 20
82.0382
 30
0.0
  0
VERTEX
  5
194
  8
LAYER_1
 62
     1
 10
-275.4297
 20
81.8867
 30
0.0
  0
VERTEX
  5
195
  8
LAYER_1
 62
     1
 10
-275.9537
 20
81.8339
 30
0.0
  0
VERTEX
  5
196
  8
LAYER_1
 62
     1
 10
-276.4777
 20
81.8867
 30
0.0
  0
VERTEX
  5
197
  8
LAYER_1
 62
     1
 10
-276.9657
 20
82.0382
 30
0.0
  0
VERTEX
  5
198
  8
LAYER_1
 62
     1
 10
-277.4074
 20
82.2779
 30
0.0
  0
VERTEX
  5
199
  8
LAYER_1
 62
     1
 10
-277.7922
 20
82.5954
 30
0.0
  0
VERTEX
  5
19A
  8
LAYER_1
 62
     1
 10
-278.1097
 20
82.9802
 30
0.0
  0
VERTEX
  5
19B
  8
LAYER_1
 62
     1
 10
-278.3494
 20
83.4219
 30
0.0
  0
VERTEX
  5
19C
  8
LAYER_1
 62
     1
 10
-278.5009
 20
83.9099
 30
0.0
  0
VERTEX
  5
19D
  8
LAYER_1
 62
     1
 10
-278.5537
 20
84.4339
 30
0.0
  0
VERTEX
  5
19E
  8
LAYER_1
 62
     1
 10
-278.5009
 20
84.9579
 30
0.0
  0
VERTEX
  5
19F
  8
LAYER_1
 62
     1
 10
-278.3494
 20
85.4459
 30
0.0
  0
VERTEX
  5
1A0
  8
LAYER_1
 62
     1
 10
-278.1097
 20
85.8876
 30
0.0
  0
VERTEX
  5
1A1
  8
LAYER_1
 62
     1
 10
-277.7922
 20
86.2724
 30
0.0
  0
VERTEX
  5
1A2
  8
LAYER_1
 62
     1
 10
-277.4074
 20
86.5899
 30
0.0
  0
VERTEX
  5
1A3
  8
LAYER_1
 62
     1
 10
-276.9657
 20
86.8296
 30
0.0
  0
VERTEX
  5
1A4
  8
LAYER_1
 62
     1
 10
-276.4777
 20
86.9811
 30
0.0
  0
VERTEX
  5
1A5
  8
LAYER_1
 62
     1
 10
-275.9537
 20
87.0339
 30
0.0
  0
SEQEND
  5
250
  8
LAYER_1
 62
     1
  0
POLYLINE
  5
78
  8
LAYER_1
 62
     1
 66
     1
 10
0.0
 20
0.0
 30
0.0
 70
     1
  0
VERTEX
  5
1A6
  8
LAYER_1
 62
     1
 10
-179.9538
 20
87.0339
 30
0.0
  0
VERTEX
  5
1A7
  8
LAYER_1
 62
     1
 10
-179.4298
 20
86.9811
 30
0.0
  0
VERTEX
  5
1A8
  8
LAYER_1
 62
     1
 10
-178.9418
 20
86.8296
 30
0.0
  0
VERTEX
  5
1A9
  8
LAYER_1
 62
     1
 10
-178.5001
 20
86.5899
 30
0.0
  0
VERTEX
  5
1AA
  8
LAYER_1
 62
     1
 10
-178.1153
 20
86.2724
 30
0.0
  0
VERTEX
  5
1AB
  8
LAYER_1
 62
     1
 10
-177.7978
 20
85.8876
 30
0.0
  0
VERTEX
  5
1AC
  8
LAYER_1
 62
     1
 10
-177.5581
 20
85.4459
 30
0.0
  0
VERTEX
  5
1AD
  8
LAYER_1
 62
     1
 10
-177.4066
 20
84.9579
 30
0.0
  0
VERTEX
  5
1AE
  8
LAYER_1
 62
     1
 10
-177.3538
 20
84.4339
 30
0.0
  0
VERTEX
  5
1AF
  8
LAYER_1
 62
     1
 10
-177.4066
 20
83.9099
 30
0.0
  0
VERTEX
  5
1B0
  8
LAYER_1
 62
     1
 10
-177.5581
 20
83.4219
 30
0.0
  0
VERTEX
  5
1B1
  8
LAYER_1
 62
     1
 10
-177.7978
 20
82.9802
 30
0.0
  0
VERTEX
  5
1B2
  8
LAYER_1
 62
     1
 10
-178.1153
 20
82.5954
 30
0.0
  0
VERTEX
  5
1B3
  8
LAYER_1
 62
     1
 10
-178.5001
 20
82.2779
 30
0.0
  0
VERTEX
  5
1B4
  8
LAYER_1
 62
     1
 10
-178.9418
 20
82.0382
 30
0.0
  0
VERTEX
  5
1B5
  8
LAYER_1
 62
     1
 10
-179.4298
 20
81.8867
 30
0.0
  0
VERTEX
  5
1B6
  8
LAYER_1
 62
     1
 10
-179.9538
 20
81.8339
 30
0.0
  0
VERTEX
  5
1B7
  8
LAYER_1
 62
     1
 10
-180.4778
 20
81.8867
 30
0.0
  0
VERTEX
  5
1B8
  8
LAYER_1
 62
     1
 10
-180.9658
 20
82.0382
 30
0.0
  0
VERTEX
  5
1B9
  8
LAYER_1
 62
     1
 10
-181.4075
 20
82.2779
 30
0.0
  0
VERTEX
  5
1BA
  8
LAYER_1
 62
     1
 10
-181.7923
 20
82.5954
 30
0.0
  0
VERTEX
  5
1BB
  8
LAYER_1
 62
     1
 10
-182.1098
 20
82.9802
 30
0.0
  0
VERTEX
  5
1BC
  8
LAYER_1
 62
     1
 10
-182.3495
 20
83.4219
 30
0.0
  0
VERTEX
  5
1BD
  8
LAYER_1
 62
     1
 10
-182.501
 20
83.9099
 30
0.0
  0
VERTEX
  5
1BE
  8
LAYER_1
 62
     1
 10
-182.5538
 20
84.4339
 30
0.0
  0
VERTEX
  5
1BF
  8
LAYER_1
 62
     1
 10
-182.501
 20
84.9579
 30
0.0
  0
VERTEX
  5
1C0
  8
LAYER_1
 62
     1
 10
-182.3495
 20
85.4459
 30
0.0
  0
VERTEX
  5
1C1
  8
LAYER_1
 62
     1
 10
-182.1098
 20
85.8876
 30
0.0
  0
VERTEX
  5
1C2
  8
LAYER_1
 62
     1
 10
-181.7923
 20
86.2724
 30
0.0
  0
VERTEX
  5
1C3
  8
LAYER_1
 62
     1
 10
-181.4075
 20
86.5899
 30
0.0
  0
VERTEX
  5
1C4
  8
LAYER_1
 62
     1
 10
-180.9658
 20
86.8296
 30
0.0
  0
VERTEX
  5
1C5
  8
LAYER_1
 62
     1
 10
-180.4778
 20
86.9811
 30
0.0
  0
VERTEX
  5
1C6
  8
LAYER_1
 62
     1
 10
-179.9538
 20
87.0339
 30
0.0
  0
SEQEND
  5
251
  8
LAYER_1
 62
     1
  0
POLYLINE
  5
79
  8
LAYER_1
 62
     1
 66
     1
 10
0.0
 20
0.0
 30
0.0
 70
     1
  0
VERTEX
  5
1C7
  8
LAYER_1
 62
     1
 10
-83.9538
 20
87.0339
 30
0.0
  0
VERTEX
  5
1C8
  8
LAYER_1
 62
     1
 10
-83.4298
 20
86.9811
 30
0.0
  0
VERTEX
  5
1C9
  8
LAYER_1
 62
     1
 10
-82.9418
 20
86.8296
 30
0.0
  0
VERTEX
  5
1CA
  8
LAYER_1
 62
     1
 10
-82.5001
 20
86.5899
 30
0.0
  0
VERTEX
  5
1CB
  8
LAYER_1
 62
     1
 10
-82.1153
 20
86.2724
 30
0.0
  0
VERTEX
  5
1CC
  8
LAYER_1
 62
     1
 10
-81.7978
 20
85.8876
 30
0.0
  0
VERTEX
  5
1CD
  8
LAYER_1
 62
     1
 10
-81.5581
 20
85.4459
 30
0.0
  0
VERTEX
  5
1CE
  8
LAYER_1
 62
     1
 10
-81.4066
 20
84.9579
 30
0.0
  0
VERTEX
  5
1CF
  8
LAYER_1
 62
     1
 10
-81.3538
 20
84.4339
 30
0.0
  0
VERTEX
  5
1D0
  8
LAYER_1
 62
     1
 10
-81.4066
 20
83.9099
 30
0.0
  0
VERTEX
  5
1D1
  8
LAYER_1
 62
     1
 10
-81.5581
 20
83.4219
 30
0.0
  0
VERTEX
  5
1D2
  8
LAYER_1
 62
     1
 10
-81.7978
 20
82.9802
 30
0.0
  0
VERTEX
  5
1D3
  8
LAYER_1
 62
     1
 10
-82.1153
 20
82.5954
 30
0.0
  0
VERTEX
  5
1D4
  8
LAYER_1
 62
     1
 10
-82.5001
 20
82.2779
 30
0.0
  0
VERTEX
  5
1D5
  8
LAYER_1
 62
     1
 10
-82.9418
 20
82.0382
 30
0.0
  0
VERTEX
  5
1D6
  8
LAYER_1
 62
     1
 10
-83.4298
 20
81.8867
 30
0.0
  0
VERTEX
  5
1D7
  8
LAYER_1
 62
     1
 10
-83.9538
 20
81.8339
 30
0.0
  0
VERTEX
  5
1D8
  8
LAYER_1
 62
     1
 10
-84.4778
 20
81.8867
 30
0.0
  0
VERTEX
  5
1D9
  8
LAYER_1
 62
     1
 10
-84.9658
 20
82.0382
 30
0.0
  0
VERTEX
  5
1DA
  8
LAYER_1
 62
     1
 10
-85.4075
 20
82.2779
 30
0.0
  0
VERTEX
  5
1DB
  8
LAYER_1
 62
     1
 10
-85.7923
 20
82.5954
 30
0.0
  0
VERTEX
  5
1DC
  8
LAYER_1
 62
     1
 10
-86.1098
 20
82.9802
 30
0.0
  0
VERTEX
  5
1DD
  8
LAYER_1
 62
     1
 10
-86.3495
 20
83.4219
 30
0.0
  0
VERTEX
  5
1DE
  8
LAYER_1
 62
     1
 10
-86.501
 20
83.9099
 30
0.0
  0
VERTEX
  5
1DF
  8
LAYER_1
 62
     1
 10
-86.5538
 20
84.4339
 30
0.0
  0
VERTEX
  5
1E0
  8
LAYER_1
 62
     1
 10
-86.501
 20
84.9579
 30
0.0
  0
VERTEX
  5
1E1
  8
LAYER_1
 62
     1
 10
-86.3495
 20
85.4459
 30
0.0
  0
VERTEX
  5
1E2
  8
LAYER_1
 62
     1
 10
-86.1098
 20
85.8876
 30
0.0
  0
VERTEX
  5
1E3
  8
LAYER_1
 62
     1
 10
-85.7923
 20
86.2724
 30
0.0
  0
VERTEX
  5
1E4
  8
LAYER_1
 62
     1
 10
-85.4075
 20
86.5899
 30
0.0
  0
VERTEX
  5
1E5
  8
LAYER_1
 62
     1
 10
-84.9658
 20
86.8296
 30
0.0
  0
VERTEX
  5
1E6
  8
LAYER_1
 62
     1
 10
-84.4778
 20
86.9811
 30
0.0
  0
VERTEX
  5
1E7
  8
LAYER_1
 62
     1
 10
-83.9538
 20
87.0339
 30
0.0
  0
SEQEND
  5
252
  8
LAYER_1
 62
     1
  0
POLYLINE
  5
7A
  8
LAYER_1
 62
     1
 66
     1
 10
0.0
 20
0.0
 30
0.0
 70
     1
  0
VERTEX
  5
1E8
  8
LAYER_1
 62
     1
 10
2.5462
 20
87.0339
 30
0.0
  0
VERTEX
  5
1E9
  8
LAYER_1
 62
     1
 10
3.0702
 20
86.9811
 30
0.0
  0
VERTEX
  5
1EA
  8
LAYER_1
 62
     1
 10
3.5582
 20
86.8296
 30
0.0
  0
VERTEX
  5
1EB
  8
LAYER_1
 62
     1
 10
3.9999
 20
86.5899
 30
0.0
  0
VERTEX
  5
1EC
  8
LAYER_1
 62
     1
 10
4.3847
 20
86.2724
 30
0.0
  0
VERTEX
  5
1ED
  8
LAYER_1
 62
     1
 10
4.7022
 20
85.8876
 30
0.0
  0
VERTEX
  5
1EE
  8
LAYER_1
 62
     1
 10
4.9419
 20
85.4459
 30
0.0
  0
VERTEX
  5
1EF
  8
LAYER_1
 62
     1
 10
5.0934
 20
84.9579
 30
0.0
  0
VERTEX
  5
1F0
  8
LAYER_1
 62
     1
 10
5.1462
 20
84.4339
 30
0.0
  0
VERTEX
  5
1F1
  8
LAYER_1
 62
     1
 10
5.0934
 20
83.9099
 30
0.0
  0
VERTEX
  5
1F2
  8
LAYER_1
 62
     1
 10
4.9419
 20
83.4219
 30
0.0
  0
VERTEX
  5
1F3
  8
LAYER_1
 62
     1
 10
4.7022
 20
82.9802
 30
0.0
  0
VERTEX
  5
1F4
  8
LAYER_1
 62
     1
 10
4.3847
 20
82.5954
 30
0.0
  0
VERTEX
  5
1F5
  8
LAYER_1
 62
     1
 10
3.9999
 20
82.2779
 30
0.0
  0
VERTEX
  5
1F6
  8
LAYER_1
 62
     1
 10
3.5582
 20
82.0382
 30
0.0
  0
VERTEX
  5
1F7
  8
LAYER_1
 62
     1
 10
3.0702
 20
81.8867
 30
0.0
  0
VERTEX
  5
1F8
  8
LAYER_1
 62
     1
 10
2.5462
 20
81.8339
 30
0.0
  0
VERTEX
  5
1F9
  8
LAYER_1
 62
     1
 10
2.0222
 20
81.8867
 30
0.0
  0
VERTEX
  5
1FA
  8
LAYER_1
 62
     1
 10
1.5342
 20
82.0382
 30
0.0
  0
VERTEX
  5
1FB
  8
LAYER_1
 62
     1
 10
1.0925
 20
82.2779
 30
0.0
  0
VERTEX
  5
1FC
  8
LAYER_1
 62
     1
 10
0.7077
 20
82.5954
 30
0.0
  0
VERTEX
  5
1FD
  8
LAYER_1
 62
     1
 10
0.3902
 20
82.9802
 30
0.0
  0
VERTEX
  5
1FE
  8
LAYER_1
 62
     1
 10
0.1505
 20
83.4219
 30
0.0
  0
VERTEX
  5
1FF
  8
LAYER_1
 62
     1
 10
-0.001
 20
83.9099
 30
0.0
  0
VERTEX
  5
200
  8
LAYER_1
 62
     1
 10
-0.0538
 20
84.4339
 30
0.0
  0
VERTEX
  5
201
  8
LAYER_1
 62
     1
 10
-0.001
 20
84.9579
 30
0.0
  0
VERTEX
  5
202
  8
LAYER_1
 62
     1
 10
0.1505
 20
85.4459
 30
0.0
  0
VERTEX
  5
203
  8
LAYER_1
 62
     1
 10
0.3902
 20
85.8876
 30
0.0
  0
VERTEX
  5
204
  8
LAYER_1
 62
     1
 10
0.7077
 20
86.2724
 30
0.0
  0
VERTEX
  5
205
  8
LAYER_1
 62
     1
 10
1.0925
 20
86.5899
 30
0.0
  0
VERTEX
  5
206
  8
LAYER_1
 62
     1
 10
1.5342
 20
86.8296
 30
0.0
  0
VERTEX
  5
207
  8
LAYER_1
 62
     1
 10
2.0222
 20
86.9811
 30
0.0
  0
VERTEX
  5
208
  8
LAYER_1
 62
     1
 10
2.5462
 20
87.0339
 30
0.0
  0
SEQEND
  5
253
  8
LAYER_1
 62
     1
  0
POLYLINE
  5
7B
  8
LAYER_1
 62
     1
 66
     1
 10
0.0
 20
0.0
 30
0.0
 70
     1
  0
VERTEX
  5
209
  8
LAYER_1
 62
     1
 10
-323.0409
 20
189.1403
 30
0.0
  0
VERTEX
  5
20A
  8
LAYER_1
 62
     1
 10
-323.6261709660484
 20
189.0826558412097
 30
0.0
  0
VERTEX
  5
20B
  8
LAYER_1
 62
     1
 10
-324.1889502970953
 20
188.9119385975339
 30
0.0
  0
VERTEX
  5
20C
  8
LAYER_1
 62
     1
 10
-324.7076106990588
 20
188.6347088369076
 30
0.0
  0
VERTEX
  5
20D
  8
LAYER_1
 62
     1
 10
-325.1622203435597
 20
188.2616203435596
 30
0.0
  0
VERTEX
  5
20E
  8
LAYER_1
 62
     1
 10
-325.5353088369076
 20
187.8070106990588
 30
0.0
  0
VERTEX
  5
20F
  8
LAYER_1
 62
     1
 10
-325.8125385975339
 20
187.2883502970953
 30
0.0
  0
VERTEX
  5
210
  8
LAYER_1
 62
     1
 10
-325.9832558412097
 20
186.7255709660484
 30
0.0
  0
VERTEX
  5
211
  8
LAYER_1
 62
     1
 10
-326.0409
 20
186.1403
 30
0.0
  0
VERTEX
  5
212
  8
LAYER_1
 62
     1
 10
-325.9832558412097
 20
185.5550290339516
 30
0.0
  0
VERTEX
  5
213
  8
LAYER_1
 62
     1
 10
-325.8125385975339
 20
184.9922497029047
 30
0.0
  0
VERTEX
  5
214
  8
LAYER_1
 62
     1
 10
-325.5353088369076
 20
184.4735893009412
 30
0.0
  0
VERTEX
  5
215
  8
LAYER_1
 62
     1
 10
-325.1622203435597
 20
184.0189796564404
 30
0.0
  0
VERTEX
  5
216
  8
LAYER_1
 62
     1
 10
-324.7076106990588
 20
183.6458911630924
 30
0.0
  0
VERTEX
  5
217
  8
LAYER_1
 62
     1
 10
-324.1889502970953
 20
183.3686614024661
 30
0.0
  0
VERTEX
  5
218
  8
LAYER_1
 62
     1
 10
-323.6261709660484
 20
183.1979441587903
 30
0.0
  0
VERTEX
  5
219
  8
LAYER_1
 62
     1
 10
-323.0409
 20
183.1403
 30
0.0
  0
VERTEX
  5
21A
  8
LAYER_1
 62
     1
 10
-322.4556290339517
 20
183.1979441587903
 30
0.0
  0
VERTEX
  5
21B
  8
LAYER_1
 62
     1
 10
-321.8928497029048
 20
183.3686614024661
 30
0.0
  0
VERTEX
  5
21C
  8
LAYER_1
 62
     1
 10
-321.3741893009412
 20
183.6458911630924
 30
0.0
  0
VERTEX
  5
21D
  8
LAYER_1
 62
     1
 10
-320.9195796564404
 20
184.0189796564404
 30
0.0
  0
VERTEX
  5
21E
  8
LAYER_1
 62
     1
 10
-320.5464911630924
 20
184.4735893009412
 30
0.0
  0
VERTEX
  5
21F
  8
LAYER_1
 62
     1
 10
-320.2692614024662
 20
184.9922497029047
 30
0.0
  0
VERTEX
  5
220
  8
LAYER_1
 62
     1
 10
-320.0985441587903
 20
185.5550290339516
 30
0.0
  0
VERTEX
  5
221
  8
LAYER_1
 62
     1
 10
-320.0409
 20
186.1403
 30
0.0
  0
VERTEX
  5
222
  8
LAYER_1
 62
     1
 10
-320.0985441587903
 20
186.7255709660484
 30
0.0
  0
VERTEX
  5
223
  8
LAYER_1
 62
     1
 10
-320.2692614024662
 20
187.2883502970953
 30
0.0
  0
VERTEX
  5
224
  8
LAYER_1
 62
     1
 10
-320.5464911630924
 20
187.8070106990588
 30
0.0
  0
VERTEX
  5
225
  8
LAYER_1
 62
     1
 10
-320.9195796564404
 20
188.2616203435597
 30
0.0
  0
VERTEX
  5
226
  8
LAYER_1
 62
     1
 10
-321.3741893009412
 20
188.6347088369076
 30
0.0
  0
VERTEX
  5
227
  8
LAYER_1
 62
     1
 10
-321.8928497029048
 20
188.9119385975339
 30
0.0
  0
VERTEX
  5
228
  8
LAYER_1
 62
     1
 10
-322.4556290339517
 20
189.0826558412097
 30
0.0
  0
SEQEND
  5
254
  8
LAYER_1
 62
     1
  0
POLYLINE
  5
7C
  8
LAYER_1
 62
     1
 66
     1
 10
0.0
 20
0.0
 30
0.0
 70
     1
  0
VERTEX
  5
229
  8
LAYER_1
 62
     1
 10
-37.2909
 20
189.1403
 30
0.0
  0
VERTEX
  5
22A
  8
LAYER_1
 62
     1
 10
-37.87617096604838
 20
189.0826558412097
 30
0.0
  0
VERTEX
  5
22B
  8
LAYER_1
 62
     1
 10
-38.43895029709527
 20
188.9119385975339
 30
0.0
  0
VERTEX
  5
22C
  8
LAYER_1
 62
     1
 10
-38.9576106990588
 20
188.6347088369076
 30
0.0
  0
VERTEX
  5
22D
  8
LAYER_1
 62
     1
 10
-39.41222034355965
 20
188.2616203435596
 30
0.0
  0
VERTEX
  5
22E
  8
LAYER_1
 62
     1
 10
-39.78530883690764
 20
187.8070106990588
 30
0.0
  0
VERTEX
  5
22F
  8
LAYER_1
 62
     1
 10
-40.06253859753386
 20
187.2883502970953
 30
0.0
  0
VERTEX
  5
230
  8
LAYER_1
 62
     1
 10
-40.23325584120969
 20
186.7255709660484
 30
0.0
  0
VERTEX
  5
231
  8
LAYER_1
 62
     1
 10
-40.2909
 20
186.1403
 30
0.0
  0
VERTEX
  5
232
  8
LAYER_1
 62
     1
 10
-40.23325584120969
 20
185.5550290339516
 30
0.0
  0
VERTEX
  5
233
  8
LAYER_1
 62
     1
 10
-40.06253859753386
 20
184.9922497029047
 30
0.0
  0
VERTEX
  5
234
  8
LAYER_1
 62
     1
 10
-39.78530883690764
 20
184.4735893009412
 30
0.0
  0
VERTEX
  5
235
  8
LAYER_1
 62
     1
 10
-39.41222034355965
 20
184.0189796564404
 30
0.0
  0
VERTEX
  5
236
  8
LAYER_1
 62
     1
 10
-38.9576106990588
 20
183.6458911630924
 30
0.0
  0
VERTEX
  5
237
  8
LAYER_1
 62
     1
 10
-38.43895029709527
 20
183.3686614024661
 30
0.0
  0
VERTEX
  5
238
  8
LAYER_1
 62
     1
 10
-37.87617096604838
 20
183.1979441587903
 30
0.0
  0
VERTEX
  5
239
  8
LAYER_1
 62
     1
 10
-37.2909
 20
183.1403
 30
0.0
  0
VERTEX
  5
23A
  8
LAYER_1
 62
     1
 10
-36.70562903395161
 20
183.1979441587903
 30
0.0
  0
VERTEX
  5
23B
  8
LAYER_1
 62
     1
 10
-36.14284970290473
 20
183.3686614024661
 30
0.0
  0
VERTEX
  5
23C
  8
LAYER_1
 62
     1
 10
-35.62418930094119
 20
183.6458911630924
 30
0.0
  0
VERTEX
  5
23D
  8
LAYER_1
 62
     1
 10
-35.16957965644036
 20
184.0189796564404
 30
0.0
  0
VERTEX
  5
23E
  8
LAYER_1
 62
     1
 10
-34.79649116309236
 20
184.4735893009412
 30
0.0
  0
VERTEX
  5
23F
  8
LAYER_1
 62
     1
 10
-34.51926140246614
 20
184.9922497029047
 30
0.0
  0
VERTEX
  5
240
  8
LAYER_1
 62
     1
 10
-34.34854415879031
 20
185.5550290339516
 30
0.0
  0
VERTEX
  5
241
  8
LAYER_1
 62
     1
 10
-34.2909
 20
186.1403
 30
0.0
  0
VERTEX
  5
242
  8
LAYER_1
 62
     1
 10
-34.34854415879031
 20
186.7255709660484
 30
0.0
  0
VERTEX
  5
243
  8
LAYER_1
 62
     1
 10
-34.51926140246614
 20
187.2883502970953
 30
0.0
  0
VERTEX
  5
244
  8
LAYER_1
 62
     1
 10
-34.79649116309237
 20
187.8070106990588
 30
0.0
  0
VERTEX
  5
245
  8
LAYER_1
 62
     1
 10
-35.16957965644036
 20
188.2616203435597
 30
0.0
  0
VERTEX
  5
246
  8
LAYER_1
 62
     1
 10
-35.6241893009412
 20
188.6347088369076
 30
0.0
  0
VERTEX
  5
247
  8
LAYER_1
 62
     1
 10
-36.14284970290474
 20
188.9119385975339
 30
0.0
  0
VERTEX
  5
248
  8
LAYER_1
 62
     1
 10
-36.70562903395163
 20
189.0826558412097
 30
0.0
  0
SEQEND
  5
255
  8
LAYER_1
 62
     1
  0
ENDSEC
  0
EOF
