G04 #@! TF.GenerationSoftware,KiCad,Pcbnew,(5.0.0)*
G04 #@! TF.CreationDate,2018-07-31T18:48:34-04:00*
G04 #@! TF.ProjectId,top_plate,746F705F706C6174652E6B696361645F,rev?*
G04 #@! TF.SameCoordinates,Original*
G04 #@! TF.FileFunction,Profile,NP*
%FSLAX46Y46*%
G04 Gerber Fmt 4.6, Leading zero omitted, Abs format (unit mm)*
G04 Created by KiCad (PCBNEW (5.0.0)) date 07/31/18 18:48:34*
%MOMM*%
%LPD*%
G01*
G04 APERTURE LIST*
G04 #@! TA.AperFunction,NonConductor*
%ADD10C,0.200000*%
G04 #@! TD*
G04 APERTURE END LIST*
D10*
G04 #@! TO.C,R1*
X252900000Y-8200000D02*
X252458300Y-8439700D01*
X152846300Y-6044000D02*
X152899100Y-5520000D01*
X152899100Y-5520000D02*
X153050600Y-5032000D01*
X253284800Y-4205500D02*
X253602300Y-4590300D01*
X251446300Y-3444000D02*
X251970300Y-3496800D01*
X153607800Y-4205500D02*
X153992600Y-3888000D01*
X155446300Y-3444000D02*
X155446300Y-3444000D01*
X253842000Y-7056000D02*
X253602300Y-7497700D01*
X153050600Y-5032000D02*
X153290300Y-4590300D01*
X154922300Y-3496800D02*
X155446300Y-3444000D01*
X251970300Y-3496800D02*
X252458300Y-3648300D01*
X253842000Y-5032000D02*
X253993500Y-5520000D01*
X154434300Y-3648300D02*
X154922300Y-3496800D01*
X252900000Y-3888000D02*
X253284800Y-4205500D01*
X254046300Y-6044000D02*
X253993500Y-6568000D01*
X253993500Y-6568000D02*
X253842000Y-7056000D01*
X253602300Y-7497700D02*
X253284800Y-7882500D01*
X253284800Y-7882500D02*
X252900000Y-8200000D01*
X153992600Y-3888000D02*
X154434300Y-3648300D01*
X253602300Y-4590300D02*
X253842000Y-5032000D01*
X253993500Y-5520000D02*
X254046300Y-6044000D01*
X153290300Y-4590300D02*
X153607800Y-4205500D01*
X252458300Y-3648300D02*
X252900000Y-3888000D01*
X156900000Y-135200000D02*
X156458300Y-135439700D01*
X157993500Y-132520000D02*
X158046300Y-133044000D01*
X58434400Y-135439700D02*
X57992700Y-135200000D01*
X57607900Y-134882500D02*
X57290400Y-134497700D01*
X57992700Y-130888000D02*
X58434400Y-130648300D01*
X58922400Y-130496800D02*
X59446400Y-130444000D01*
X155446300Y-130444000D02*
X155970300Y-130496800D01*
X154922300Y-135591200D02*
X154434300Y-135439700D01*
X153992600Y-135200000D02*
X153607800Y-134882500D01*
X57050700Y-134056000D02*
X56899200Y-133568000D01*
X155446300Y-135644000D02*
X154922300Y-135591200D01*
X61993600Y-133568000D02*
X61842100Y-134056000D01*
X61842100Y-134056000D02*
X61602400Y-134497700D01*
X61284900Y-134882500D02*
X60900100Y-135200000D01*
X56899200Y-132520000D02*
X57050700Y-132032000D01*
X57992700Y-135200000D02*
X57607900Y-134882500D01*
X57290400Y-131590300D02*
X57607900Y-131205500D01*
X156900000Y-130888000D02*
X157284800Y-131205500D01*
X62046400Y-133044000D02*
X61993600Y-133568000D01*
X56846400Y-133044000D02*
X56899200Y-132520000D01*
X157842000Y-132032000D02*
X157993500Y-132520000D01*
X157602300Y-131590300D02*
X157842000Y-132032000D01*
X158046300Y-133044000D02*
X157993500Y-133568000D01*
X157602300Y-134497700D02*
X157284800Y-134882500D01*
X155970300Y-135591200D02*
X155446300Y-135644000D01*
X61602400Y-134497700D02*
X61284900Y-134882500D01*
X60900100Y-135200000D02*
X60458400Y-135439700D01*
X61993600Y-132520000D02*
X62046400Y-133044000D01*
X59970400Y-135591200D02*
X59446400Y-135644000D01*
X59446400Y-135644000D02*
X58922400Y-135591200D01*
X58922400Y-135591200D02*
X58434400Y-135439700D01*
X58434400Y-130648300D02*
X58922400Y-130496800D01*
X155970300Y-130496800D02*
X156458300Y-130648300D01*
X57290400Y-134497700D02*
X57050700Y-134056000D01*
X60458400Y-135439700D02*
X59970400Y-135591200D01*
X57050700Y-132032000D02*
X57290400Y-131590300D01*
X157842000Y-134056000D02*
X157602300Y-134497700D01*
X156458300Y-130648300D02*
X156900000Y-130888000D01*
X157993500Y-133568000D02*
X157842000Y-134056000D01*
X157284800Y-131205500D02*
X157602300Y-131590300D01*
X157284800Y-134882500D02*
X156900000Y-135200000D01*
X156458300Y-135439700D02*
X155970300Y-135591200D01*
X59446400Y-130444000D02*
X59446400Y-130444000D01*
X154434300Y-135439700D02*
X153992600Y-135200000D01*
X56899200Y-133568000D02*
X56846400Y-133044000D01*
X57607900Y-131205500D02*
X57992700Y-130888000D01*
X-31842200Y-138149700D02*
X-32847700Y-138047800D01*
X-33785200Y-137755700D02*
X-34634400Y-137293800D01*
X-34634400Y-137293800D02*
X-35374800Y-136682400D01*
X343158000Y-138149700D02*
X-31842200Y-138149700D01*
X-32847700Y-138047800D02*
X-33785200Y-137755700D01*
X249290300Y-131590300D02*
X249607800Y-131205500D01*
X250434300Y-130648300D02*
X250922300Y-130496800D01*
X254046300Y-133044000D02*
X253993500Y-133568000D01*
X253842000Y-134056000D02*
X253602300Y-134497700D01*
X249992600Y-135200000D02*
X249607800Y-134882500D01*
X249290300Y-134497700D02*
X249050600Y-134056000D01*
X250922300Y-130496800D02*
X251446300Y-130444000D01*
X251446300Y-130444000D02*
X251446300Y-130444000D01*
X153290300Y-134497700D02*
X153050600Y-134056000D01*
X253284800Y-134882500D02*
X252900000Y-135200000D01*
X153290300Y-131590300D02*
X153607800Y-131205500D01*
X154922300Y-130496800D02*
X155446300Y-130444000D01*
X251446300Y-130444000D02*
X251970300Y-130496800D01*
X153992600Y-130888000D02*
X154434300Y-130648300D01*
X252458300Y-130648300D02*
X252900000Y-130888000D01*
X253993500Y-133568000D02*
X253842000Y-134056000D01*
X154434300Y-130648300D02*
X154922300Y-130496800D01*
X251970300Y-135591200D02*
X251446300Y-135644000D01*
X252458300Y-135439700D02*
X251970300Y-135591200D01*
X250922300Y-135591200D02*
X250434300Y-135439700D01*
X248846300Y-133044000D02*
X248899100Y-132520000D01*
X249050600Y-132032000D02*
X249290300Y-131590300D01*
X153607800Y-131205500D02*
X153992600Y-130888000D01*
X153050600Y-134056000D02*
X152899100Y-133568000D01*
X152846300Y-133044000D02*
X152899100Y-132520000D01*
X251970300Y-130496800D02*
X252458300Y-130648300D01*
X252900000Y-130888000D02*
X253284800Y-131205500D01*
X253602300Y-131590300D02*
X253842000Y-132032000D01*
X155446300Y-130444000D02*
X155446300Y-130444000D01*
X153607800Y-134882500D02*
X153290300Y-134497700D01*
X253842000Y-132032000D02*
X253993500Y-132520000D01*
X253993500Y-132520000D02*
X254046300Y-133044000D01*
X249607800Y-134882500D02*
X249290300Y-134497700D01*
X152899100Y-133568000D02*
X152846300Y-133044000D01*
X152899100Y-132520000D02*
X153050600Y-132032000D01*
X253284800Y-131205500D02*
X253602300Y-131590300D01*
X253602300Y-134497700D02*
X253284800Y-134882500D01*
X251446300Y-135644000D02*
X250922300Y-135591200D01*
X248899100Y-133568000D02*
X248846300Y-133044000D01*
X248899100Y-132520000D02*
X249050600Y-132032000D01*
X249607800Y-131205500D02*
X249992600Y-130888000D01*
X249992600Y-130888000D02*
X250434300Y-130648300D01*
X249050600Y-134056000D02*
X248899100Y-133568000D01*
X153050600Y-132032000D02*
X153290300Y-131590300D01*
X252900000Y-135200000D02*
X252458300Y-135439700D01*
X250434300Y-135439700D02*
X249992600Y-135200000D01*
X339784800Y-4205500D02*
X340102300Y-4590300D01*
X340546300Y-6044000D02*
X340493500Y-6568000D01*
X337946300Y-8644000D02*
X337422300Y-8591200D01*
X340342000Y-7056000D02*
X340102300Y-7497700D01*
X340102300Y-7497700D02*
X339784800Y-7882500D01*
X339400000Y-8200000D02*
X338958300Y-8439700D01*
X338958300Y-8439700D02*
X338470300Y-8591200D01*
X336934300Y-8439700D02*
X336492600Y-8200000D01*
X335346300Y-6044000D02*
X335399100Y-5520000D01*
X340102300Y-4590300D02*
X340342000Y-5032000D01*
X340342000Y-5032000D02*
X340493500Y-5520000D01*
X340493500Y-5520000D02*
X340546300Y-6044000D01*
X339784800Y-7882500D02*
X339400000Y-8200000D01*
X338470300Y-8591200D02*
X337946300Y-8644000D01*
X337422300Y-8591200D02*
X336934300Y-8439700D01*
X335790300Y-7497700D02*
X335550600Y-7056000D01*
X335399100Y-6568000D02*
X335346300Y-6044000D01*
X336107800Y-7882500D02*
X335790300Y-7497700D01*
X335399100Y-5520000D02*
X335550600Y-5032000D01*
X335550600Y-5032000D02*
X335790300Y-4590300D01*
X340493500Y-6568000D02*
X340342000Y-7056000D01*
X336492600Y-8200000D02*
X336107800Y-7882500D01*
X335550600Y-7056000D02*
X335399100Y-6568000D01*
X-26041700Y-8439700D02*
X-26529700Y-8591200D01*
X-29209700Y-7497700D02*
X-29449400Y-7056000D01*
X-29449400Y-7056000D02*
X-29600900Y-6568000D01*
X-28892200Y-7882500D02*
X-29209700Y-7497700D01*
X-27053700Y-8644000D02*
X-27577700Y-8591200D01*
X-26529700Y-8591200D02*
X-27053700Y-8644000D01*
X-28065700Y-8439700D02*
X-28507400Y-8200000D01*
X-27577700Y-8591200D02*
X-28065700Y-8439700D01*
X-25215200Y-7882500D02*
X-25600000Y-8200000D01*
X-25600000Y-8200000D02*
X-26041700Y-8439700D01*
X-28507400Y-8200000D02*
X-28892200Y-7882500D01*
X59446400Y-8644000D02*
X58922400Y-8591200D01*
X58922400Y-8591200D02*
X58434400Y-8439700D01*
X61284900Y-7882500D02*
X60900100Y-8200000D01*
X57992700Y-8200000D02*
X57607900Y-7882500D01*
X57290400Y-7497700D02*
X57050700Y-7056000D01*
X60900100Y-8200000D02*
X60458400Y-8439700D01*
X59970400Y-8591200D02*
X59446400Y-8644000D01*
X58434400Y-8439700D02*
X57992700Y-8200000D01*
X57050700Y-7056000D02*
X56899200Y-6568000D01*
X57607900Y-7882500D02*
X57290400Y-7497700D01*
X60458400Y-8439700D02*
X59970400Y-8591200D01*
X249992600Y-8200000D02*
X249607800Y-7882500D01*
X249607800Y-4205500D02*
X249992600Y-3888000D01*
X249290300Y-7497700D02*
X249050600Y-7056000D01*
X338958300Y-3648300D02*
X339400000Y-3888000D01*
X337946300Y-3444000D02*
X338470300Y-3496800D01*
X249607800Y-7882500D02*
X249290300Y-7497700D01*
X248846300Y-6044000D02*
X248899100Y-5520000D01*
X249290300Y-4590300D02*
X249607800Y-4205500D01*
X251970300Y-8591200D02*
X251446300Y-8644000D01*
X251446300Y-3444000D02*
X251446300Y-3444000D01*
X338470300Y-3496800D02*
X338958300Y-3648300D01*
X250434300Y-8439700D02*
X249992600Y-8200000D01*
X250922300Y-8591200D02*
X250434300Y-8439700D01*
X249050600Y-5032000D02*
X249290300Y-4590300D01*
X252458300Y-8439700D02*
X251970300Y-8591200D01*
X249050600Y-7056000D02*
X248899100Y-6568000D01*
X249992600Y-3888000D02*
X250434300Y-3648300D01*
X250922300Y-3496800D02*
X251446300Y-3444000D01*
X251446300Y-8644000D02*
X250922300Y-8591200D01*
X248899100Y-6568000D02*
X248846300Y-6044000D01*
X248899100Y-5520000D02*
X249050600Y-5032000D01*
X339400000Y-3888000D02*
X339784800Y-4205500D01*
X250434300Y-3648300D02*
X250922300Y-3496800D01*
X245788800Y-84818400D02*
X247313800Y-84818400D01*
X254063800Y-76768400D02*
X254063800Y-76543400D01*
X241313800Y-67018400D02*
X241313800Y-72068400D01*
X-1861200Y-86068400D02*
X-1861200Y-72068400D01*
X24332800Y-72068400D02*
X10332800Y-72068400D01*
X29382800Y-72068400D02*
X29382800Y-72068400D01*
X48432800Y-86068400D02*
X62432800Y-86068400D01*
X62432800Y-72068400D02*
X48432800Y-72068400D01*
X67482800Y-72068400D02*
X67482800Y-86068400D01*
X81482800Y-86068400D02*
X81482800Y-72068400D01*
X67482800Y-72068400D02*
X67482800Y-72068400D01*
X86532800Y-86068400D02*
X100532800Y-86068400D01*
X253843800Y-54268400D02*
X252932800Y-54268400D01*
X252338800Y-87038400D02*
X252338800Y-85838400D01*
X228395300Y-72068400D02*
X228395300Y-72068400D01*
X10332800Y-72068400D02*
X10332800Y-72068400D01*
X228537800Y-86068400D02*
X245788800Y-86068400D01*
X228537800Y-87038400D02*
X228537800Y-86068400D01*
X254888800Y-76768400D02*
X254063800Y-76768400D01*
X255313800Y-62543400D02*
X252932800Y-62543400D01*
X-20623200Y-72068400D02*
X-20623200Y-86068400D01*
X10332800Y-86068400D02*
X24332800Y-86068400D01*
X24332800Y-86068400D02*
X24332800Y-72068400D01*
X238932800Y-67018400D02*
X241313800Y-67018400D01*
X29382800Y-86068400D02*
X43382800Y-86068400D01*
X225238800Y-87038400D02*
X228537800Y-87038400D01*
X254746300Y-81368400D02*
X254746300Y-79568400D01*
X254063800Y-76543400D02*
X255313800Y-76543400D01*
X255313800Y-76543400D02*
X255313800Y-62543400D01*
X254888800Y-79568400D02*
X254888800Y-76768400D01*
X252932800Y-61018400D02*
X253843800Y-61018400D01*
X253843800Y-61018400D02*
X253843800Y-54268400D01*
X249038800Y-85838400D02*
X249038800Y-87038400D01*
X249038800Y-87038400D02*
X252338800Y-87038400D01*
X247313800Y-84818400D02*
X247313800Y-85838400D01*
X241313800Y-72068400D02*
X228395300Y-72068400D01*
X10332800Y-72068400D02*
X10332800Y-86068400D01*
X254063800Y-81368400D02*
X254746300Y-81368400D01*
X254746300Y-79568400D02*
X254888800Y-79568400D01*
X254063800Y-85838400D02*
X254063800Y-81368400D01*
X252932800Y-53018400D02*
X238932800Y-53018400D01*
X252932800Y-54268400D02*
X252932800Y-53018400D01*
X-1861200Y-72068400D02*
X-20623200Y-72068400D01*
X43382800Y-86068400D02*
X43382800Y-72068400D01*
X43382800Y-72068400D02*
X29382800Y-72068400D01*
X245788800Y-86068400D02*
X245788800Y-84818400D01*
X252932800Y-62543400D02*
X252932800Y-61018400D01*
X247313800Y-85838400D02*
X249038800Y-85838400D01*
X252338800Y-85838400D02*
X254063800Y-85838400D01*
X238932800Y-53018400D02*
X238932800Y-67018400D01*
X-20623200Y-86068400D02*
X-1861200Y-86068400D01*
X-20623200Y-72068400D02*
X-20623200Y-72068400D01*
X29382800Y-72068400D02*
X29382800Y-86068400D01*
X48432800Y-72068400D02*
X48432800Y-86068400D01*
X62432800Y-86068400D02*
X62432800Y-72068400D01*
X48432800Y-72068400D02*
X48432800Y-72068400D01*
X67482800Y-86068400D02*
X81482800Y-86068400D01*
X81482800Y-72068400D02*
X67482800Y-72068400D01*
X86532800Y-72068400D02*
X86532800Y-86068400D01*
X100532800Y-86068400D02*
X100532800Y-72068400D01*
X100532800Y-72068400D02*
X86532800Y-72068400D01*
X86532800Y-72068400D02*
X86532800Y-72068400D01*
X105582800Y-72068400D02*
X105582800Y-86068400D01*
X105582800Y-86068400D02*
X119582800Y-86068400D01*
X138632800Y-72068400D02*
X124632800Y-72068400D01*
X162732800Y-72068400D02*
X162732800Y-86068400D01*
X157682800Y-86068400D02*
X157682800Y-72068400D01*
X124632800Y-72068400D02*
X124632800Y-72068400D01*
X195782800Y-86068400D02*
X195782800Y-72068400D01*
X119582800Y-72068400D02*
X105582800Y-72068400D01*
X176732800Y-86068400D02*
X176732800Y-72068400D01*
X200832800Y-86068400D02*
X214832800Y-86068400D01*
X262745800Y-72068400D02*
X262745800Y-86068400D01*
X124632800Y-72068400D02*
X124632800Y-86068400D01*
X200832800Y-72068400D02*
X200832800Y-72068400D01*
X143682800Y-86068400D02*
X157682800Y-86068400D01*
X200832800Y-72068400D02*
X200832800Y-86068400D01*
X276745800Y-72068400D02*
X262745800Y-72068400D01*
X181782800Y-86068400D02*
X195782800Y-86068400D01*
X262745800Y-86068400D02*
X276745800Y-86068400D01*
X143682800Y-72068400D02*
X143682800Y-72068400D01*
X276745800Y-86068400D02*
X276745800Y-72068400D01*
X262745800Y-72068400D02*
X262745800Y-72068400D01*
X143682800Y-72068400D02*
X143682800Y-86068400D01*
X157682800Y-72068400D02*
X143682800Y-72068400D01*
X162732800Y-72068400D02*
X162732800Y-72068400D01*
X281795800Y-72068400D02*
X281795800Y-86068400D01*
X281795800Y-86068400D02*
X295795800Y-86068400D01*
X295795800Y-72068400D02*
X281795800Y-72068400D01*
X119582800Y-86068400D02*
X119582800Y-72068400D01*
X138632800Y-86068400D02*
X138632800Y-72068400D01*
X162732800Y-86068400D02*
X176732800Y-86068400D01*
X214832800Y-86068400D02*
X214832800Y-72068400D01*
X181782800Y-72068400D02*
X181782800Y-86068400D01*
X214832800Y-72068400D02*
X200832800Y-72068400D01*
X295795800Y-86068400D02*
X295795800Y-72068400D01*
X281795800Y-72068400D02*
X281795800Y-72068400D01*
X105582800Y-72068400D02*
X105582800Y-72068400D01*
X124632800Y-86068400D02*
X138632800Y-86068400D01*
X300845800Y-72068400D02*
X300845800Y-86068400D01*
X300845800Y-86068400D02*
X314845800Y-86068400D01*
X176732800Y-72068400D02*
X162732800Y-72068400D01*
X195782800Y-72068400D02*
X181782800Y-72068400D01*
X181782800Y-72068400D02*
X181782800Y-72068400D01*
X58545800Y-110397400D02*
X58545800Y-109197400D01*
X58545800Y-109197400D02*
X61970800Y-109197400D01*
X53788800Y-109197400D02*
X57088800Y-109197400D01*
X63695800Y-122697400D02*
X52063800Y-122697400D01*
X44519800Y-122697400D02*
X44519800Y-119466400D01*
X44519800Y-114867400D02*
X44519800Y-114867400D01*
X262745800Y-124167400D02*
X265720800Y-124167400D01*
X269020800Y-125137400D02*
X269020800Y-124167400D01*
X124345800Y-119467400D02*
X124345800Y-114868400D01*
X91294800Y-119467400D02*
X91294800Y-124167400D01*
X265720800Y-125137400D02*
X269020800Y-125137400D01*
X289520800Y-124167400D02*
X289520800Y-125137400D01*
X289520800Y-125137400D02*
X292820800Y-125137400D01*
X-20623200Y-110167400D02*
X-20623200Y-124167400D01*
X-4242200Y-124167400D02*
X-4242200Y-110167400D01*
X3188800Y-110167400D02*
X3188800Y-124167400D01*
X24332800Y-124167400D02*
X24332800Y-110167400D01*
X124345800Y-114868400D02*
X124345800Y-110167400D01*
X124345800Y-124167400D02*
X124345800Y-119467400D01*
X52063800Y-119466400D02*
X52063800Y-114867400D01*
X-4242200Y-110167400D02*
X-20623200Y-110167400D01*
X39494800Y-110167400D02*
X27001800Y-110167400D01*
X61970800Y-110397400D02*
X63695800Y-110397400D01*
X24332800Y-110167400D02*
X3188800Y-110167400D01*
X3188800Y-110167400D02*
X3188800Y-110167400D01*
X91294800Y-124167400D02*
X124345800Y-124167400D01*
X52063800Y-110397400D02*
X53788800Y-110397400D01*
X63695800Y-119466400D02*
X63695800Y-122697400D01*
X53788800Y-110397400D02*
X53788800Y-109197400D01*
X63695800Y-114867400D02*
X63695800Y-114867400D01*
X43382800Y-110397400D02*
X43382800Y-110167400D01*
X57088800Y-110397400D02*
X58545800Y-110397400D01*
X42794800Y-109197400D02*
X39494800Y-109197400D01*
X57088800Y-109197400D02*
X57088800Y-110397400D01*
X61970800Y-109197400D02*
X61970800Y-110397400D01*
X124345800Y-119467400D02*
X124345800Y-119467400D01*
X43382800Y-110167400D02*
X42794800Y-110167400D01*
X39494800Y-109197400D02*
X39494800Y-110167400D01*
X52063800Y-114867400D02*
X52063800Y-110397400D01*
X91294800Y-114868400D02*
X91294800Y-119467400D01*
X52063800Y-122697400D02*
X52063800Y-119466400D01*
X63695800Y-110397400D02*
X63695800Y-114867400D01*
X42794800Y-110167400D02*
X42794800Y-109197400D01*
X27001800Y-110167400D02*
X27001800Y-124167400D01*
X124345800Y-110167400D02*
X91294800Y-110167400D01*
X91294800Y-110167400D02*
X91294800Y-114868400D01*
X43382800Y-124167400D02*
X43382800Y-122697400D01*
X63695800Y-114867400D02*
X63695800Y-119466400D01*
X44519800Y-110397400D02*
X43382800Y-110397400D01*
X44519800Y-114867400D02*
X44519800Y-110397400D01*
X27001800Y-124167400D02*
X43382800Y-124167400D01*
X43382800Y-122697400D02*
X44519800Y-122697400D01*
X44519800Y-119466400D02*
X44519800Y-114867400D01*
X262745800Y-110167400D02*
X262745800Y-124167400D01*
X265720800Y-124167400D02*
X265720800Y-125137400D01*
X269020800Y-124167400D02*
X289520800Y-124167400D01*
X292820800Y-125137400D02*
X292820800Y-124167400D01*
X292820800Y-124167400D02*
X295795800Y-124167400D01*
X295795800Y-124167400D02*
X295795800Y-110167400D01*
X295795800Y-110167400D02*
X262745800Y-110167400D01*
X262745800Y-110167400D02*
X262745800Y-110167400D01*
X-20623200Y-124167400D02*
X-4242200Y-124167400D01*
X-20623200Y-110167400D02*
X-20623200Y-110167400D01*
X3188800Y-124167400D02*
X24332800Y-124167400D01*
X167495800Y-110167400D02*
X172845800Y-110167400D01*
X319895800Y-121193400D02*
X319895800Y-124167400D01*
X319895800Y-91118400D02*
X319895800Y-91118400D01*
X238645800Y-110167400D02*
X257695800Y-110167400D01*
X176145800Y-109197400D02*
X176145800Y-110167400D01*
X172845800Y-110167400D02*
X172845800Y-109197400D01*
X319895800Y-124167400D02*
X333895800Y-124167400D01*
X319895800Y-94093400D02*
X318925800Y-94093400D01*
X257695800Y-124167400D02*
X238645800Y-124167400D01*
X-17648200Y-106088400D02*
X-14348200Y-106088400D01*
X167495800Y-124167400D02*
X167495800Y-119466400D01*
X300845800Y-110167400D02*
X300845800Y-124167400D01*
X167495800Y-114867400D02*
X167495800Y-110167400D01*
X186257800Y-110167400D02*
X238645800Y-110167400D01*
X314845800Y-124167400D02*
X314845800Y-110167400D01*
X318925800Y-97393400D02*
X319895800Y-97393400D01*
X186257800Y-124167400D02*
X167495800Y-124167400D01*
X300845800Y-110167400D02*
X300845800Y-110167400D01*
X318925800Y-117893400D02*
X318925800Y-121193400D01*
X319895800Y-97393400D02*
X319895800Y-117893400D01*
X333895800Y-91118400D02*
X319895800Y-91118400D01*
X318925800Y-121193400D02*
X319895800Y-121193400D01*
X-20623200Y-91118400D02*
X-20623200Y-105118400D01*
X319895800Y-117893400D02*
X318925800Y-117893400D01*
X314845800Y-110167400D02*
X300845800Y-110167400D01*
X172845800Y-109197400D02*
X176145800Y-109197400D01*
X-14348200Y-106088400D02*
X-14348200Y-105118400D01*
X-20623200Y-105118400D02*
X-17648200Y-105118400D01*
X167495800Y-119466400D02*
X167495800Y-114867400D01*
X257695800Y-110167400D02*
X257695800Y-124167400D01*
X186257800Y-110167400D02*
X186257800Y-110167400D01*
X333895800Y-124167400D02*
X333895800Y-91118400D01*
X-17648200Y-105118400D02*
X-17648200Y-106088400D01*
X319895800Y-91118400D02*
X319895800Y-94093400D01*
X318925800Y-94093400D02*
X318925800Y-97393400D01*
X300845800Y-124167400D02*
X314845800Y-124167400D01*
X-14348200Y-105118400D02*
X6151800Y-105118400D01*
X176145800Y-110167400D02*
X186257800Y-110167400D01*
X6151800Y-105118400D02*
X6151800Y-106088400D01*
X238645800Y-124167400D02*
X186257800Y-124167400D01*
X314845800Y-33968400D02*
X300845800Y-33968400D01*
X-23004200Y-14918400D02*
X-23004200Y-28918400D01*
X29095800Y-14918400D02*
X15095800Y-14918400D01*
X300845800Y-33968400D02*
X300845800Y-47968400D01*
X34145800Y-14918400D02*
X34145800Y-28918400D01*
X-9004200Y-28918400D02*
X-9004200Y-14918400D01*
X86244800Y-28918400D02*
X86244800Y-14918400D01*
X72244800Y-14918400D02*
X72244800Y-14918400D01*
X205595800Y-33968400D02*
X205595800Y-33968400D01*
X281795800Y-47968400D02*
X295795800Y-47968400D01*
X262745800Y-47968400D02*
X276745800Y-47968400D01*
X-23004200Y-28918400D02*
X-9004200Y-28918400D01*
X110345800Y-14918400D02*
X110345800Y-28918400D01*
X124345800Y-28918400D02*
X124345800Y-14918400D01*
X110345800Y-14918400D02*
X110345800Y-14918400D01*
X129395800Y-28918400D02*
X143395800Y-28918400D01*
X281795800Y-33968400D02*
X281795800Y-33968400D01*
X295795800Y-33968400D02*
X281795800Y-33968400D01*
X314845800Y-47968400D02*
X314845800Y-33968400D01*
X15095800Y-14918400D02*
X15095800Y-28918400D01*
X15095800Y-28918400D02*
X29095800Y-28918400D01*
X48145800Y-14918400D02*
X34145800Y-14918400D01*
X48145800Y-28918400D02*
X48145800Y-14918400D01*
X10045800Y-28918400D02*
X10045800Y-14918400D01*
X300845800Y-33968400D02*
X300845800Y-33968400D01*
X295795800Y-47968400D02*
X295795800Y-33968400D01*
X319895800Y-33968400D02*
X319895800Y-47968400D01*
X333895800Y-47968400D02*
X333895800Y-33968400D01*
X262745800Y-33968400D02*
X262745800Y-47968400D01*
X34145800Y-28918400D02*
X48145800Y-28918400D01*
X-3954200Y-14918400D02*
X-3954200Y-14918400D01*
X-9004200Y-14918400D02*
X-23004200Y-14918400D01*
X67195800Y-28918400D02*
X67195800Y-14918400D01*
X67195800Y-14918400D02*
X53195800Y-14918400D01*
X300845800Y-47968400D02*
X314845800Y-47968400D01*
X53195800Y-14918400D02*
X53195800Y-14918400D01*
X276745800Y-33968400D02*
X262745800Y-33968400D01*
X319895800Y-47968400D02*
X333895800Y-47968400D01*
X281795800Y-33968400D02*
X281795800Y-47968400D01*
X276745800Y-47968400D02*
X276745800Y-33968400D01*
X333895800Y-33968400D02*
X319895800Y-33968400D01*
X-23004200Y-14918400D02*
X-23004200Y-14918400D01*
X-3954200Y-14918400D02*
X-3954200Y-28918400D01*
X15095800Y-14918400D02*
X15095800Y-14918400D01*
X262745800Y-33968400D02*
X262745800Y-33968400D01*
X10045800Y-14918400D02*
X-3954200Y-14918400D01*
X319895800Y-33968400D02*
X319895800Y-33968400D01*
X-3954200Y-28918400D02*
X10045800Y-28918400D01*
X29095800Y-28918400D02*
X29095800Y-14918400D01*
X53195800Y-14918400D02*
X53195800Y-28918400D01*
X72244800Y-14918400D02*
X72244800Y-28918400D01*
X53195800Y-28918400D02*
X67195800Y-28918400D01*
X72244800Y-28918400D02*
X86244800Y-28918400D01*
X34145800Y-14918400D02*
X34145800Y-14918400D01*
X86244800Y-14918400D02*
X72244800Y-14918400D01*
X91294800Y-14918400D02*
X91294800Y-28918400D01*
X91294800Y-28918400D02*
X105295800Y-28918400D01*
X105295800Y-28918400D02*
X105295800Y-14918400D01*
X105295800Y-14918400D02*
X91294800Y-14918400D01*
X91294800Y-14918400D02*
X91294800Y-14918400D01*
X110345800Y-28918400D02*
X124345800Y-28918400D01*
X124345800Y-14918400D02*
X110345800Y-14918400D01*
X129395800Y-14918400D02*
X129395800Y-28918400D01*
X143395800Y-28918400D02*
X143395800Y-14918400D01*
X148445800Y-14918400D02*
X148445800Y-14918400D01*
X219595800Y-14918400D02*
X205595800Y-14918400D01*
X181495800Y-14918400D02*
X167495800Y-14918400D01*
X243695800Y-28918400D02*
X257695800Y-28918400D01*
X200545800Y-14918400D02*
X186545800Y-14918400D01*
X300845800Y-14918400D02*
X300845800Y-14918400D01*
X129395800Y-14918400D02*
X129395800Y-14918400D01*
X257695800Y-14918400D02*
X243695800Y-14918400D01*
X257695800Y-28918400D02*
X257695800Y-14918400D01*
X224645800Y-28918400D02*
X238645800Y-28918400D01*
X224645800Y-14918400D02*
X224645800Y-14918400D01*
X148445800Y-28918400D02*
X162445800Y-28918400D01*
X262745800Y-14918400D02*
X262745800Y-28918400D01*
X181495800Y-28918400D02*
X181495800Y-14918400D01*
X219595800Y-28918400D02*
X219595800Y-14918400D01*
X276745800Y-14918400D02*
X262745800Y-14918400D01*
X281795800Y-14918400D02*
X281795800Y-28918400D01*
X167495800Y-28918400D02*
X181495800Y-28918400D01*
X167495800Y-14918400D02*
X167495800Y-14918400D01*
X186545800Y-14918400D02*
X186545800Y-28918400D01*
X148445800Y-14918400D02*
X148445800Y-28918400D01*
X238645800Y-14918400D02*
X224645800Y-14918400D01*
X200545800Y-28918400D02*
X200545800Y-14918400D01*
X262745800Y-28918400D02*
X276745800Y-28918400D01*
X143395800Y-14918400D02*
X129395800Y-14918400D01*
X162445800Y-14918400D02*
X148445800Y-14918400D01*
X205595800Y-14918400D02*
X205595800Y-28918400D01*
X205595800Y-28918400D02*
X219595800Y-28918400D01*
X224645800Y-14918400D02*
X224645800Y-28918400D01*
X243695800Y-14918400D02*
X243695800Y-28918400D01*
X243695800Y-14918400D02*
X243695800Y-14918400D01*
X276745800Y-28918400D02*
X276745800Y-14918400D01*
X262745800Y-14918400D02*
X262745800Y-14918400D01*
X162445800Y-28918400D02*
X162445800Y-14918400D01*
X186545800Y-14918400D02*
X186545800Y-14918400D01*
X205595800Y-14918400D02*
X205595800Y-14918400D01*
X167495800Y-14918400D02*
X167495800Y-28918400D01*
X238645800Y-28918400D02*
X238645800Y-14918400D01*
X281795800Y-28918400D02*
X295795800Y-28918400D01*
X295795800Y-28918400D02*
X295795800Y-14918400D01*
X281795800Y-14918400D02*
X281795800Y-14918400D01*
X300845800Y-28918400D02*
X314845800Y-28918400D01*
X186545800Y-28918400D02*
X200545800Y-28918400D01*
X314845800Y-28918400D02*
X314845800Y-14918400D01*
X314845800Y-14918400D02*
X300845800Y-14918400D01*
X295795800Y-14918400D02*
X281795800Y-14918400D01*
X300845800Y-14918400D02*
X300845800Y-28918400D01*
X319895800Y-14918400D02*
X319895800Y-28918400D01*
X319895800Y-28918400D02*
X333895800Y-28918400D01*
X333895800Y-14918400D02*
X319895800Y-14918400D01*
X319895800Y-14918400D02*
X319895800Y-14918400D01*
X333895800Y-28918400D02*
X333895800Y-14918400D01*
X29095800Y-47968400D02*
X29095800Y-33968400D01*
X29095800Y-33968400D02*
X15095800Y-33968400D01*
X105295800Y-33968400D02*
X91294800Y-33968400D01*
X10045800Y-47968400D02*
X10045800Y-33968400D01*
X110345800Y-33968400D02*
X110345800Y-47968400D01*
X110345800Y-33968400D02*
X110345800Y-33968400D01*
X143395800Y-47968400D02*
X143395800Y-33968400D01*
X148445800Y-33968400D02*
X148445800Y-47968400D01*
X-23004200Y-47968400D02*
X-9004200Y-47968400D01*
X-3954200Y-47968400D02*
X10045800Y-47968400D01*
X148445800Y-33968400D02*
X148445800Y-33968400D01*
X67195800Y-47968400D02*
X67195800Y-33968400D01*
X181495800Y-47968400D02*
X181495800Y-33968400D01*
X-9004200Y-33968400D02*
X-23004200Y-33968400D01*
X186545800Y-33968400D02*
X186545800Y-47968400D01*
X72244800Y-33968400D02*
X72244800Y-47968400D01*
X200545800Y-33968400D02*
X186545800Y-33968400D01*
X254720800Y-47968400D02*
X257695800Y-47968400D01*
X48145800Y-33968400D02*
X34145800Y-33968400D01*
X53195800Y-33968400D02*
X53195800Y-33968400D01*
X129395800Y-33968400D02*
X129395800Y-33968400D01*
X129395800Y-33968400D02*
X129395800Y-47968400D01*
X-23004200Y-33968400D02*
X-23004200Y-33968400D01*
X86244800Y-33968400D02*
X72244800Y-33968400D01*
X72244800Y-47968400D02*
X86244800Y-47968400D01*
X124345800Y-47968400D02*
X124345800Y-33968400D01*
X72244800Y-33968400D02*
X72244800Y-33968400D01*
X34145800Y-47968400D02*
X48145800Y-47968400D01*
X48145800Y-47968400D02*
X48145800Y-33968400D01*
X67195800Y-33968400D02*
X53195800Y-33968400D01*
X86244800Y-47968400D02*
X86244800Y-33968400D01*
X254720800Y-48938400D02*
X254720800Y-47968400D01*
X-3954200Y-33968400D02*
X-3954200Y-33968400D01*
X-3954200Y-33968400D02*
X-3954200Y-47968400D01*
X15095800Y-33968400D02*
X15095800Y-47968400D01*
X15095800Y-47968400D02*
X29095800Y-47968400D01*
X15095800Y-33968400D02*
X15095800Y-33968400D01*
X91294800Y-47968400D02*
X105295800Y-47968400D01*
X105295800Y-47968400D02*
X105295800Y-33968400D01*
X224645800Y-33968400D02*
X224645800Y-33968400D01*
X-23004200Y-33968400D02*
X-23004200Y-47968400D01*
X-9004200Y-47968400D02*
X-9004200Y-33968400D01*
X10045800Y-33968400D02*
X-3954200Y-33968400D01*
X53195800Y-47968400D02*
X67195800Y-47968400D01*
X257695800Y-47968400D02*
X257695800Y-33968400D01*
X257695800Y-33968400D02*
X224645800Y-33968400D01*
X34145800Y-33968400D02*
X34145800Y-33968400D01*
X53195800Y-33968400D02*
X53195800Y-47968400D01*
X34145800Y-33968400D02*
X34145800Y-47968400D01*
X91294800Y-33968400D02*
X91294800Y-47968400D01*
X91294800Y-33968400D02*
X91294800Y-33968400D01*
X110345800Y-47968400D02*
X124345800Y-47968400D01*
X124345800Y-33968400D02*
X110345800Y-33968400D01*
X129395800Y-47968400D02*
X143395800Y-47968400D01*
X143395800Y-33968400D02*
X129395800Y-33968400D01*
X148445800Y-47968400D02*
X162445800Y-47968400D01*
X162445800Y-47968400D02*
X162445800Y-33968400D01*
X162445800Y-33968400D02*
X148445800Y-33968400D01*
X167495800Y-33968400D02*
X167495800Y-47968400D01*
X167495800Y-47968400D02*
X181495800Y-47968400D01*
X181495800Y-33968400D02*
X167495800Y-33968400D01*
X167495800Y-33968400D02*
X167495800Y-33968400D01*
X186545800Y-47968400D02*
X200545800Y-47968400D01*
X200545800Y-47968400D02*
X200545800Y-33968400D01*
X219595800Y-47968400D02*
X219595800Y-33968400D01*
X219595800Y-33968400D02*
X205595800Y-33968400D01*
X205595800Y-47968400D02*
X219595800Y-47968400D01*
X186545800Y-33968400D02*
X186545800Y-33968400D01*
X205595800Y-33968400D02*
X205595800Y-47968400D01*
X156900000Y-3888000D02*
X157284800Y-4205500D01*
X157993500Y-6568000D02*
X157842000Y-7056000D01*
X157842000Y-7056000D02*
X157602300Y-7497700D01*
X156900000Y-8200000D02*
X156458300Y-8439700D01*
X157602300Y-7497700D02*
X157284800Y-7882500D01*
X157842000Y-5032000D02*
X157993500Y-5520000D01*
X155446300Y-8644000D02*
X154922300Y-8591200D01*
X157284800Y-7882500D02*
X156900000Y-8200000D01*
X156458300Y-8439700D02*
X155970300Y-8591200D01*
X155970300Y-3496800D02*
X156458300Y-3648300D01*
X157602300Y-4590300D02*
X157842000Y-5032000D01*
X153992600Y-8200000D02*
X153607800Y-7882500D01*
X156458300Y-3648300D02*
X156900000Y-3888000D01*
X155970300Y-8591200D02*
X155446300Y-8644000D01*
X153607800Y-7882500D02*
X153290300Y-7497700D01*
X157993500Y-5520000D02*
X158046300Y-6044000D01*
X153290300Y-7497700D02*
X153050600Y-7056000D01*
X152899100Y-6568000D02*
X152846300Y-6044000D01*
X153050600Y-7056000D02*
X152899100Y-6568000D01*
X158046300Y-6044000D02*
X157993500Y-6568000D01*
X157284800Y-4205500D02*
X157602300Y-4590300D01*
X154922300Y-8591200D02*
X154434300Y-8439700D01*
X154434300Y-8439700D02*
X153992600Y-8200000D01*
X347763900Y-4206700D02*
X348056000Y-5144200D01*
X347302000Y-3357500D02*
X347763900Y-4206700D01*
X348056000Y-5144200D02*
X348157900Y-6149700D01*
X-33785200Y-1543700D02*
X-32847700Y-1251600D01*
X343158000Y-1149700D02*
X344163500Y-1251600D01*
X345101000Y-1543700D02*
X345950200Y-2005600D01*
X346690600Y-2617000D02*
X347302000Y-3357500D01*
X-31842200Y-1149700D02*
X343158000Y-1149700D01*
X345950200Y-2005600D02*
X346690600Y-2617000D01*
X344163500Y-1251600D02*
X345101000Y-1543700D01*
X-32847700Y-1251600D02*
X-31842200Y-1149700D01*
X-35374800Y-136682400D02*
X-35986200Y-135941900D01*
X-36448100Y-135092700D02*
X-36740200Y-134155200D01*
X-36740200Y-5144200D02*
X-36448100Y-4206700D01*
X-36448100Y-4206700D02*
X-35986200Y-3357500D01*
X-36842100Y-6149700D02*
X-36740200Y-5144200D01*
X-35986200Y-3357500D02*
X-35374800Y-2617000D01*
X-35374800Y-2617000D02*
X-34634400Y-2005600D01*
X-34634400Y-2005600D02*
X-33785200Y-1543700D01*
X-35986200Y-135941900D02*
X-36448100Y-135092700D01*
X-36740200Y-134155200D02*
X-36842100Y-133149700D01*
X-36842100Y-133149700D02*
X-36842100Y-6149700D01*
X-29653700Y-6044000D02*
X-29600900Y-5520000D01*
X-29449400Y-5032000D02*
X-29209700Y-4590300D01*
X-29209700Y-4590300D02*
X-28892200Y-4205500D01*
X-29600900Y-5520000D02*
X-29449400Y-5032000D01*
X-28507400Y-3888000D02*
X-28065700Y-3648300D01*
X-27053700Y-3444000D02*
X-27053700Y-3444000D01*
X59446400Y-3444000D02*
X59970400Y-3496800D01*
X-28892200Y-4205500D02*
X-28507400Y-3888000D01*
X-28065700Y-3648300D02*
X-27577700Y-3496800D01*
X-27577700Y-3496800D02*
X-27053700Y-3444000D01*
X-29600900Y-6568000D02*
X-29653700Y-6044000D01*
X62046400Y-6044000D02*
X61993600Y-6568000D01*
X61842100Y-5032000D02*
X61993600Y-5520000D01*
X61993600Y-6568000D02*
X61842100Y-7056000D01*
X60458400Y-3648300D02*
X60900100Y-3888000D01*
X61842100Y-7056000D02*
X61602400Y-7497700D01*
X61602400Y-7497700D02*
X61284900Y-7882500D01*
X59970400Y-3496800D02*
X60458400Y-3648300D01*
X61602400Y-4590300D02*
X61842100Y-5032000D01*
X61284900Y-4205500D02*
X61602400Y-4590300D01*
X61993600Y-5520000D02*
X62046400Y-6044000D01*
X60900100Y-3888000D02*
X61284900Y-4205500D01*
X-26529700Y-130496800D02*
X-26041700Y-130648300D01*
X-26041700Y-130648300D02*
X-25600000Y-130888000D01*
X336107800Y-4205500D02*
X336492600Y-3888000D01*
X336934300Y-3648300D02*
X337422300Y-3496800D01*
X-24453700Y-133044000D02*
X-24506500Y-133568000D01*
X-29600900Y-133568000D02*
X-29653700Y-133044000D01*
X-27577700Y-135591200D02*
X-28065700Y-135439700D01*
X-29209700Y-131590300D02*
X-28892200Y-131205500D01*
X-24658000Y-134056000D02*
X-24897700Y-134497700D01*
X337946300Y-3444000D02*
X337946300Y-3444000D01*
X-29449400Y-132032000D02*
X-29209700Y-131590300D01*
X-28065700Y-130648300D02*
X-27577700Y-130496800D01*
X-27053700Y-130444000D02*
X-27053700Y-130444000D01*
X-24506500Y-133568000D02*
X-24658000Y-134056000D01*
X61842100Y-132032000D02*
X61993600Y-132520000D01*
X336492600Y-3888000D02*
X336934300Y-3648300D01*
X-25600000Y-135200000D02*
X-26041700Y-135439700D01*
X-27053700Y-135644000D02*
X-27577700Y-135591200D01*
X-29209700Y-134497700D02*
X-29449400Y-134056000D01*
X-29600900Y-132520000D02*
X-29449400Y-132032000D01*
X-27577700Y-130496800D02*
X-27053700Y-130444000D01*
X-25215200Y-131205500D02*
X-24897700Y-131590300D01*
X59446400Y-130444000D02*
X59970400Y-130496800D01*
X59970400Y-130496800D02*
X60458400Y-130648300D01*
X60900100Y-130888000D02*
X61284900Y-131205500D01*
X335790300Y-4590300D02*
X336107800Y-4205500D01*
X-24506500Y-132520000D02*
X-24453700Y-133044000D01*
X-26529700Y-135591200D02*
X-27053700Y-135644000D01*
X-24658000Y-132032000D02*
X-24506500Y-132520000D01*
X-28065700Y-135439700D02*
X-28507400Y-135200000D01*
X-27053700Y-130444000D02*
X-26529700Y-130496800D01*
X60458400Y-130648300D02*
X60900100Y-130888000D01*
X61284900Y-131205500D02*
X61602400Y-131590300D01*
X337422300Y-3496800D02*
X337946300Y-3444000D01*
X-25600000Y-130888000D02*
X-25215200Y-131205500D01*
X-24897700Y-134497700D02*
X-25215200Y-134882500D01*
X-28892200Y-134882500D02*
X-29209700Y-134497700D01*
X-28507400Y-130888000D02*
X-28065700Y-130648300D01*
X-29653700Y-133044000D02*
X-29600900Y-132520000D01*
X61602400Y-131590300D02*
X61842100Y-132032000D01*
X-24897700Y-131590300D02*
X-24658000Y-132032000D01*
X-28892200Y-131205500D02*
X-28507400Y-130888000D01*
X-25215200Y-134882500D02*
X-25600000Y-135200000D01*
X-28507400Y-135200000D02*
X-28892200Y-134882500D01*
X-26041700Y-135439700D02*
X-26529700Y-135591200D01*
X-29449400Y-134056000D02*
X-29600900Y-133568000D01*
X56846400Y-6044000D02*
X56899200Y-5520000D01*
X56899200Y-5520000D02*
X57050700Y-5032000D01*
X57290400Y-4590300D02*
X57607900Y-4205500D01*
X57992700Y-3888000D02*
X58434400Y-3648300D01*
X58922400Y-3496800D02*
X59446400Y-3444000D01*
X155446300Y-3444000D02*
X155970300Y-3496800D01*
X59446400Y-3444000D02*
X59446400Y-3444000D01*
X56899200Y-6568000D02*
X56846400Y-6044000D01*
X57050700Y-5032000D02*
X57290400Y-4590300D01*
X57607900Y-4205500D02*
X57992700Y-3888000D01*
X58434400Y-3648300D02*
X58922400Y-3496800D01*
X345101000Y-137755700D02*
X344163500Y-138047800D01*
X347763900Y-135092700D02*
X347302000Y-135941900D01*
X344163500Y-138047800D02*
X343158000Y-138149700D01*
X-27053700Y-3444000D02*
X-26529700Y-3496800D01*
X348157900Y-6149700D02*
X348157900Y-133149700D01*
X348056000Y-134155200D02*
X347763900Y-135092700D01*
X345950200Y-137293800D02*
X345101000Y-137755700D01*
X346690600Y-136682400D02*
X345950200Y-137293800D01*
X343158000Y-138149700D02*
X343158000Y-138149700D01*
X347302000Y-135941900D02*
X346690600Y-136682400D01*
X348157900Y-133149700D02*
X348056000Y-134155200D01*
X57957800Y-91118400D02*
X57957800Y-105118400D01*
X153207800Y-105118400D02*
X167207800Y-105118400D01*
X262745800Y-105118400D02*
X276745800Y-105118400D01*
X295795800Y-91118400D02*
X281795800Y-91118400D01*
X52907800Y-91118400D02*
X38907800Y-91118400D01*
X77007800Y-91118400D02*
X77007800Y-91118400D01*
X91007800Y-91118400D02*
X77007800Y-91118400D01*
X115107800Y-105118400D02*
X129107800Y-105118400D01*
X129107800Y-91118400D02*
X115107800Y-91118400D01*
X167207800Y-91118400D02*
X153207800Y-91118400D01*
X134157800Y-105118400D02*
X148157800Y-105118400D01*
X153207800Y-91118400D02*
X153207800Y-91118400D01*
X172257800Y-91118400D02*
X172257800Y-105118400D01*
X134157800Y-91118400D02*
X134157800Y-91118400D01*
X172257800Y-105118400D02*
X186257800Y-105118400D01*
X262745800Y-91118400D02*
X262745800Y-105118400D01*
X77007800Y-105118400D02*
X91007800Y-105118400D01*
X71957800Y-105118400D02*
X71957800Y-91118400D01*
X57957800Y-105118400D02*
X71957800Y-105118400D01*
X96057800Y-91118400D02*
X96057800Y-91118400D01*
X148157800Y-91118400D02*
X134157800Y-91118400D01*
X191307800Y-105118400D02*
X205307800Y-105118400D01*
X110057800Y-105118400D02*
X110057800Y-91118400D01*
X71957800Y-91118400D02*
X57957800Y-91118400D01*
X153207800Y-91118400D02*
X153207800Y-105118400D01*
X186257800Y-105118400D02*
X186257800Y-91118400D01*
X205307800Y-105118400D02*
X205307800Y-91118400D01*
X276745800Y-91118400D02*
X262745800Y-91118400D01*
X110057800Y-91118400D02*
X96057800Y-91118400D01*
X191307800Y-91118400D02*
X191307800Y-105118400D01*
X262745800Y-91118400D02*
X262745800Y-91118400D01*
X281795800Y-91118400D02*
X281795800Y-105118400D01*
X96057800Y-91118400D02*
X96057800Y-105118400D01*
X281795800Y-105118400D02*
X295795800Y-105118400D01*
X77007800Y-91118400D02*
X77007800Y-105118400D01*
X38907800Y-91118400D02*
X38907800Y-91118400D01*
X115107800Y-91118400D02*
X115107800Y-105118400D01*
X134157800Y-91118400D02*
X134157800Y-105118400D01*
X96057800Y-105118400D02*
X110057800Y-105118400D01*
X172257800Y-91118400D02*
X172257800Y-91118400D01*
X167207800Y-105118400D02*
X167207800Y-91118400D01*
X129107800Y-105118400D02*
X129107800Y-91118400D01*
X191307800Y-91118400D02*
X191307800Y-91118400D01*
X276745800Y-105118400D02*
X276745800Y-91118400D01*
X186257800Y-91118400D02*
X172257800Y-91118400D01*
X115107800Y-91118400D02*
X115107800Y-91118400D01*
X91007800Y-105118400D02*
X91007800Y-91118400D01*
X57957800Y-91118400D02*
X57957800Y-91118400D01*
X148157800Y-105118400D02*
X148157800Y-91118400D01*
X205307800Y-91118400D02*
X191307800Y-91118400D01*
X295795800Y-105118400D02*
X295795800Y-91118400D01*
X281795800Y-91118400D02*
X281795800Y-91118400D01*
X314845800Y-105118400D02*
X314845800Y-91118400D01*
X300845800Y-91118400D02*
X300845800Y-91118400D01*
X228395300Y-72068400D02*
X228395300Y-71318400D01*
X300845800Y-91118400D02*
X300845800Y-105118400D01*
X300845800Y-105118400D02*
X314845800Y-105118400D01*
X228395300Y-71318400D02*
X225095300Y-71318400D01*
X225095300Y-71318400D02*
X225095300Y-72068400D01*
X225095300Y-72068400D02*
X219882800Y-72068400D01*
X219882800Y-72068400D02*
X219882800Y-86068400D01*
X219882800Y-86068400D02*
X225238800Y-86068400D01*
X314845800Y-91118400D02*
X300845800Y-91118400D01*
X225238800Y-86068400D02*
X225238800Y-87038400D01*
X243695800Y-92588400D02*
X242551800Y-92588400D01*
X33857800Y-105118400D02*
X33857800Y-91118400D01*
X217501800Y-91118400D02*
X241026800Y-91118400D01*
X9451800Y-106088400D02*
X9451800Y-105118400D01*
X6151800Y-106088400D02*
X9451800Y-106088400D01*
X244276800Y-106088400D02*
X247576800Y-106088400D01*
X33857800Y-91118400D02*
X19857800Y-91118400D01*
X223776800Y-106088400D02*
X220476800Y-106088400D01*
X242551800Y-100417400D02*
X242551800Y-104887400D01*
X244276800Y-105118400D02*
X244276800Y-106088400D01*
X242551800Y-95818400D02*
X242551800Y-100417400D01*
X19857800Y-91118400D02*
X19857800Y-105118400D01*
X19857800Y-91118400D02*
X19857800Y-91118400D01*
X38907800Y-91118400D02*
X38907800Y-105118400D01*
X257695800Y-105118400D02*
X257695800Y-91118400D01*
X241026800Y-95818400D02*
X241026800Y-100417400D01*
X52907800Y-105118400D02*
X52907800Y-91118400D01*
X9451800Y-105118400D02*
X14807800Y-105118400D01*
X241026800Y-100417400D02*
X241026800Y-105118400D01*
X220476800Y-106088400D02*
X220476800Y-105118400D01*
X38907800Y-105118400D02*
X52907800Y-105118400D01*
X242551800Y-92588400D02*
X242551800Y-95818400D01*
X217501800Y-105118400D02*
X217501800Y-91118400D01*
X223776800Y-105118400D02*
X223776800Y-106088400D01*
X243695800Y-105118400D02*
X244276800Y-105118400D01*
X247576800Y-105118400D02*
X257695800Y-105118400D01*
X242551800Y-104887400D02*
X243695800Y-104887400D01*
X243695800Y-104887400D02*
X243695800Y-105118400D01*
X14807800Y-91118400D02*
X-20623200Y-91118400D01*
X247576800Y-106088400D02*
X247576800Y-105118400D01*
X242551800Y-95818400D02*
X242551800Y-95818400D01*
X19857800Y-105118400D02*
X33857800Y-105118400D01*
X241026800Y-100417400D02*
X241026800Y-100417400D01*
X241026800Y-91118400D02*
X241026800Y-95818400D01*
X257695800Y-91118400D02*
X243695800Y-91118400D01*
X14807800Y-105118400D02*
X14807800Y-91118400D01*
X-20623200Y-91118400D02*
X-20623200Y-91118400D01*
X241026800Y-105118400D02*
X223776800Y-105118400D01*
X243695800Y-91118400D02*
X243695800Y-92588400D01*
X220476800Y-105118400D02*
X217501800Y-105118400D01*
X337946300Y-135644000D02*
X337422300Y-135591200D01*
X340102300Y-131590300D02*
X340342000Y-132032000D01*
X336934300Y-135439700D02*
X336492600Y-135200000D01*
X336107800Y-134882500D02*
X335790300Y-134497700D01*
X339784800Y-131205500D02*
X340102300Y-131590300D01*
X340102300Y-134497700D02*
X339784800Y-134882500D01*
X335790300Y-134497700D02*
X335550600Y-134056000D01*
X337422300Y-135591200D02*
X336934300Y-135439700D01*
X338470300Y-130496800D02*
X338958300Y-130648300D01*
X336492600Y-135200000D02*
X336107800Y-134882500D01*
X335550600Y-134056000D02*
X335399100Y-133568000D01*
X339784800Y-134882500D02*
X339400000Y-135200000D01*
X340546300Y-133044000D02*
X340493500Y-133568000D01*
X338958300Y-135439700D02*
X338470300Y-135591200D01*
X340342000Y-134056000D02*
X340102300Y-134497700D01*
X337946300Y-130444000D02*
X338470300Y-130496800D01*
X339400000Y-130888000D02*
X339784800Y-131205500D01*
X340493500Y-132520000D02*
X340546300Y-133044000D01*
X340493500Y-133568000D02*
X340342000Y-134056000D01*
X340342000Y-132032000D02*
X340493500Y-132520000D01*
X339400000Y-135200000D02*
X338958300Y-135439700D01*
X338470300Y-135591200D02*
X337946300Y-135644000D01*
X338958300Y-130648300D02*
X339400000Y-130888000D01*
X-24658000Y-7056000D02*
X-24897700Y-7497700D01*
X-26529700Y-3496800D02*
X-26041700Y-3648300D01*
X-24897700Y-7497700D02*
X-25215200Y-7882500D01*
X-24506500Y-5520000D02*
X-24453700Y-6044000D01*
X-24453700Y-6044000D02*
X-24506500Y-6568000D01*
X-24506500Y-6568000D02*
X-24658000Y-7056000D01*
X-26041700Y-3648300D02*
X-25600000Y-3888000D01*
X-25600000Y-3888000D02*
X-25215200Y-4205500D01*
X-25215200Y-4205500D02*
X-24897700Y-4590300D01*
X-24897700Y-4590300D02*
X-24658000Y-5032000D01*
X-24658000Y-5032000D02*
X-24506500Y-5520000D01*
X158820800Y-110397400D02*
X158820800Y-114867400D01*
X335399100Y-133568000D02*
X335346300Y-133044000D01*
X158820800Y-114867400D02*
X158820800Y-119466400D01*
X336107800Y-131205500D02*
X336492600Y-130888000D01*
X158820800Y-122697400D02*
X151945800Y-122697400D01*
X151945800Y-122697400D02*
X151945800Y-119466400D01*
X336934300Y-130648300D02*
X337422300Y-130496800D01*
X151945800Y-110397400D02*
X153670800Y-110397400D01*
X153670800Y-110397400D02*
X153670800Y-109197400D01*
X158820800Y-114867400D02*
X158820800Y-114867400D01*
X337422300Y-130496800D02*
X337946300Y-130444000D01*
X151945800Y-114867400D02*
X151945800Y-110397400D01*
X335550600Y-132032000D02*
X335790300Y-131590300D01*
X337946300Y-130444000D02*
X337946300Y-130444000D01*
X335346300Y-133044000D02*
X335399100Y-132520000D01*
X153670800Y-109197400D02*
X157095800Y-109197400D01*
X157095800Y-109197400D02*
X157095800Y-110397400D01*
X157095800Y-110397400D02*
X158820800Y-110397400D01*
X335399100Y-132520000D02*
X335550600Y-132032000D01*
X335790300Y-131590300D02*
X336107800Y-131205500D01*
X336492600Y-130888000D02*
X336934300Y-130648300D01*
X158820800Y-119466400D02*
X158820800Y-122697400D01*
X151945800Y-119466400D02*
X151945800Y-114867400D01*
X319895800Y-86068400D02*
X333895800Y-86068400D01*
X43670800Y-53018400D02*
X43670800Y-53018400D01*
X100820800Y-67018400D02*
X114820800Y-67018400D01*
X318925800Y-59293400D02*
X319895800Y-59293400D01*
X319895800Y-55992400D02*
X318925800Y-55992400D01*
X19570800Y-67018400D02*
X19570800Y-53018400D01*
X38620800Y-67018400D02*
X38620800Y-53018400D01*
X81770800Y-53018400D02*
X81770800Y-53018400D01*
X100820800Y-53018400D02*
X100820800Y-53018400D01*
X138920800Y-53018400D02*
X138920800Y-67018400D01*
X318925800Y-79793400D02*
X318925800Y-83093400D01*
X333895800Y-53018400D02*
X319895800Y-53018400D01*
X300845800Y-72068400D02*
X300845800Y-72068400D01*
X319895800Y-53018400D02*
X319895800Y-53018400D01*
X314845800Y-72068400D02*
X300845800Y-72068400D01*
X-18242200Y-67018400D02*
X-4242200Y-67018400D01*
X-4242200Y-53018400D02*
X-18242200Y-53018400D01*
X19570800Y-53018400D02*
X5570800Y-53018400D01*
X5570800Y-53018400D02*
X5570800Y-53018400D01*
X314845800Y-86068400D02*
X314845800Y-72068400D01*
X319895800Y-83093400D02*
X319895800Y-86068400D01*
X333895800Y-86068400D02*
X333895800Y-53018400D01*
X24620800Y-53018400D02*
X24620800Y-67018400D01*
X24620800Y-67018400D02*
X38620800Y-67018400D01*
X38620800Y-53018400D02*
X24620800Y-53018400D01*
X24620800Y-53018400D02*
X24620800Y-53018400D01*
X57670800Y-67018400D02*
X57670800Y-53018400D01*
X-18242200Y-53018400D02*
X-18242200Y-67018400D01*
X-4242200Y-67018400D02*
X-4242200Y-53018400D01*
X318925800Y-55992400D02*
X318925800Y-59293400D01*
X318925800Y-83093400D02*
X319895800Y-83093400D01*
X43670800Y-67018400D02*
X57670800Y-67018400D01*
X62720800Y-53018400D02*
X62720800Y-67018400D01*
X62720800Y-67018400D02*
X76720800Y-67018400D01*
X319895800Y-79793400D02*
X318925800Y-79793400D01*
X43670800Y-53018400D02*
X43670800Y-67018400D01*
X76720800Y-67018400D02*
X76720800Y-53018400D01*
X76720800Y-53018400D02*
X62720800Y-53018400D01*
X62720800Y-53018400D02*
X62720800Y-53018400D01*
X81770800Y-53018400D02*
X81770800Y-67018400D01*
X-18242200Y-53018400D02*
X-18242200Y-53018400D01*
X57670800Y-53018400D02*
X43670800Y-53018400D01*
X81770800Y-67018400D02*
X95770800Y-67018400D01*
X319895800Y-59293400D02*
X319895800Y-79793400D01*
X95770800Y-67018400D02*
X95770800Y-53018400D01*
X95770800Y-53018400D02*
X81770800Y-53018400D01*
X5570800Y-67018400D02*
X19570800Y-67018400D01*
X319895800Y-53018400D02*
X319895800Y-55992400D01*
X5570800Y-53018400D02*
X5570800Y-67018400D01*
X100820800Y-53018400D02*
X100820800Y-67018400D01*
X114820800Y-67018400D02*
X114820800Y-53018400D01*
X114820800Y-53018400D02*
X100820800Y-53018400D01*
X119870800Y-53018400D02*
X119870800Y-67018400D01*
X119870800Y-67018400D02*
X133870800Y-67018400D01*
X133870800Y-67018400D02*
X133870800Y-53018400D01*
X133870800Y-53018400D02*
X119870800Y-53018400D01*
X119870800Y-53018400D02*
X119870800Y-53018400D01*
X138920800Y-67018400D02*
X152920800Y-67018400D01*
X152920800Y-67018400D02*
X152920800Y-53018400D01*
X152920800Y-53018400D02*
X138920800Y-53018400D01*
X138920800Y-53018400D02*
X138920800Y-53018400D01*
X157970800Y-53018400D02*
X157970800Y-67018400D01*
X157970800Y-67018400D02*
X171970800Y-67018400D01*
X171970800Y-67018400D02*
X171970800Y-53018400D01*
X196070800Y-67018400D02*
X210070800Y-67018400D01*
X314845800Y-53018400D02*
X300845800Y-53018400D01*
X177020800Y-67018400D02*
X191020800Y-67018400D01*
X191020800Y-53018400D02*
X177020800Y-53018400D01*
X295795800Y-67018400D02*
X295795800Y-53018400D01*
X215120800Y-53018400D02*
X215120800Y-53018400D01*
X300845800Y-53018400D02*
X300845800Y-67018400D01*
X281795800Y-53018400D02*
X281795800Y-53018400D01*
X224645800Y-33968400D02*
X224645800Y-47968400D01*
X314845800Y-67018400D02*
X314845800Y-53018400D01*
X230920800Y-48938400D02*
X230920800Y-47968400D01*
X251420800Y-48938400D02*
X254720800Y-48938400D01*
X196070800Y-53018400D02*
X196070800Y-67018400D01*
X191020800Y-67018400D02*
X191020800Y-53018400D01*
X229119800Y-67018400D02*
X229119800Y-53018400D01*
X177020800Y-53018400D02*
X177020800Y-67018400D01*
X210070800Y-67018400D02*
X210070800Y-53018400D01*
X210070800Y-53018400D02*
X196070800Y-53018400D01*
X276745800Y-53018400D02*
X262745800Y-53018400D01*
X196070800Y-53018400D02*
X196070800Y-53018400D01*
X224645800Y-47968400D02*
X227619800Y-47968400D01*
X262745800Y-53018400D02*
X262745800Y-67018400D01*
X171970800Y-53018400D02*
X157970800Y-53018400D01*
X262745800Y-53018400D02*
X262745800Y-53018400D01*
X281795800Y-53018400D02*
X281795800Y-67018400D01*
X300845800Y-53018400D02*
X300845800Y-53018400D01*
X227619800Y-48938400D02*
X230920800Y-48938400D01*
X262745800Y-67018400D02*
X276745800Y-67018400D01*
X157970800Y-53018400D02*
X157970800Y-53018400D01*
X177020800Y-53018400D02*
X177020800Y-53018400D01*
X215120800Y-67018400D02*
X229119800Y-67018400D01*
X281795800Y-67018400D02*
X295795800Y-67018400D01*
X215120800Y-53018400D02*
X215120800Y-67018400D01*
X276745800Y-67018400D02*
X276745800Y-53018400D01*
X295795800Y-53018400D02*
X281795800Y-53018400D01*
X300845800Y-67018400D02*
X314845800Y-67018400D01*
X227619800Y-47968400D02*
X227619800Y-48938400D01*
X230920800Y-47968400D02*
X251420800Y-47968400D01*
X229119800Y-53018400D02*
X215120800Y-53018400D01*
X251420800Y-47968400D02*
X251420800Y-48938400D01*
G04 #@! TD*
M02*
