G04 #@! TF.GenerationSoftware,KiCad,Pcbnew,(5.0.0)*
G04 #@! TF.CreationDate,2018-07-31T18:47:20-04:00*
G04 #@! TF.ProjectId,bottom_plate,626F74746F6D5F706C6174652E6B6963,rev?*
G04 #@! TF.SameCoordinates,Original*
G04 #@! TF.FileFunction,Legend,Top*
G04 #@! TF.FilePolarity,Positive*
%FSLAX46Y46*%
G04 Gerber Fmt 4.6, Leading zero omitted, Abs format (unit mm)*
G04 Created by KiCad (PCBNEW (5.0.0)) date 07/31/18 18:47:20*
%MOMM*%
%LPD*%
G01*
G04 APERTURE LIST*
%ADD10C,0.125000*%
%ADD11C,0.250000*%
G04 APERTURE END LIST*
D10*
X14966190Y-41679523D02*
X15323333Y-41679523D01*
X15394761Y-41703333D01*
X15442380Y-41750952D01*
X15466190Y-41822380D01*
X15466190Y-41870000D01*
X15466190Y-41203333D02*
X15466190Y-41441428D01*
X14966190Y-41441428D01*
X15418571Y-40750952D02*
X15442380Y-40774761D01*
X15466190Y-40846190D01*
X15466190Y-40893809D01*
X15442380Y-40965238D01*
X15394761Y-41012857D01*
X15347142Y-41036666D01*
X15251904Y-41060476D01*
X15180476Y-41060476D01*
X15085238Y-41036666D01*
X15037619Y-41012857D01*
X14990000Y-40965238D01*
X14966190Y-40893809D01*
X14966190Y-40846190D01*
X14990000Y-40774761D01*
X15013809Y-40750952D01*
X14966190Y-40393809D02*
X15323333Y-40393809D01*
X15394761Y-40417619D01*
X15442380Y-40465238D01*
X15466190Y-40536666D01*
X15466190Y-40584285D01*
X15466190Y-39917619D02*
X15466190Y-40155714D01*
X14966190Y-40155714D01*
X15418571Y-39465238D02*
X15442380Y-39489047D01*
X15466190Y-39560476D01*
X15466190Y-39608095D01*
X15442380Y-39679523D01*
X15394761Y-39727142D01*
X15347142Y-39750952D01*
X15251904Y-39774761D01*
X15180476Y-39774761D01*
X15085238Y-39750952D01*
X15037619Y-39727142D01*
X14990000Y-39679523D01*
X14966190Y-39608095D01*
X14966190Y-39560476D01*
X14990000Y-39489047D01*
X15013809Y-39465238D01*
X14966190Y-39108095D02*
X15323333Y-39108095D01*
X15394761Y-39131904D01*
X15442380Y-39179523D01*
X15466190Y-39250952D01*
X15466190Y-39298571D01*
X15466190Y-38631904D02*
X15466190Y-38870000D01*
X14966190Y-38870000D01*
X15418571Y-38179523D02*
X15442380Y-38203333D01*
X15466190Y-38274761D01*
X15466190Y-38322380D01*
X15442380Y-38393809D01*
X15394761Y-38441428D01*
X15347142Y-38465238D01*
X15251904Y-38489047D01*
X15180476Y-38489047D01*
X15085238Y-38465238D01*
X15037619Y-38441428D01*
X14990000Y-38393809D01*
X14966190Y-38322380D01*
X14966190Y-38274761D01*
X14990000Y-38203333D01*
X15013809Y-38179523D01*
X14966190Y-37822380D02*
X15323333Y-37822380D01*
X15394761Y-37846190D01*
X15442380Y-37893809D01*
X15466190Y-37965238D01*
X15466190Y-38012857D01*
X15466190Y-37346190D02*
X15466190Y-37584285D01*
X14966190Y-37584285D01*
X15418571Y-36893809D02*
X15442380Y-36917619D01*
X15466190Y-36989047D01*
X15466190Y-37036666D01*
X15442380Y-37108095D01*
X15394761Y-37155714D01*
X15347142Y-37179523D01*
X15251904Y-37203333D01*
X15180476Y-37203333D01*
X15085238Y-37179523D01*
X15037619Y-37155714D01*
X14990000Y-37108095D01*
X14966190Y-37036666D01*
X14966190Y-36989047D01*
X14990000Y-36917619D01*
X15013809Y-36893809D01*
D11*
X-8094380Y-48585380D02*
X-8094380Y-47585380D01*
X-8094380Y-47966333D02*
X-7999142Y-47918714D01*
X-7808666Y-47918714D01*
X-7713428Y-47966333D01*
X-7665809Y-48013952D01*
X-7618190Y-48109190D01*
X-7618190Y-48394904D01*
X-7665809Y-48490142D01*
X-7713428Y-48537761D01*
X-7808666Y-48585380D01*
X-7999142Y-48585380D01*
X-8094380Y-48537761D01*
X-6761047Y-47918714D02*
X-6761047Y-48585380D01*
X-7189619Y-47918714D02*
X-7189619Y-48442523D01*
X-7142000Y-48537761D01*
X-7046761Y-48585380D01*
X-6903904Y-48585380D01*
X-6808666Y-48537761D01*
X-6761047Y-48490142D01*
X-5856285Y-48585380D02*
X-5856285Y-47585380D01*
X-5856285Y-48537761D02*
X-5951523Y-48585380D01*
X-6142000Y-48585380D01*
X-6237238Y-48537761D01*
X-6284857Y-48490142D01*
X-6332476Y-48394904D01*
X-6332476Y-48109190D01*
X-6284857Y-48013952D01*
X-6237238Y-47966333D01*
X-6142000Y-47918714D01*
X-5951523Y-47918714D01*
X-5856285Y-47966333D01*
X-4951523Y-47918714D02*
X-4951523Y-48728238D01*
X-4999142Y-48823476D01*
X-5046761Y-48871095D01*
X-5142000Y-48918714D01*
X-5284857Y-48918714D01*
X-5380095Y-48871095D01*
X-4951523Y-48537761D02*
X-5046761Y-48585380D01*
X-5237238Y-48585380D01*
X-5332476Y-48537761D01*
X-5380095Y-48490142D01*
X-5427714Y-48394904D01*
X-5427714Y-48109190D01*
X-5380095Y-48013952D01*
X-5332476Y-47966333D01*
X-5237238Y-47918714D01*
X-5046761Y-47918714D01*
X-4951523Y-47966333D01*
X-4094380Y-48537761D02*
X-4189619Y-48585380D01*
X-4380095Y-48585380D01*
X-4475333Y-48537761D01*
X-4522952Y-48442523D01*
X-4522952Y-48061571D01*
X-4475333Y-47966333D01*
X-4380095Y-47918714D01*
X-4189619Y-47918714D01*
X-4094380Y-47966333D01*
X-4046761Y-48061571D01*
X-4046761Y-48156809D01*
X-4522952Y-48252047D01*
X-3761047Y-47918714D02*
X-3380095Y-47918714D01*
X-3618190Y-47585380D02*
X-3618190Y-48442523D01*
X-3570571Y-48537761D01*
X-3475333Y-48585380D01*
X-3380095Y-48585380D01*
X-2999142Y-48585380D02*
X-2808666Y-48585380D01*
X-2713428Y-48537761D01*
X-2665809Y-48490142D01*
X-2570571Y-48347285D01*
X-2522952Y-48156809D01*
X-2522952Y-47775857D01*
X-2570571Y-47680619D01*
X-2618190Y-47633000D01*
X-2713428Y-47585380D01*
X-2903904Y-47585380D01*
X-2999142Y-47633000D01*
X-3046761Y-47680619D01*
X-3094380Y-47775857D01*
X-3094380Y-48013952D01*
X-3046761Y-48109190D01*
X-2999142Y-48156809D01*
X-2903904Y-48204428D01*
X-2713428Y-48204428D01*
X-2618190Y-48156809D01*
X-2570571Y-48109190D01*
X-2522952Y-48013952D01*
X-1665809Y-47585380D02*
X-1856285Y-47585380D01*
X-1951523Y-47633000D01*
X-1999142Y-47680619D01*
X-2094380Y-47823476D01*
X-2142000Y-48013952D01*
X-2142000Y-48394904D01*
X-2094380Y-48490142D01*
X-2046761Y-48537761D01*
X-1951523Y-48585380D01*
X-1761047Y-48585380D01*
X-1665809Y-48537761D01*
X-1618190Y-48490142D01*
X-1570571Y-48394904D01*
X-1570571Y-48156809D01*
X-1618190Y-48061571D01*
X-1665809Y-48013952D01*
X-1761047Y-47966333D01*
X-1951523Y-47966333D01*
X-2046761Y-48013952D01*
X-2094380Y-48061571D01*
X-2142000Y-48156809D01*
X-380095Y-48585380D02*
X-380095Y-47585380D01*
X-380095Y-47966333D02*
X-284857Y-47918714D01*
X-94380Y-47918714D01*
X857Y-47966333D01*
X48476Y-48013952D01*
X96095Y-48109190D01*
X96095Y-48394904D01*
X48476Y-48490142D01*
X857Y-48537761D01*
X-94380Y-48585380D01*
X-284857Y-48585380D01*
X-380095Y-48537761D01*
X429428Y-47918714D02*
X667523Y-48585380D01*
X905619Y-47918714D02*
X667523Y-48585380D01*
X572285Y-48823476D01*
X524666Y-48871095D01*
X429428Y-48918714D01*
X2048476Y-48585380D02*
X2048476Y-47585380D01*
X2286571Y-47585380D01*
X2429428Y-47633000D01*
X2524666Y-47728238D01*
X2572285Y-47823476D01*
X2619904Y-48013952D01*
X2619904Y-48156809D01*
X2572285Y-48347285D01*
X2524666Y-48442523D01*
X2429428Y-48537761D01*
X2286571Y-48585380D01*
X2048476Y-48585380D01*
X3191333Y-48585380D02*
X3096095Y-48537761D01*
X3048476Y-48490142D01*
X3000857Y-48394904D01*
X3000857Y-48109190D01*
X3048476Y-48013952D01*
X3096095Y-47966333D01*
X3191333Y-47918714D01*
X3334190Y-47918714D01*
X3429428Y-47966333D01*
X3477047Y-48013952D01*
X3524666Y-48109190D01*
X3524666Y-48394904D01*
X3477047Y-48490142D01*
X3429428Y-48537761D01*
X3334190Y-48585380D01*
X3191333Y-48585380D01*
X3953238Y-47918714D02*
X3953238Y-48585380D01*
X3953238Y-48013952D02*
X4000857Y-47966333D01*
X4096095Y-47918714D01*
X4238952Y-47918714D01*
X4334190Y-47966333D01*
X4381809Y-48061571D01*
X4381809Y-48585380D01*
X5286571Y-47918714D02*
X5286571Y-48585380D01*
X4857999Y-47918714D02*
X4857999Y-48442523D01*
X4905619Y-48537761D01*
X5000857Y-48585380D01*
X5143714Y-48585380D01*
X5238952Y-48537761D01*
X5286571Y-48490142D01*
X5619904Y-47918714D02*
X6000857Y-47918714D01*
X5762761Y-47585380D02*
X5762761Y-48442523D01*
X5810380Y-48537761D01*
X5905619Y-48585380D01*
X6000857Y-48585380D01*
X7667523Y-48490142D02*
X7619904Y-48537761D01*
X7477047Y-48585380D01*
X7381809Y-48585380D01*
X7238952Y-48537761D01*
X7143714Y-48442523D01*
X7096095Y-48347285D01*
X7048476Y-48156809D01*
X7048476Y-48013952D01*
X7096095Y-47823476D01*
X7143714Y-47728238D01*
X7238952Y-47633000D01*
X7381809Y-47585380D01*
X7477047Y-47585380D01*
X7619904Y-47633000D01*
X7667523Y-47680619D01*
X8524666Y-48585380D02*
X8524666Y-48061571D01*
X8477047Y-47966333D01*
X8381809Y-47918714D01*
X8191333Y-47918714D01*
X8096095Y-47966333D01*
X8524666Y-48537761D02*
X8429428Y-48585380D01*
X8191333Y-48585380D01*
X8096095Y-48537761D01*
X8048476Y-48442523D01*
X8048476Y-48347285D01*
X8096095Y-48252047D01*
X8191333Y-48204428D01*
X8429428Y-48204428D01*
X8524666Y-48156809D01*
X9000857Y-48585380D02*
X9000857Y-47585380D01*
X9000857Y-47966333D02*
X9096095Y-47918714D01*
X9286571Y-47918714D01*
X9381809Y-47966333D01*
X9429428Y-48013952D01*
X9477047Y-48109190D01*
X9477047Y-48394904D01*
X9429428Y-48490142D01*
X9381809Y-48537761D01*
X9286571Y-48585380D01*
X9096095Y-48585380D01*
X9000857Y-48537761D01*
X10048476Y-48585380D02*
X9953238Y-48537761D01*
X9905619Y-48442523D01*
X9905619Y-47585380D01*
X10810380Y-48537761D02*
X10715142Y-48585380D01*
X10524666Y-48585380D01*
X10429428Y-48537761D01*
X10381809Y-48442523D01*
X10381809Y-48061571D01*
X10429428Y-47966333D01*
X10524666Y-47918714D01*
X10715142Y-47918714D01*
X10810380Y-47966333D01*
X10857999Y-48061571D01*
X10857999Y-48156809D01*
X10381809Y-48252047D01*
X11238952Y-48537761D02*
X11334190Y-48585380D01*
X11524666Y-48585380D01*
X11619904Y-48537761D01*
X11667523Y-48442523D01*
X11667523Y-48394904D01*
X11619904Y-48299666D01*
X11524666Y-48252047D01*
X11381809Y-48252047D01*
X11286571Y-48204428D01*
X11238952Y-48109190D01*
X11238952Y-48061571D01*
X11286571Y-47966333D01*
X11381809Y-47918714D01*
X11524666Y-47918714D01*
X11619904Y-47966333D01*
X13286571Y-48585380D02*
X13286571Y-48061571D01*
X13238952Y-47966333D01*
X13143714Y-47918714D01*
X12953238Y-47918714D01*
X12857999Y-47966333D01*
X13286571Y-48537761D02*
X13191333Y-48585380D01*
X12953238Y-48585380D01*
X12857999Y-48537761D01*
X12810380Y-48442523D01*
X12810380Y-48347285D01*
X12857999Y-48252047D01*
X12953238Y-48204428D01*
X13191333Y-48204428D01*
X13286571Y-48156809D01*
X13762761Y-47918714D02*
X13762761Y-48585380D01*
X13762761Y-48013952D02*
X13810380Y-47966333D01*
X13905619Y-47918714D01*
X14048476Y-47918714D01*
X14143714Y-47966333D01*
X14191333Y-48061571D01*
X14191333Y-48585380D01*
X15096095Y-48585380D02*
X15096095Y-47585380D01*
X15096095Y-48537761D02*
X15000857Y-48585380D01*
X14810380Y-48585380D01*
X14715142Y-48537761D01*
X14667523Y-48490142D01*
X14619904Y-48394904D01*
X14619904Y-48109190D01*
X14667523Y-48013952D01*
X14715142Y-47966333D01*
X14810380Y-47918714D01*
X15000857Y-47918714D01*
X15096095Y-47966333D01*
X16619904Y-47585380D02*
X16619904Y-48299666D01*
X16572285Y-48442523D01*
X16477047Y-48537761D01*
X16334190Y-48585380D01*
X16238952Y-48585380D01*
X17286571Y-47585380D02*
X17477047Y-47585380D01*
X17572285Y-47633000D01*
X17667523Y-47728238D01*
X17715142Y-47918714D01*
X17715142Y-48252047D01*
X17667523Y-48442523D01*
X17572285Y-48537761D01*
X17477047Y-48585380D01*
X17286571Y-48585380D01*
X17191333Y-48537761D01*
X17096095Y-48442523D01*
X17048476Y-48252047D01*
X17048476Y-47918714D01*
X17096095Y-47728238D01*
X17191333Y-47633000D01*
X17286571Y-47585380D01*
X18286571Y-48585380D02*
X18191333Y-48537761D01*
X18143714Y-48442523D01*
X18143714Y-47585380D01*
X18667523Y-48585380D02*
X18667523Y-47918714D01*
X18667523Y-47585380D02*
X18619904Y-47633000D01*
X18667523Y-47680619D01*
X18715142Y-47633000D01*
X18667523Y-47585380D01*
X18667523Y-47680619D01*
X19143714Y-48585380D02*
X19143714Y-47918714D01*
X19143714Y-48013952D02*
X19191333Y-47966333D01*
X19286571Y-47918714D01*
X19429428Y-47918714D01*
X19524666Y-47966333D01*
X19572285Y-48061571D01*
X19572285Y-48585380D01*
X19572285Y-48061571D02*
X19619904Y-47966333D01*
X19715142Y-47918714D01*
X19857999Y-47918714D01*
X19953238Y-47966333D01*
X20000857Y-48061571D01*
X20000857Y-48585380D01*
X20619904Y-48585380D02*
X20524666Y-48537761D01*
X20477047Y-48490142D01*
X20429428Y-48394904D01*
X20429428Y-48109190D01*
X20477047Y-48013952D01*
X20524666Y-47966333D01*
X20619904Y-47918714D01*
X20762761Y-47918714D01*
X20857999Y-47966333D01*
X20905619Y-48013952D01*
X20953238Y-48109190D01*
X20953238Y-48394904D01*
X20905619Y-48490142D01*
X20857999Y-48537761D01*
X20762761Y-48585380D01*
X20619904Y-48585380D01*
X21381809Y-47918714D02*
X21381809Y-48585380D01*
X21381809Y-48013952D02*
X21429428Y-47966333D01*
X21524666Y-47918714D01*
X21667523Y-47918714D01*
X21762761Y-47966333D01*
X21810380Y-48061571D01*
X21810380Y-48585380D01*
M02*
