G04 #@! TF.GenerationSoftware,KiCad,Pcbnew,(5.0.0)*
G04 #@! TF.CreationDate,2018-07-31T18:47:20-04:00*
G04 #@! TF.ProjectId,bottom_plate,626F74746F6D5F706C6174652E6B6963,rev?*
G04 #@! TF.SameCoordinates,Original*
G04 #@! TF.FileFunction,Profile,NP*
%FSLAX46Y46*%
G04 Gerber Fmt 4.6, Leading zero omitted, Abs format (unit mm)*
G04 Created by KiCad (PCBNEW (5.0.0)) date 07/31/18 18:47:20*
%MOMM*%
%LPD*%
G01*
G04 APERTURE LIST*
G04 #@! TA.AperFunction,NonConductor*
%ADD10C,0.200000*%
G04 #@! TD*
G04 APERTURE END LIST*
D10*
G04 #@! TO.C,R1*
X263086400Y-154204400D02*
X263574400Y-154052900D01*
X266254400Y-158053800D02*
X265936900Y-158438600D01*
X352994100Y-155588100D02*
X353145600Y-156076100D01*
X266698400Y-156600100D02*
X266645600Y-157124100D01*
X353145600Y-156076100D02*
X353198400Y-156600100D01*
X352754400Y-155146400D02*
X352994100Y-155588100D01*
X352052100Y-154444100D02*
X352436900Y-154761600D01*
X261551200Y-156076100D02*
X261702700Y-155588100D01*
X264622400Y-159147300D02*
X264098400Y-159200100D01*
X350598400Y-154000100D02*
X351122400Y-154052900D01*
X264098400Y-154000100D02*
X264098400Y-154000100D01*
X262259900Y-154761600D02*
X262644700Y-154444100D01*
X261702700Y-155588100D02*
X261942400Y-155146400D01*
X265110400Y-154204400D02*
X265552100Y-154444100D01*
X261942400Y-155146400D02*
X262259900Y-154761600D01*
X262259900Y-158438600D02*
X261942400Y-158053800D01*
X266645600Y-156076100D02*
X266698400Y-156600100D01*
X266494100Y-155588100D02*
X266645600Y-156076100D01*
X352754400Y-158053800D02*
X352436900Y-158438600D01*
X351610400Y-158995800D02*
X351122400Y-159147300D01*
X262644700Y-158756100D02*
X262259900Y-158438600D01*
X352052100Y-158756100D02*
X351610400Y-158995800D01*
X353198400Y-156600100D02*
X353145600Y-157124100D01*
X262644700Y-154444100D02*
X263086400Y-154204400D01*
X261942400Y-158053800D02*
X261702700Y-157612100D01*
X265552100Y-158756100D02*
X265110400Y-158995800D01*
X265110400Y-158995800D02*
X264622400Y-159147300D01*
X352436900Y-154761600D02*
X352754400Y-155146400D01*
X266645600Y-157124100D02*
X266494100Y-157612100D01*
X263574400Y-154052900D02*
X264098400Y-154000100D01*
X261498400Y-156600100D02*
X261551200Y-156076100D01*
X263086400Y-158995800D02*
X262644700Y-158756100D01*
X352436900Y-158438600D02*
X352052100Y-158756100D01*
X352994100Y-157612100D02*
X352754400Y-158053800D01*
X261702700Y-157612100D02*
X261551200Y-157124100D01*
X353145600Y-157124100D02*
X352994100Y-157612100D01*
X264098400Y-159200100D02*
X263574400Y-159147300D01*
X351610400Y-154204400D02*
X352052100Y-154444100D01*
X351122400Y-154052900D02*
X351610400Y-154204400D01*
X265552100Y-154444100D02*
X265936900Y-154761600D01*
X261551200Y-157124100D02*
X261498400Y-156600100D01*
X266494100Y-157612100D02*
X266254400Y-158053800D01*
X263574400Y-159147300D02*
X263086400Y-158995800D01*
X266254400Y-155146400D02*
X266494100Y-155588100D01*
X265936900Y-154761600D02*
X266254400Y-155146400D01*
X265936900Y-158438600D02*
X265552100Y-158756100D01*
X313703656Y-55478971D02*
X313761300Y-54893700D01*
X311346571Y-57836056D02*
X311909350Y-57665339D01*
X311346571Y-51951344D02*
X310761300Y-51893700D01*
X313255709Y-56560411D02*
X313532939Y-56041750D01*
X312882620Y-57015020D02*
X313255709Y-56560411D01*
X313703656Y-54308429D02*
X313532939Y-53745650D01*
X311909350Y-52122061D02*
X311346571Y-51951344D01*
X313255709Y-53226989D02*
X312882620Y-52772380D01*
X313761300Y-54893700D02*
X313703656Y-54308429D01*
X312428011Y-52399291D02*
X311909350Y-52122061D01*
X312428011Y-57388109D02*
X312882620Y-57015020D01*
X311909350Y-57665339D02*
X312428011Y-57388109D01*
X310176029Y-57836056D02*
X310761300Y-57893700D01*
X313532939Y-56041750D02*
X313703656Y-55478971D01*
X310761300Y-57893700D02*
X311346571Y-57836056D01*
X309613250Y-57665339D02*
X310176029Y-57836056D01*
X312882620Y-52772380D02*
X312428011Y-52399291D01*
X313532939Y-53745650D02*
X313255709Y-53226989D01*
X309094589Y-57388109D02*
X309613250Y-57665339D01*
X308639980Y-57015020D02*
X309094589Y-57388109D01*
X307989661Y-56041750D02*
X308266891Y-56560411D01*
X307989661Y-53745650D02*
X307818944Y-54308429D01*
X308639980Y-52772380D02*
X308266891Y-53226989D01*
X309613250Y-52122061D02*
X309094589Y-52399291D01*
X310761300Y-51893700D02*
X310176029Y-51951344D01*
X25596571Y-51951344D02*
X25011300Y-51893700D01*
X26678011Y-52399291D02*
X26159350Y-52122061D01*
X27782939Y-53745650D02*
X27505709Y-53226989D01*
X27953656Y-54308429D02*
X27782939Y-53745650D01*
X28011300Y-54893700D02*
X27953656Y-54308429D01*
X27782939Y-56041750D02*
X27953656Y-55478971D01*
X24426029Y-57836056D02*
X25011300Y-57893700D01*
X27132620Y-57015020D02*
X27505709Y-56560411D01*
X26678011Y-57388109D02*
X27132620Y-57015020D01*
X23863250Y-52122061D02*
X23344589Y-52399291D01*
X26159350Y-57665339D02*
X26678011Y-57388109D01*
X22239661Y-56041750D02*
X22516891Y-56560411D01*
X350074400Y-154052900D02*
X350598400Y-154000100D01*
X349144700Y-154444100D02*
X349586400Y-154204400D01*
X25011300Y-51893700D02*
X24426029Y-51951344D01*
X348051200Y-156076100D02*
X348202700Y-155588100D01*
X348202700Y-157612100D02*
X348051200Y-157124100D01*
X351122400Y-159147300D02*
X350598400Y-159200100D01*
X347998400Y-156600100D02*
X348051200Y-156076100D01*
X349586400Y-158995800D02*
X349144700Y-158756100D01*
X23863250Y-57665339D02*
X24426029Y-57836056D01*
X23344589Y-57388109D02*
X23863250Y-57665339D01*
X22889980Y-52772380D02*
X22516891Y-53226989D01*
X348051200Y-157124100D02*
X347998400Y-156600100D01*
X22889980Y-57015020D02*
X23344589Y-57388109D01*
X22516891Y-56560411D02*
X22889980Y-57015020D01*
X22068944Y-55478971D02*
X22239661Y-56041750D01*
X348759900Y-154761600D02*
X349144700Y-154444100D01*
X350598400Y-154000100D02*
X350598400Y-154000100D01*
X350598400Y-159200100D02*
X350074400Y-159147300D01*
X349144700Y-158756100D02*
X348759900Y-158438600D01*
X22239661Y-53745650D02*
X22068944Y-54308429D01*
X23344589Y-52399291D02*
X22889980Y-52772380D01*
X348759900Y-158438600D02*
X348442400Y-158053800D01*
X348442400Y-155146400D02*
X348759900Y-154761600D01*
X307818944Y-55478971D02*
X307989661Y-56041750D01*
X310176029Y-51951344D02*
X309613250Y-52122061D01*
X349586400Y-154204400D02*
X350074400Y-154052900D01*
X27505709Y-53226989D02*
X27132620Y-52772380D01*
X25011300Y-57893700D02*
X25596571Y-57836056D01*
X307761300Y-54893700D02*
X307818944Y-55478971D01*
X27953656Y-55478971D02*
X28011300Y-54893700D01*
X308266891Y-56560411D02*
X308639980Y-57015020D01*
X307818944Y-54308429D02*
X307761300Y-54893700D01*
X308266891Y-53226989D02*
X307989661Y-53745650D01*
X309094589Y-52399291D02*
X308639980Y-52772380D01*
X348202700Y-155588100D02*
X348442400Y-155146400D01*
X24426029Y-51951344D02*
X23863250Y-52122061D01*
X26159350Y-52122061D02*
X25596571Y-51951344D01*
X27132620Y-52772380D02*
X26678011Y-52399291D01*
X22011300Y-54893700D02*
X22068944Y-55478971D01*
X25596571Y-57836056D02*
X26159350Y-57665339D01*
X348442400Y-158053800D02*
X348202700Y-157612100D01*
X27505709Y-56560411D02*
X27782939Y-56041750D01*
X22516891Y-53226989D02*
X22239661Y-53745650D01*
X22068944Y-54308429D02*
X22011300Y-54893700D01*
X350074400Y-159147300D02*
X349586400Y-158995800D01*
X-327100Y-43474500D02*
X-286300Y-43876700D01*
X-327100Y-31608600D02*
X-327100Y-43474500D01*
X-8754200Y-24600000D02*
X-327100Y-31608600D01*
X166644700Y-154444100D02*
X167086400Y-154204400D01*
X169936900Y-158438600D02*
X169552100Y-158756100D01*
X170254400Y-158053800D02*
X169936900Y-158438600D01*
X165942400Y-155146400D02*
X166259900Y-154761600D01*
X165551200Y-156076100D02*
X165702700Y-155588100D01*
X165498400Y-156600100D02*
X165551200Y-156076100D01*
X165551200Y-157124100D02*
X165498400Y-156600100D01*
X165702700Y-157612100D02*
X165551200Y-157124100D01*
X168098400Y-159200100D02*
X167574400Y-159147300D01*
X168622400Y-154052900D02*
X169110400Y-154204400D01*
X69551300Y-156076100D02*
X69702800Y-155588100D01*
X167574400Y-159147300D02*
X167086400Y-158995800D01*
X170494100Y-157612100D02*
X170254400Y-158053800D01*
X170254400Y-155146400D02*
X170494100Y-155588100D01*
X169936900Y-154761600D02*
X170254400Y-155146400D01*
X166644700Y-158756100D02*
X166259900Y-158438600D01*
X165942400Y-158053800D02*
X165702700Y-157612100D01*
X166259900Y-158438600D02*
X165942400Y-158053800D01*
X169552100Y-158756100D02*
X169110400Y-158995800D01*
X71086500Y-154204400D02*
X71574500Y-154052900D01*
X168622400Y-159147300D02*
X168098400Y-159200100D01*
X170645600Y-157124100D02*
X170494100Y-157612100D01*
X169110400Y-154204400D02*
X169552100Y-154444100D01*
X70644800Y-154444100D02*
X71086500Y-154204400D01*
X169552100Y-154444100D02*
X169936900Y-154761600D01*
X168098400Y-154000100D02*
X168622400Y-154052900D01*
X71574500Y-154052900D02*
X72098500Y-154000100D01*
X69551300Y-157124100D02*
X69498500Y-156600100D01*
X69498500Y-156600100D02*
X69551300Y-156076100D01*
X170645600Y-156076100D02*
X170698400Y-156600100D01*
X168098400Y-154000100D02*
X168098400Y-154000100D01*
X264622400Y-154052900D02*
X265110400Y-154204400D01*
X167086400Y-158995800D02*
X166644700Y-158756100D01*
X264098400Y-154000100D02*
X264622400Y-154052900D01*
X70260000Y-154761600D02*
X70644800Y-154444100D01*
X169110400Y-158995800D02*
X168622400Y-159147300D01*
X167574400Y-154052900D02*
X168098400Y-154000100D01*
X72098500Y-154000100D02*
X72098500Y-154000100D01*
X69702800Y-155588100D02*
X69942500Y-155146400D01*
X167086400Y-154204400D02*
X167574400Y-154052900D01*
X166259900Y-154761600D02*
X166644700Y-154444100D01*
X170698400Y-156600100D02*
X170645600Y-157124100D01*
X165702700Y-155588100D02*
X165942400Y-155146400D01*
X170494100Y-155588100D02*
X170645600Y-156076100D01*
X69942500Y-155146400D02*
X70260000Y-154761600D01*
X69702800Y-157612100D02*
X69551300Y-157124100D01*
X-14401600Y-159200100D02*
X-14925600Y-159147300D01*
X71086500Y-158995800D02*
X70644800Y-158756100D01*
X74645700Y-156076100D02*
X74698500Y-156600100D01*
X72622500Y-154052900D02*
X73110500Y-154204400D01*
X-16797300Y-157612100D02*
X-16948800Y-157124100D01*
X-16557600Y-158053800D02*
X-16797300Y-157612100D01*
X71574500Y-159147300D02*
X71086500Y-158995800D01*
X73552200Y-158756100D02*
X73110500Y-158995800D01*
X74254500Y-158053800D02*
X73937000Y-158438600D01*
X74698500Y-156600100D02*
X74645700Y-157124100D01*
X-14401600Y-154000100D02*
X-14401600Y-154000100D01*
X-12245600Y-158053800D02*
X-12563100Y-158438600D01*
X-16797300Y-155588100D02*
X-16557600Y-155146400D01*
X74494200Y-155588100D02*
X74645700Y-156076100D01*
X-16557600Y-155146400D02*
X-16240100Y-154761600D01*
X-13877600Y-159147300D02*
X-14401600Y-159200100D01*
X-13389600Y-158995800D02*
X-13877600Y-159147300D01*
X-16240100Y-158438600D02*
X-16557600Y-158053800D01*
X-15855300Y-154444100D02*
X-15413600Y-154204400D01*
X72098500Y-154000100D02*
X72622500Y-154052900D01*
X-15413600Y-154204400D02*
X-14925600Y-154052900D01*
X-16948800Y-157124100D02*
X-17001600Y-156600100D01*
X74254500Y-155146400D02*
X74494200Y-155588100D01*
X-16948800Y-156076100D02*
X-16797300Y-155588100D01*
X-15855300Y-158756100D02*
X-16240100Y-158438600D01*
X-12563100Y-158438600D02*
X-12947900Y-158756100D01*
X-12947900Y-158756100D02*
X-13389600Y-158995800D01*
X-12005900Y-157612100D02*
X-12245600Y-158053800D01*
X69942500Y-158053800D02*
X69702800Y-157612100D01*
X73937000Y-158438600D02*
X73552200Y-158756100D01*
X73937000Y-154761600D02*
X74254500Y-155146400D01*
X-14925600Y-154052900D02*
X-14401600Y-154000100D01*
X-14925600Y-159147300D02*
X-15413600Y-158995800D01*
X73552200Y-154444100D02*
X73937000Y-154761600D01*
X73110500Y-154204400D02*
X73552200Y-154444100D01*
X-16240100Y-154761600D02*
X-15855300Y-154444100D01*
X73110500Y-158995800D02*
X72622500Y-159147300D01*
X74494200Y-157612100D02*
X74254500Y-158053800D01*
X-17001600Y-156600100D02*
X-16948800Y-156076100D01*
X74645700Y-157124100D02*
X74494200Y-157612100D01*
X70260000Y-158438600D02*
X69942500Y-158053800D01*
X72098500Y-159200100D02*
X71574500Y-159147300D01*
X-11854400Y-157124100D02*
X-12005900Y-157612100D01*
X72622500Y-159147300D02*
X72098500Y-159200100D01*
X-15413600Y-158995800D02*
X-15855300Y-158756100D01*
X70644800Y-158756100D02*
X70260000Y-158438600D01*
X-12005900Y-28588100D02*
X-11854400Y-29076100D01*
X-12563100Y-31438600D02*
X-12947900Y-31756100D01*
X-11801600Y-29600100D02*
X-11854400Y-30124100D01*
X-11854400Y-30124100D02*
X-12005900Y-30612100D01*
X-19401700Y-24600000D02*
X-8754200Y-24600000D01*
X-24007600Y-27657000D02*
X-23545700Y-26807800D01*
X-13389600Y-27204400D02*
X-12947900Y-27444100D01*
X-23545700Y-26807800D02*
X-22934300Y-26067300D01*
X-13877600Y-27052900D02*
X-13389600Y-27204400D01*
X-12005900Y-30612100D02*
X-12245600Y-31053800D01*
X-12563100Y-27761600D02*
X-12245600Y-28146400D01*
X-24299700Y-28594500D02*
X-24007600Y-27657000D01*
X-22934300Y-26067300D02*
X-22193900Y-25455900D01*
X-12245600Y-28146400D02*
X-12005900Y-28588100D01*
X-22193900Y-25455900D02*
X-21344700Y-24994000D01*
X-12947900Y-27444100D02*
X-12563100Y-27761600D01*
X-8754200Y-24600000D02*
X-8754200Y-24600000D01*
X-11854400Y-29076100D02*
X-11801600Y-29600100D01*
X-21344700Y-24994000D02*
X-20407200Y-24701900D01*
X-24401600Y-29600000D02*
X-24299700Y-28594500D01*
X-14401600Y-27000100D02*
X-13877600Y-27052900D01*
X-12245600Y-31053800D02*
X-12563100Y-31438600D01*
X-20407200Y-24701900D02*
X-19401700Y-24600000D01*
X-21344700Y-161206000D02*
X-22193900Y-160744100D01*
X359131100Y-160132700D02*
X358390700Y-160744100D01*
X-23545700Y-159392200D02*
X-24007600Y-158543000D01*
X360496500Y-28594500D02*
X360598400Y-29600000D01*
X-22934300Y-160132700D02*
X-23545700Y-159392200D01*
X-24401600Y-156600000D02*
X-24401600Y-29600000D01*
X-22193900Y-160744100D02*
X-22934300Y-160132700D01*
X-20407200Y-161498100D02*
X-21344700Y-161206000D01*
X-19401700Y-161600000D02*
X-20407200Y-161498100D01*
X360496500Y-157605500D02*
X360204400Y-158543000D01*
X356604000Y-161498100D02*
X355598500Y-161600000D01*
X355598500Y-161600000D02*
X-19401700Y-161600000D01*
X360204400Y-158543000D02*
X359742500Y-159392200D01*
X358390700Y-160744100D02*
X357541500Y-161206000D01*
X360598400Y-29600000D02*
X360598400Y-156600000D01*
X360204400Y-27657000D02*
X360496500Y-28594500D01*
X357541500Y-161206000D02*
X356604000Y-161498100D01*
X359742500Y-159392200D02*
X359131100Y-160132700D01*
X360598400Y-156600000D02*
X360496500Y-157605500D01*
X359131100Y-26067300D02*
X359742500Y-26807800D01*
X359742500Y-26807800D02*
X360204400Y-27657000D01*
X-24299700Y-157605500D02*
X-24401600Y-156600000D01*
X-24007600Y-158543000D02*
X-24299700Y-157605500D01*
X74494200Y-30612100D02*
X74254500Y-31053800D01*
X74698500Y-29600100D02*
X74645700Y-30124100D01*
X74645700Y-29076100D02*
X74698500Y-29600100D01*
X73110500Y-31995800D02*
X72622500Y-32147300D01*
X74494200Y-28588100D02*
X74645700Y-29076100D01*
X74645700Y-30124100D02*
X74494200Y-30612100D01*
X74254500Y-28146400D02*
X74494200Y-28588100D01*
X69942500Y-31053800D02*
X69702800Y-30612100D01*
X73552200Y-27444100D02*
X73937000Y-27761600D01*
X72098500Y-32200100D02*
X71574500Y-32147300D01*
X73552200Y-31756100D02*
X73110500Y-31995800D01*
X69551300Y-29076100D02*
X69702800Y-28588100D01*
X71574500Y-32147300D02*
X71086500Y-31995800D01*
X69498500Y-29600100D02*
X69551300Y-29076100D01*
X69551300Y-30124100D02*
X69498500Y-29600100D01*
X69702800Y-30612100D02*
X69551300Y-30124100D01*
X70260000Y-31438600D02*
X69942500Y-31053800D01*
X71086500Y-31995800D02*
X70644800Y-31756100D01*
X73937000Y-31438600D02*
X73552200Y-31756100D01*
X73937000Y-27761600D02*
X74254500Y-28146400D01*
X70644800Y-31756100D02*
X70260000Y-31438600D01*
X72622500Y-32147300D02*
X72098500Y-32200100D01*
X74254500Y-31053800D02*
X73937000Y-31438600D01*
X166259900Y-27761600D02*
X166644700Y-27444100D01*
X165702700Y-30612100D02*
X165551200Y-30124100D01*
X265552100Y-27444100D02*
X265936900Y-27761600D01*
X166644700Y-31756100D02*
X166259900Y-31438600D01*
X265936900Y-27761600D02*
X266254400Y-28146400D01*
X166644700Y-27444100D02*
X167086400Y-27204400D01*
X166259900Y-31438600D02*
X165942400Y-31053800D01*
X265110400Y-27204400D02*
X265552100Y-27444100D01*
X168098400Y-27000100D02*
X168098400Y-27000100D01*
X165942400Y-31053800D02*
X165702700Y-30612100D01*
X165942400Y-28146400D02*
X166259900Y-27761600D01*
X165702700Y-28588100D02*
X165942400Y-28146400D01*
X264622400Y-27052900D02*
X265110400Y-27204400D01*
X167574400Y-27052900D02*
X168098400Y-27000100D01*
X165551200Y-29076100D02*
X165702700Y-28588100D01*
X165498400Y-29600100D02*
X165551200Y-29076100D01*
X165551200Y-30124100D02*
X165498400Y-29600100D01*
X167086400Y-31995800D02*
X166644700Y-31756100D01*
X167086400Y-27204400D02*
X167574400Y-27052900D01*
X266254400Y-28146400D02*
X266494100Y-28588100D01*
X167574400Y-32147300D02*
X167086400Y-31995800D01*
X264098400Y-27000100D02*
X264622400Y-27052900D01*
X168098400Y-32200100D02*
X167574400Y-32147300D01*
X169936900Y-31438600D02*
X169552100Y-31756100D01*
X170494100Y-30612100D02*
X170254400Y-31053800D01*
X169110400Y-27204400D02*
X169552100Y-27444100D01*
X170494100Y-28588100D02*
X170645600Y-29076100D01*
X170254400Y-28146400D02*
X170494100Y-28588100D01*
X168622400Y-27052900D02*
X169110400Y-27204400D01*
X70644800Y-27444100D02*
X71086500Y-27204400D01*
X69942500Y-28146400D02*
X70260000Y-27761600D01*
X170254400Y-31053800D02*
X169936900Y-31438600D01*
X170645600Y-29076100D02*
X170698400Y-29600100D01*
X169936900Y-27761600D02*
X170254400Y-28146400D01*
X72098500Y-27000100D02*
X72098500Y-27000100D01*
X69702800Y-28588100D02*
X69942500Y-28146400D01*
X169110400Y-31995800D02*
X168622400Y-32147300D01*
X169552100Y-31756100D02*
X169110400Y-31995800D01*
X168098400Y-27000100D02*
X168622400Y-27052900D01*
X71574500Y-27052900D02*
X72098500Y-27000100D01*
X170645600Y-30124100D02*
X170494100Y-30612100D01*
X170698400Y-29600100D02*
X170645600Y-30124100D01*
X169552100Y-27444100D02*
X169936900Y-27761600D01*
X70260000Y-27761600D02*
X70644800Y-27444100D01*
X168622400Y-32147300D02*
X168098400Y-32200100D01*
X71086500Y-27204400D02*
X71574500Y-27052900D01*
X-15413600Y-27204400D02*
X-14925600Y-27052900D01*
X-14401600Y-27000100D02*
X-14401600Y-27000100D01*
X-14925600Y-27052900D02*
X-14401600Y-27000100D01*
X-12947900Y-31756100D02*
X-13389600Y-31995800D01*
X-16240100Y-27761600D02*
X-15855300Y-27444100D01*
X-16557600Y-31053800D02*
X-16797300Y-30612100D01*
X-14401600Y-32200100D02*
X-14925600Y-32147300D01*
X-14925600Y-32147300D02*
X-15413600Y-31995800D01*
X72098500Y-27000100D02*
X72622500Y-27052900D01*
X-16557600Y-28146400D02*
X-16240100Y-27761600D01*
X-16797300Y-30612100D02*
X-16948800Y-30124100D01*
X-16948800Y-30124100D02*
X-17001600Y-29600100D01*
X-15413600Y-31995800D02*
X-15855300Y-31756100D01*
X-13877600Y-32147300D02*
X-14401600Y-32200100D01*
X-15855300Y-27444100D02*
X-15413600Y-27204400D01*
X-16797300Y-28588100D02*
X-16557600Y-28146400D01*
X-16948800Y-29076100D02*
X-16797300Y-28588100D01*
X-17001600Y-29600100D02*
X-16948800Y-29076100D01*
X-16240100Y-31438600D02*
X-16557600Y-31053800D01*
X-15855300Y-31756100D02*
X-16240100Y-31438600D01*
X-13389600Y-31995800D02*
X-13877600Y-32147300D01*
X73110500Y-27204400D02*
X73552200Y-27444100D01*
X72622500Y-27052900D02*
X73110500Y-27204400D01*
X265110400Y-31995800D02*
X264622400Y-32147300D01*
X261551200Y-29076100D02*
X261702700Y-28588100D01*
X266698400Y-29600100D02*
X266645600Y-30124100D01*
X261702700Y-30612100D02*
X261551200Y-30124100D01*
X265936900Y-31438600D02*
X265552100Y-31756100D01*
X266254400Y-31053800D02*
X265936900Y-31438600D01*
X263086400Y-31995800D02*
X262644700Y-31756100D01*
X264098400Y-32200100D02*
X263574400Y-32147300D01*
X262259900Y-27761600D02*
X262644700Y-27444100D01*
X261498400Y-29600100D02*
X261551200Y-29076100D01*
X261551200Y-30124100D02*
X261498400Y-29600100D01*
X261942400Y-31053800D02*
X261702700Y-30612100D01*
X264622400Y-32147300D02*
X264098400Y-32200100D01*
X261942400Y-28146400D02*
X262259900Y-27761600D01*
X262259900Y-31438600D02*
X261942400Y-31053800D01*
X266494100Y-30612100D02*
X266254400Y-31053800D01*
X266645600Y-30124100D02*
X266494100Y-30612100D01*
X266494100Y-28588100D02*
X266645600Y-29076100D01*
X265552100Y-31756100D02*
X265110400Y-31995800D01*
X266645600Y-29076100D02*
X266698400Y-29600100D01*
X263574400Y-32147300D02*
X263086400Y-31995800D01*
X261702700Y-28588100D02*
X261942400Y-28146400D01*
X262644700Y-31756100D02*
X262259900Y-31438600D01*
X-11854400Y-156076100D02*
X-11801600Y-156600100D01*
X349144700Y-27444100D02*
X349586400Y-27204400D01*
X350074400Y-32147300D02*
X349586400Y-31995800D01*
X352754400Y-31053800D02*
X352436900Y-31438600D01*
X264098400Y-27000100D02*
X264098400Y-27000100D01*
X263574400Y-27052900D02*
X264098400Y-27000100D01*
X-11801600Y-156600100D02*
X-11854400Y-157124100D01*
X-12005900Y-155588100D02*
X-11854400Y-156076100D01*
X353198400Y-29600100D02*
X353145600Y-30124100D01*
X-12245600Y-155146400D02*
X-12005900Y-155588100D01*
X-12947900Y-154444100D02*
X-12563100Y-154761600D01*
X348051200Y-30124100D02*
X347998400Y-29600100D01*
X-14401600Y-154000100D02*
X-13877600Y-154052900D01*
X349586400Y-31995800D02*
X349144700Y-31756100D01*
X348759900Y-27761600D02*
X349144700Y-27444100D01*
X353145600Y-30124100D02*
X352994100Y-30612100D01*
X348442400Y-28146400D02*
X348759900Y-27761600D01*
X263086400Y-27204400D02*
X263574400Y-27052900D01*
X-12563100Y-154761600D02*
X-12245600Y-155146400D01*
X-13389600Y-154204400D02*
X-12947900Y-154444100D01*
X348442400Y-31053800D02*
X348202700Y-30612100D01*
X352994100Y-30612100D02*
X352754400Y-31053800D01*
X350598400Y-32200100D02*
X350074400Y-32147300D01*
X351122400Y-32147300D02*
X350598400Y-32200100D01*
X262644700Y-27444100D02*
X263086400Y-27204400D01*
X350598400Y-27000100D02*
X351122400Y-27052900D01*
X-13877600Y-154052900D02*
X-13389600Y-154204400D01*
X350074400Y-27052900D02*
X350598400Y-27000100D01*
X349586400Y-27204400D02*
X350074400Y-27052900D01*
X348202700Y-30612100D02*
X348051200Y-30124100D01*
X352436900Y-27761600D02*
X352754400Y-28146400D01*
X351610400Y-31995800D02*
X351122400Y-32147300D01*
X352052100Y-27444100D02*
X352436900Y-27761600D01*
X352052100Y-31756100D02*
X351610400Y-31995800D01*
X347998400Y-29600100D02*
X348051200Y-29076100D01*
X352436900Y-31438600D02*
X352052100Y-31756100D01*
X348759900Y-31438600D02*
X348442400Y-31053800D01*
X353145600Y-29076100D02*
X353198400Y-29600100D01*
X349144700Y-31756100D02*
X348759900Y-31438600D01*
X351122400Y-27052900D02*
X351610400Y-27204400D01*
X348202700Y-28588100D02*
X348442400Y-28146400D01*
X351610400Y-27204400D02*
X352052100Y-27444100D01*
X348051200Y-29076100D02*
X348202700Y-28588100D01*
X352994100Y-28588100D02*
X353145600Y-29076100D01*
X352754400Y-28146400D02*
X352994100Y-28588100D01*
X350598400Y-27000100D02*
X350598400Y-27000100D01*
X12632100Y-43876700D02*
X12672900Y-43474500D01*
X15300Y-44591400D02*
X259800Y-44887600D01*
X12672900Y-31608600D02*
X21100000Y-24600000D01*
X12515300Y-44251700D02*
X12632100Y-43876700D01*
X12330500Y-44591400D02*
X12515300Y-44251700D01*
X10672900Y-45474500D02*
X11075100Y-45433700D01*
X12086000Y-44887600D02*
X12330500Y-44591400D01*
X11075100Y-45433700D02*
X11450100Y-45316900D01*
X1270700Y-45433700D02*
X1672900Y-45474500D01*
X1672900Y-45474500D02*
X10672900Y-45474500D01*
X259800Y-44887600D02*
X556000Y-45132100D01*
X-286300Y-43876700D02*
X-169500Y-44251700D01*
X895700Y-45316900D02*
X1270700Y-45433700D01*
X11789800Y-45132100D02*
X12086000Y-44887600D01*
X-169500Y-44251700D02*
X15300Y-44591400D01*
X12672900Y-43474500D02*
X12672900Y-31608600D01*
X356604000Y-24701900D02*
X357541500Y-24994000D01*
X556000Y-45132100D02*
X895700Y-45316900D01*
X358390700Y-25455900D02*
X359131100Y-26067300D01*
X357541500Y-24994000D02*
X358390700Y-25455900D01*
X355598500Y-24600000D02*
X356604000Y-24701900D01*
X11450100Y-45316900D02*
X11789800Y-45132100D01*
X21100000Y-24600000D02*
X355598500Y-24600000D01*
G04 #@! TD*
M02*
